<?xml version="1.0" encoding="UTF-8"?><svg id="Layer_2" xmlns="http://www.w3.org/2000/svg" viewBox="0 0 62.59 62.74"><defs><style>.cls-1{fill:#020202;}.cls-1,.cls-2{stroke-width:0px;}.cls-2{fill:#fff;}</style></defs><g id="_9"><path id="bg" class="cls-2" d="m30.76,62.73c18.16.47,32.46-14.23,31.8-32.63C61.99,14.02,48.43-.4,30.76,0,14.28.16-.82,13.5.03,32.53c.74,16.55,14.01,29.77,30.73,30.2Z"/><path id="num" class="cls-1" d="m31.76,34.33c.49-.34,1.03-.62,1.57-.9.28-.14.58-.43.89-.24.31.2.24.61.15.9-.43,1.37-.54,2.82-1.22,4.12-1.86,3.55-5.19,4.25-8.24,1.64-.64-.55-1.06-.63-1.59.07-.59.78-1.18,1.56-1.85,2.27-.62.67-.38,1.14.19,1.63,1.08.91,2.32,1.54,3.58,2.13,4.39,2.05,10.33-.05,12.62-4.31,1.84-3.42,2.46-7.06,2.32-11.18.04-4.92-.84-6.99-2.5-9.96-3.29-5.9-11.01-6.58-15.38-1.97-3.04,3.21-3.05,10.36-.47,13.67,2.16,2.77,6.5,4.48,9.91,2.14Zm-5.66-11.33c.52-1.37,1.43-2.4,3.02-2.52,1.63-.12,2.78.68,3.49,2.07.65,1.27,1.29,2.57,1.29,4.06-.01,1.8-1.8,3.61-3.97,4.01-1.84.34-3.24-.51-3.87-2.56-.5-1.66-.6-3.39.03-5.06Z"/></g></svg>