<?xml version="1.0" encoding="UTF-8"?><svg id="Layer_2" xmlns="http://www.w3.org/2000/svg" viewBox="0 0 62.03 61.2"><defs><style>.cls-1{fill:#030203;}.cls-1,.cls-2{stroke-width:0px;}.cls-2{fill:#fff;}</style></defs><g id="_11"><path id="bg" class="cls-2" d="m21.15,2.39c-2.09.63-3.95,1.99-6.06,2.76-3.5,1.28-6.76,3.06-8.4,6.61-1.03,2.23-1.9,4.46-3.87,6.08-.46.38-.66,1.11-.9,1.71C.78,22.42.18,25.37.04,28.48c-.5,10.91,3.75,19.68,12.12,26.37,5.4,4.31,11.81,6.31,20.59,6.36,10.51-.53,19.95-5.83,25.81-16.89,4.03-7.6,4.43-15.57,1.83-23.69-2.17-6.76-6.31-12.12-12.13-16.14-1.67-1.15-3.36-2.61-5.37-2.83C38.85,1.21,34.95,0,30.8,0c-3.54,0-6.5,1.45-9.65,2.39Z"/><path id="num" class="cls-1" d="m47.1,19.51c-1.16-.43-2.39-.65-3.46-.93-1.62.22-3.06.54-4.57.51-2.65-.05-2.72.13-3.37,2.79-.26,1.07.09,1.41,1.02,1.64,3.36.83,3.31.83,2.19,3.98-1.44,4.05-2.95,8.08-3.9,12.28-.26,1.15-.86,1.69-2.08,1.14-.84-.38-1.69-.77-2.55-1.09-.71-.27-1.32-.32-1.57.71-.21.88-.68,1.71-.96,2.58-.28.85-.34,1.56.81,1.96,3.86,1.33,7.62,2.94,11.62,3.85,3.68.84,3.67.87,4.52-2.83.02-.09.04-.18.06-.27.18-1.15-.38-1.76-1.46-1.95-.36-.06-.74-.02-1.11-.06-1.77-.2-2.13-.71-1.59-2.36,1.7-5.19,3.43-10.38,5.16-15.56.51-1.53,1.11-3.04,1.6-4.58.2-.63.55-1.49-.35-1.82Z"/><path id="num-2" class="cls-1" d="m25.19,38.28c-.7-.22-1.43-.38-2.15-.56-1.21-.29-1.52-.93-1.09-2.14,2.2-6.14,4.69-12.19,6.29-18.53.27-1.06.97-2.57.19-3.26-.95-.84-2.45-1.28-3.91-1.07-.23.03-.46.09-.68.15-1.04.27-2.1.36-3.18.28q-2.48-.11-2.98.94c-1.33,2.79-1.21,3.05,1.75,3.75,2.26.53,2.34.69,1.5,2.89-1.71,4.45-3.16,8.99-4.51,13.56-.24.82-.63.93-1.27.83-1.11-.18-2.05-.84-3.09-1.2-1.04-.36-1.88-.31-2.21,1-.23.9-.54,1.77-.88,2.63-.31.78.06,1.13.71,1.37,4.39,1.61,8.75,3.3,13.34,4.32,1.17.26,1.83.03,2.14-1.17.19-.71.5-1.39.8-2.07.38-.87.12-1.45-.76-1.72Z"/></g></svg>