<?xml version="1.0" encoding="UTF-8"?><svg id="Layer_2" xmlns="http://www.w3.org/2000/svg" viewBox="0 0 62.66 62.79"><defs><style>.cls-1{fill:#020202;}.cls-1,.cls-2,.cls-3{stroke-width:0px;}.cls-2{fill:#fff;}.cls-3{fill:#030202;}</style></defs><g id="_18"><path id="bg" class="cls-2" d="m50.01,5.66C43.98,2.61,37.91-.21,30.89.01,14.38.54.5,13.83.01,30.89c-.51,18,14.41,32.16,31.18,31.9,16.43.02,31.56-13.13,31.47-31.71-.05-10.48-5.22-18.54-12.66-25.41Z"/><path id="num" class="cls-3" d="m41.77,18.74c-3.24-.54-5.78.98-7.5,3.73-1.47,2.34-2.18,4.85-.86,7.5.88,1.76.87,2.02-.86,2.83-.29.14-.6.25-.89.39-2.93,1.38-4.89,6.24-3.91,9.3,1.42,4.41,5.85,6.96,9.36,6.66,2.35,0,5.4-1.19,6.48-2.86,1.93-2.97,3.32-6.53.7-10.22-.79-1.11-.63-1.72.62-2.34,3.27-1.64,5.12-6.51,3.94-9.95-1.16-3.4-4.03-4.52-7.1-5.04Zm-1.52,22.57c-.53,2.15-2.18,3.51-4,3.3-2.07-.25-3.69-2.12-3.73-4.75.26-1.57,1.2-3.22,2.63-4.61.31-.3.68-.23,1.05-.16,2.03.38,4.55,4.24,4.05,6.23Zm4.01-13.51c-.47,1.38-1.32,2.53-2.34,3.57-.44.45-.99.5-1.38.16-1.42-1.23-2.57-2.66-2.73-4.35.09-1.41.15-2.49,1.16-3.29,1.19-.93,2.49-1.16,3.58-.47,1.68,1.06,2.3,2.61,1.7,4.38Z"/><path id="num-2" class="cls-1" d="m25.78,26.14c1.09-3.34,2.19-6.68,3.29-10.02.18-.55.41-1.16-.38-1.37-1.42-.37-2.79-1.08-4.33-.72-1.27.29-2.57.36-4.1.41-.5.19-1.42-.43-1.99.39-.68.97-1.1,2.16-.98,3.26.1.93,1.38.32,2.04.72.22.13.54.12.81.18,1.66.38,1.85.83,1.22,2.45-1.07,2.77-2.03,5.58-3.15,8.33-.79,1.94-1.18,3.99-1.85,5.97-.25.74-.69,1.02-1.49.68-1.02-.43-2.08-.78-3.12-1.15-.81-.29-1.31-.08-1.54.83-.19.76-.53,1.48-.82,2.21-.44,1.1-.26,1.76,1.03,2.17,3.97,1.26,7.89,2.66,11.84,3.98,1.75.59,2.43.19,2.94-1.62q.77-2.74-1.8-3.62c-1.58-.54-1.88-.96-1.29-2.45,1.4-3.48,2.53-7.05,3.69-10.62Z"/></g></svg>