<?xml version="1.0" encoding="UTF-8"?><svg id="Layer_2" xmlns="http://www.w3.org/2000/svg" viewBox="0 0 62.06 61.75"><defs><style>.cls-1{fill:#020202;}.cls-1,.cls-2{stroke-width:0px;}.cls-2{fill:#fff;}</style></defs><g id="_40"><path id="bg" class="cls-2" d="m30.46,0C14.14.4-.11,13.41,0,31.27c.11,18.05,15.3,30.3,30.82,30.48,17.1.14,31.42-13.75,31.23-31.27C61.88,14.05,48.76-.43,30.46,0Z"/><path id="num" class="cls-1" d="m45.79,19.08c-1.46-2.67-3.63-4.34-6.77-4.32-3.33.02-5.94,1.41-7.51,4.44-2.01,3.87-1.85,8.03-1.52,12.18.18,2.24.31,2.16-1.95,2.22-1.21.03-1.47-.47-1.49-1.56-.11-4.83-.37-9.66-.73-14.48-.07-.87-.29-1.23-1.21-1.14-1.41.14-2.83.26-4.24.23-1.22-.03-1.83.52-2.34,1.56-1.81,3.73-3.77,7.39-5.53,11.15-1.4,2.99-3.57,5.77-2.67,9.47.22.9.39,1.26,1.35,1.17,2.91-.29,5.84-.48,8.75-.76,1.13-.11,1.66.27,1.68,1.42.03,1.66.11,3.32.13,4.98,0,.87.34,1.25,1.24,1.16,1.07-.1,2.15-.17,3.22-.15,1.01.01,1.28-.48,1.21-1.37-.14-1.7-.27-3.41-.42-5.11-.09-1.03.24-1.64,1.37-1.47,1.26.19,1.6-.36,1.57-1.57-.02-.96-.49-1.98.14-3.09.52.63.58,1.22.67,1.84.33,2.27.73,4.53,2,6.51,1.75,2.75,4.26,4.12,7.5,3.99,2.9-.12,4.89-1.74,6.23-4.22,1.92-3.56,2.09-7.45,2-11.36-.09-4.08-.7-8.06-2.69-11.7Zm-26.06,15.19c-1.06-.01-2.14.13-3.19.28-.84.13-1.02-.16-.65-.85,1.61-3.06,3.25-6.09,4.13-9.47.08-.32.23-.73.66-.64.42.09.35.53.37.86.02.39,0,.78,0,1.29-.45,2.27-.19,4.64.03,7.02.1,1.03-.21,1.53-1.34,1.51Zm22.43,3.2c-.06.33.02.71-.1,1.01-.5,1.23-1.02,2.59-2.61,2.61-1.47.01-2-1.28-2.43-2.4-.83-2.16-.94-4.48-1.17-6.75-.31-3.09-.7-6.2.1-9.3.35-1.36,1.06-2.35,2.51-2.46,1.44-.11,2.1,1.04,2.45,2.13.91,2.79,1.31,5.69,1.28,8.64-.1,2.18.35,4.35-.03,6.53Z"/></g></svg>