<?xml version="1.0" encoding="UTF-8"?><svg id="Layer_2" xmlns="http://www.w3.org/2000/svg" viewBox="0 0 61.99 60.16"><defs><style>.cls-1{fill:#020202;}.cls-1,.cls-2{stroke-width:0px;}.cls-2{fill:#fff;}</style></defs><g id="_29"><path id="bg" class="cls-2" d="m59.58,19.58C54.82,8.2,46.15,1.53,33.73.2c-7.89-.85-15.08,1.05-21.44,5.89C4.11,12.31.14,20.6,0,30.82c.07,1.27.07,2.54.24,3.8.58,4.38,1.48,8.63,4.42,12.2,4.48,5.45,10.26,8.93,16.8,11.22,4.72,1.66,9.62,2.31,14.63,2.07,5.25-.25,10.09-1.75,14.2-5.04,10.46-8.38,14.82-22.28,9.29-35.48Z"/><path id="num" class="cls-1" d="m37.49,21.4c-2.37,2.69-3.39,5.95-3.6,9.39-.35,5.76,5.49,8.91,9.15,6.68.29-.17.59-.34,1.13-.2-.24,1.63-1.2,2.83-2.01,4.07-2.07,3.18-5.66,3.01-7.44-.33-.16-.3-.18-.67-.54-.81-.75-.29-3.95,2.29-3.81,3.06.02.14.1.27.15.41,1.71,4.61,7.36,6.72,11.75,4.46,2.21-1.14,3.78-2.88,5.07-4.93,2.33-3.68,3.76-7.69,4.23-12,.37-3.41-.04-6.79-2.12-9.59-2.79-3.77-8.82-3.76-11.96-.2Zm3.94,12.26c-1.2-.13-1.91-.81-2.08-2.03-.39-2.71.65-4.95,2.37-6.92,1.01-1.16,2.48-1.11,3.53.03.8.87,1.11,1.94,1.09,3.81-.03,3.57-1.83,5.45-4.91,5.12Z"/><path id="num-2" class="cls-1" d="m28.91,39.85c-2.28-.72-4.58-1.35-6.94-1.74-.35-.06-.89.09-.94-.44-.04-.35.35-.55.65-.72.17-.1.35-.18.52-.27,4.87-2.66,9.04-6.06,10.99-11.44.82-2.27,1.14-4.74.03-7.12-1.58-3.4-4.54-4.45-7.94-4.74-2.18-.18-4.01.76-5.84,1.7-1.84.95-1.85,1.04-.84,2.86q1.32,2.37,3.76,1.13c1.68-.86,3.59-.71,4.79.37,1.15,1.03,1.27,2.45.55,4.47-.92,2.56-2.7,4.39-4.85,5.89-3.24,2.26-6.58,4.37-10.12,6.14-1.12.56-2.07,2.55-1.94,3.84.05.48.29.6.72.74,3.02.93,6.01,1.94,9.03,2.86,2.13.65,4.29,1.23,6.45,1.8.6.16,1.47.3,1.59-.53.18-1.28.88-2.36,1.05-3.63.1-.71-.12-.95-.72-1.14Z"/></g></svg>