<?xml version="1.0" encoding="UTF-8"?><svg id="Layer_2" xmlns="http://www.w3.org/2000/svg" viewBox="0 0 61.37 57.91"><defs><style>.cls-1{fill:#cac8ca;}.cls-1,.cls-2,.cls-3,.cls-4{stroke-width:0px;}.cls-2{fill:#020202;}.cls-3{fill:#e0dee0;}.cls-4{fill:#fff;}</style></defs><g id="_26"><path id="bg" class="cls-4" d="m53.14,12.29c-3.89-1.14-7.64-2.67-11.35-4.26-6.05-2.59-12.17-5.01-18.28-7.44-1.45-.58-2.87-.83-4.41-.27-3.73,1.38-6.96,3.55-9.78,6.29C4.01,11.76,1.15,18.17.2,25.44c-.61,4.68.29,9.22,1.62,13.68.21.69.44,1.57.44,1.57l.18.62c.43.86.42.87.5,1.02,1.31,2.52,2.89,4.87,4.6,7.12,2.38,3.14,5.27,5.76,8.82,7.56,1.32.67,2.87,1.14,4.2.77,4.3-1.2,8.43-2.95,12.63-4.48,4.8-1.75,9.64-3.44,14.53-4.92,2.23-.67,4.31-1.43,6.13-2.92,5.55-4.57,7.62-10.61,7.52-17.59-.04-2.51-.66-4.93-1.39-7.28-1.13-3.64-2.68-7.08-6.84-8.3Zm-26.57-2.05c-1.37-1.19-2.47-2.74-3.16-4.5-.23-.6-.58-1.12-1.19-1.42-.95-.46-1.61-1.28-2.26-2.05-.58-.69-.48-1.17.6-1.32,1.8-.26,2.55.9,3.22,2.18,1.38,2.63,3.58,4.43,6,6,2.58,1.67,5.35,2.94,8.38,3.57.23.05.49.08.7.62-2.01-.11-3,1.67-4.7,2.21-1.41.44-2.67-.18-2.98-.95-.9-2.29-3.02-2.95-4.62-4.33Z"/><path id="num" class="cls-2" d="m48.62,18.04h0c-.26-.33-.53-.66-.79-.99-.6-.46-1.21-.92-1.81-1.37h0c-.8.04-1.24-.67-1.91-.92-4.28-1.59-8.85.13-11.2,4.33-1.67,2.97-2.5,6.18-2.82,9.58-.29,3.03-.44,6.01.24,9,.52,2.29,1.43,4.35,3.18,5.97,2.1,1.96,5.18,2.34,7.61,1.51,4.92-1.68,7.99-9.99,5.84-15.16-.98-2.37-4.22-4.68-6.62-4.43-1.21.13-2.27.46-3.31,1.02-.26.14-.53.32-.81.11-.31-.23-.09-.53-.03-.8.44-2.01,1.29-3.78,2.94-5.09,1.21-.96,2.49-1.06,3.75-.17.59.42,1.16.9,1.63,1.45.72.84,1.33.81,2.05.03.66-.72,1.37-1.39,2.06-2.08.3-.66.45-1.32.01-1.98Zm-10.71,12.75c1.66-1.01,3.05-.31,3.68,1.5.87,2.48.37,4.95-1.35,7.01-1.41,1.69-3.1,1.31-4.05-.66-.55-1.14-.87-2.26-.75-3.7-.48-1.99.84-3.17,2.46-4.15Z"/><path id="num-2" class="cls-2" d="m20.6,36.09c1.31-1.32,2.71-2.56,3.89-3.98,3.09-3.71,5.13-7.84,4.6-12.87-.29-2.72-1.35-4.96-3.96-6.21-3.41-1.63-6.68-1.19-9.71.88-3.29,2.24-3.31,2.49-.78,5.55.57.69,1.08.73,1.72.18.74-.63,1.49-1.25,2.39-1.68,2.66-1.24,4.72.16,4.55,3.11-.13,2.21-.98,4.15-2.22,5.95-2.36,3.41-5.47,6.11-8.58,8.77-1.44,1.23-2.47,2.51-2.38,4.55.05,1,.35,1.42,1.31,1.5,1.26.11,2.52.25,3.78.4,3.68.44,7.36.89,11.04,1.35,1.15.15,1.75-.31,1.9-1.46.13-1.01.09-2.04.44-3.03.37-1.01-.13-1.41-1.12-1.47-1.61-.11-3.21-.27-4.81-.41,0,.02,0,.04,0,.06-.54,0-1.07.02-1.61,0-.36-.02-.87.25-1.06-.18-.23-.52.32-.72.62-1.02Z"/><path class="cls-3" d="m34.17,15.53c1.7-.53,2.68-2.32,4.7-2.21-.21-.54-.47-.57-.7-.62-3.03-.63-5.8-1.9-8.38-3.57-2.41-1.57-4.62-3.37-6-6-.67-1.28-1.42-2.44-3.22-2.18-1.08.16-1.18.64-.6,1.32.65.77,1.31,1.59,2.26,2.05.61.3.96.82,1.19,1.42.68,1.76,1.78,3.31,3.16,4.5,1.59,1.38,3.72,2.05,4.62,4.33.31.78,1.57,1.4,2.98.95Z"/><path class="cls-1" d="m55.15,15.51c.02-.66-.51-.75-.94-1.07-1.32-1.01-2.86-.53-4.25-.9-1.67-.44-3.22.2-4.94.13.24.54.53.78.93.83,1.73.22,2.28,1.7,3.11,2.88.38.54.26.8-.43.66h0c.44.66.28,1.32-.01,1.98.86-.35,1.05-1.59,2.13-1.62,1.39-.03,2.51-.82,3.75-1.26.79-.28.63-1,.65-1.62Z"/><path class="cls-1" d="m46.02,15.67h0l1.81,1.37c-.31-.84-.78-1.48-1.81-1.37Z"/></g></svg>