<?xml version="1.0" encoding="UTF-8"?><svg id="Layer_2" xmlns="http://www.w3.org/2000/svg" viewBox="0 0 62.38 62.05"><defs><style>.cls-1{fill:#020202;}.cls-1,.cls-2{stroke-width:0px;}.cls-2{fill:#fff;}</style></defs><g id="_20"><path id="bg" class="cls-2" d="m28.23.09C14.34,1.01-1.33,13.55.09,33.5c1.1,15.45,14.37,28.48,30.46,28.52,17.93.65,33.23-14.77,31.73-33.32C61.06,13.59,48.68-1.27,28.23.09Z"/><path id="num" class="cls-1" d="m42.17,15.84c-3,.02-5.4,1.35-6.95,4.09-1.28,2.28-1.9,4.71-2.2,7.27-.54,4.65-.75,9.27,1,13.74.78,1.99,1.64,4.04,3.65,5.09,4.59,2.41,8.92.89,11.3-3.75,1.84-3.6,2.08-7.47,2.24-11.21-.04-4.1-.3-7.99-2.47-11.44-1.51-2.41-3.75-3.82-6.57-3.8Zm2.74,21.21c-.23,1.41-.82,2.65-1.5,3.85-.94,1.64-2.76,1.58-3.7-.1-.86-1.54-1.04-3.28-1.15-4.98-.24-3.71,0-7.42.54-11.1.12-.84.42-1.61.8-2.36.48-.93,1.24-1.59,2.28-1.59,1.13,0,1.83.82,2.27,1.8,1.04,2.33.93,4.8.85,7.47.02,2.21,0,4.62-.38,7.02Z"/><path id="num-2" class="cls-1" d="m29.35,40.28c-1.95.01-3.9.11-5.85.14-.38,0-.91.29-1.1-.24-.16-.45.29-.75.57-1.04.94-.97,1.96-1.87,2.82-2.9,2.93-3.54,5.09-7.43,5.09-12.2,0-4.01-2.3-7.34-5.99-8.23-4.38-1.07-7.91.34-11.01,3.68-.61.66-.53,1.43.17,2.08.44.41.91.81,1.28,1.27.85,1.07,1.32,1.13,2.31.16.56-.55,1.09-1.12,1.77-1.55,1.16-.74,2.44-1.24,3.66-.59,1.43.76,2.13,2.14,2.02,3.84-.17,2.55-1.23,4.78-2.72,6.75-2.44,3.23-5.36,6.06-8.27,8.86-1.15,1.1-1.54,2.34-1.46,3.87.06.97.36,1.45,1.39,1.43,2.79-.03,5.58-.01,8.36-.01,0,.14,0,.29,0,.43,2.42,0,4.83,0,7.25,0,1.85,0,1.96-.09,1.98-1.99,0-.51,0-1.02,0-1.54-.04-1.95-.31-2.24-2.28-2.23Z"/></g></svg>