<?xml version="1.0" encoding="UTF-8"?><svg id="Layer_2" xmlns="http://www.w3.org/2000/svg" viewBox="0 0 62.7 51.23"><defs><style>.cls-1{fill:#020202;}.cls-1,.cls-2{stroke-width:0px;}.cls-2{fill:#fff;}</style></defs><g id="_17"><path id="bg" class="cls-2" d="m11.38,44.04c7.8,6.27,16.71,8.44,26.54,6.49,8.2-1.62,14.64-6.16,19.3-12.92,3.6-5.22,5.74-11.14,5.46-16.65.18-5.51-.83-9.77-2.41-13.91-1.29-3.39-4.02-5.17-7.48-5.33-6.73-.3-13.45-.82-20.19-.84-3.58,0-7.15-.16-10.73-.33C19.13.44,16.4.07,13.66,0c-3.89-.09-6.93,1.48-9.23,4.73-1.62,2.3-2.55,4.88-3.28,7.48-1.61,5.7-1.56,11.49.29,17.14,1.9,5.81,5.15,10.84,9.94,14.69Z"/><path id="num" class="cls-1" d="m12.27,33.67c-.08,1.09.35,1.32,1.36,1.3,4.18-.06,8.36-.04,12.55-.06,2.58-.01,2.65-.09,2.66-2.65q.01-3.02-3.07-2.99c-1.69.02-1.8-.12-1.79-1.81.02-3.81,0-7.61,0-11.42.14,0,.28,0,.42,0,0-3.2,0-6.41,0-9.61,0-.72.14-1.7-.96-1.63-1.64.1-3.33-.19-4.91.64-.94.49-1.95.86-2.96,1.18-2.73.88-2.83,1.02-2.58,3.81.09.98.53,1.44,1.54,1.29.6-.09,1.2-.1,1.8-.17,1.15-.15,1.71.17,1.61,1.5-.18,2.59-.22,5.19-.23,7.79,0,2.09.12,4.18.14,6.27.03,2.3.04,2.3-2.32,2.23-.7-.02-1.4,0-2.09-.06-1.05-.1-1.29.47-1.26,1.35.04,1.02.15,2.05.07,3.06Z"/><path id="num-2" class="cls-1" d="m31.23,10.5c2.97-.14,5.95-.18,8.92-.24.35,0,.8-.14,1,.28.18.36-.16.6-.36.83-2.43,2.8-3.77,6.15-4.76,9.65-1.13,3.96-1.26,8.06-1.45,12.14-.09,1.87,0,1.92,1.93,1.88.65-.01,1.3-.02,1.95-.04,2.04-.04,2.38-.38,2.39-2.48.02-3.21.29-6.41.76-9.57.68-4.56,3.06-8.41,5.51-12.21.88-1.36,1.82-2.64,1.64-4.44-.09-.96-.38-1.33-1.32-1.32-2.65.03-5.3,0-7.95,0,0,0,0,.01,0,.02-2.65,0-5.3-.01-7.95,0-1.13,0-2.04.24-1.77,1.77.13.71,0,1.48-.07,2.22-.12,1.17.37,1.55,1.53,1.5Z"/></g></svg>