<?xml version="1.0" encoding="UTF-8"?><svg id="Layer_2" xmlns="http://www.w3.org/2000/svg" viewBox="0 0 61.52 61.54"><defs><style>.cls-1{fill:#020202;}.cls-1,.cls-2{stroke-width:0px;}.cls-2{fill:#fff;}</style></defs><g id="_31"><path id="bg" class="cls-2" d="m61.51,29.57C61.1,14.83,48.91.4,31.12,0,14.74-.36,1.13,12.01.06,28.62c-1.14,17.77,13.15,32.75,30.02,32.9,15.94.6,31.98-12.31,31.43-31.95Z"/><path id="num" class="cls-1" d="m26.92,31.66c-.28.02-.62.08-.77-.26-.15-.33.1-.53.31-.74,2.07-2,2.66-4.36,2.02-7.19-.63-2.8-3-5.39-5.86-5.83-4.94-.77-8.62,1.29-11.3,5.11-.46.66-.5,1.33.31,1.88.72.49,1.41,1.06,2.03,1.68.78.79,1.31.82,1.88-.23.67-1.23,1.72-2.14,2.95-2.76.94-.47,1.95-.68,2.9.03,1.57,1.17,2.41,4.45-.02,6.02-.91.59-1.87,1.02-2.92,1.3-.39.1-1.05.14-1.04.66.03,1.36.24,2.75.92,3.92.5.85,1.43.1,2.17.11.54,0,1.07,0,1.61,0,1.69-.17,3.21.01,3.99,1.87.66,1.58.56,3.42-.49,4.36-1.43,1.29-3.17,1.47-4.93.88-1.01-.34-1.94-.9-2.89-1.4-.31-.16-.57-.39-.93-.2-.39.2-1.92,4.35-1.69,4.69.18.27.47.49.74.68,2.56,1.77,5.35,2.43,8.45,1.97,6.82-1.01,10.34-7.51,6.93-13.44-.93-1.61-2.11-3.23-4.4-3.09Z"/><path id="num-2" class="cls-1" d="m51.33,38.9c-.32-2.62-.98-3.05-3.51-2.25-1.83.58-1.85.57-2.47-1.19-.06-.18-.18-.35-.25-.53-1.02-2.33-1.07-4.88-1.8-7.03.23-.76.01-1.2-.09-1.68-.28-1.29-.96-2.46-1.01-3.84-.11-2.74-.81-5.37-1.66-7.96-.16-.47-.34-1.16-.85-1.03-1.48.38-3.17.26-4.37,1.44-1.05,1.04-2.17,1.98-3.51,2.59-1.04.48-1.27,1.2-1.01,2.24.79,3.13.42,3.05,3.26,2.08,1.18-.4,2.09-.38,2.13,1.24.01.62.18,1.24.32,1.85.98,4.25,1.96,8.5,2.98,12.74.23.97-.06,1.44-1.02,1.4-.95-.05-1.83.25-2.73.4-.93.15-1.4.53-1,1.59.32.86.59,1.77.67,2.67.1,1.16.7,1.35,1.67,1.18,4.51-.79,8.96-1.89,13.4-2.97.92-.22,1.1-.87,1.04-1.66-.03-.43-.15-.86-.2-1.3Z"/></g></svg>