<?xml version="1.0" encoding="UTF-8"?><svg id="Layer_2" xmlns="http://www.w3.org/2000/svg" viewBox="0 0 62.4 62.26"><defs><style>.cls-1{fill:#020202;}.cls-1,.cls-2{stroke-width:0px;}.cls-2{fill:#fff;}</style></defs><g id="_19"><path id="bg" class="cls-2" d="m57.58,14.57c-2.15-3.15-4.42-6.25-7.8-8.36-2.88-1.8-5.61-3.75-8.95-4.69C35.88.14,30.94-.48,25.83.42c-7.34,1.29-13.29,4.98-18.33,10.32-.54.67-1.08,1.35-1.62,2.02,0,0,0,0,0,0-1.42,2.55-2.78,5.11-3.87,7.83-3.09,7.67-2.35,15.23.4,22.75,1.77,4.84,5.14,8.48,9.08,11.73,5.55,4.58,11.76,7.12,18.99,7.18,2.61.02,5.17-.15,7.74-.71,4.67-1.02,8.98-2.89,12.59-5.94,5.74-4.86,9.67-10.87,11-18.49.85-4.86.92-9.56-.63-14.27-.95-2.87-1.91-5.8-3.59-8.28Z"/><path id="num" class="cls-1" d="m33.98,18.7c-2.49,2.36-3.39,5.33-3.27,8.68,0,.56-.02,1.12,0,1.67.22,4.33,3.42,7.19,7.73,6.92,1.22-.07,2.17-.75,3.19-1.3.33-.18.71-.36,1.03-.11.28.22.15.61.11.92-.15,1.21-.66,2.3-1.2,3.38-1.85,3.72-5.07,4.2-7.84,1.14-.29-.32-.57-.62-1.06-.5-.5.13-2.75,2.84-2.77,3.35-.02.28,0,.52.21.77,3.81,4.43,10.05,5.01,13.78,1.18,2.93-3.01,4.24-6.79,4.84-10.86.67-4.53.54-8.91-1.82-13.09-2.55-4.52-9.17-5.74-12.92-2.17Zm9.54,9.72c-.18,1.52-2.75,3.26-4.71,3.23-1.28-.02-2.56-1.41-2.77-3.04-.06-.5,0-1.02,0-1.61-.2-1.6.46-3.02,1.32-4.37,1.06-1.67,2.89-1.85,4.18-.37,1.53,1.75,2.27,3.81,1.99,6.16Z"/><path id="num-2" class="cls-1" d="m26.96,40.28c-.74.04-1.49.08-2.23.05-.99-.05-1.48-.43-1.29-1.6,1.15-6.87,1.6-13.82,2.25-20.74.24-2.56.79-2.52-2.39-2.59-2.83-.02-5.3,1.53-8.04,1.92-.44.06-.59.52-.67.97-.52,3.06-.49,3.11,2.6,3.12.14,0,.28.02.42,0,1.37-.19,1.89.42,1.69,1.75-.06.37,0,.75-.07,1.11-.75,4.02-1.11,8.12-1.28,12.17-.16,3.84-1.02,3.13-3.52,2.68-2.91-.52-3.13-.36-3.23,2.61-.08,2.32-.04,2.34,2.31,2.58,4.02.41,8.04.84,12.05,1.29,2.08.23,2.3.06,2.39-2.09.03-.65.12-1.29.18-1.94.09-.87-.24-1.33-1.18-1.28Z"/></g></svg>