<?xml version="1.0" encoding="UTF-8"?><svg id="Layer_2" xmlns="http://www.w3.org/2000/svg" viewBox="0 0 61.71 53.91"><defs><style>.cls-1{fill:#020202;}.cls-1,.cls-2,.cls-3{stroke-width:0px;}.cls-2{fill:#e0dee0;}.cls-3{fill:#fffdff;}</style></defs><g id="_30"><path id="bg" class="cls-3" d="m7.09,2.21l1.54-1.72h0c.75-.81,1.66-.4,2.47-.22,3.76.81,7.58,1.2,11.37,1.78,4.03.63,8.02,1.54,12.07,2.04,3.57.45,7.06,1.37,10.66,1.62,2.32.17,4.64.55,6.93.99,4.15.8,6.39,3.75,7.72,7.44,3.37,9.32,2.09,18.22-3.42,26.26-6.9,10.06-16.74,14.47-28.91,13.33-6.4-.6-11.9-3.32-16.79-7.53C5.33,41.54,2.12,35.59.62,28.82-.5,23.8-.03,18.63,1.4,13.61c1.19-4.16,2.92-8.04,5.68-11.4"/><path class="cls-2" d="m20.49,8.64c-.64.34-1.17.17-1.5-.4-.33-.56-.86-.75-1.35-1.05-1.23-.76-2.42-1.6-3.67-2.35-2-1.2-2.99-3.61-5.35-4.35-.83.29-1.19,1-1.54,1.72.38.71,1.08.8,1.76.91.44.07,1.17.27,1.06.54-.49,1.23.71,1.96.75,2.98.06,1.41.61,2.27,2.09,2.66,1.57.41,1.79,1.18,1.14,2.67-.15.35-.2.73-.3,1.1.15-.15.31-.29.46-.43,1.68-1.54,3.6-2.59,5.92-2.98.76-.13,1.51-.06,2.26-.1.06,0,.12,0,.18,0-.29-1.05-.89-1.46-1.92-.91Z"/><path id="num" class="cls-1" d="m31.47,24.97c-1.1-1.05-2.43-1.31-3.88-1.58-.02,0-.04,0-.06-.01.01-.02.02-.03.04-.05,2.66-3.64,2.28-4.85,1.87-6.76-.94-4.35-3.39-6.38-7.01-7.02-.06,0-.12,0-.18,0-.75.04-1.5-.03-2.26.1-2.32.39-4.24,1.44-5.92,2.98-.15.14-.31.28-.46.43-.61.88-1.26,1.74-1.81,2.65-.36.6-.53,1.3.15,1.85.87.71,1.75,1.39,2.63,2.08.73.57,1.27.53,1.72-.39.56-1.15,1.39-2.13,2.34-2.98,1.23-1.11,2.94-1.04,3.9.12,1.42,1.71,1.21,3.97-.51,5.38-.84.69-1.8,1.15-2.84,1.46-.66.2-1,.59-.81,1.31.22.79.45,1.58.68,2.37.35,1.19.91,1.81,2.33,1.29.89-.32,1.92-.22,2.89-.34,2.36-.3,3.61,1.42,3.96,3.74.29,1.94-1.76,3.58-4.06,3.6-1.68.01-3.16-.56-4.55-1.37-.87-.51-1.25-.23-1.5.58-.28.93-.48,1.89-.82,2.81-.39,1.06.03,1.67.95,2.11,3.77,1.8,7.54,2.18,11.38.15,6.67-3.52,5.67-10.87,1.86-14.51Z"/><path id="num-2" class="cls-1" d="m50.72,30.91c.9-1.85,1.02-3.85.85-6.35.07-5.04-2.25-9.78-4.95-14.39-.38-.64-.96-.8-1.64-.66-1.33.29-2.65.65-3.99.89-1.17.21-.96.59-.43,1.39,3.06,4.58,4.61,9.71,5.16,15.15.12,1.21-.17,2.6-1.41,2.93-1.23.33-2.03-.87-2.75-1.8-.03-.04-.03-.09-.05-.14-2.1-4.51-3.68-9.2-4.83-14.05-.21-.88.72-2-.45-2.59-.89-.45-1.93-.06-2.89-.18-.24-.03-.49.03-.73.03-2.04-.01-2.13.13-1.91,2.08.27,2.43.76,4.81,1.37,7.16,1.12,4.32,2.79,8.41,5.58,11.94,3.82,4.82,10.4,4.08,13.06-1.42Z"/></g></svg>