<?xml version="1.0" encoding="UTF-8"?><svg id="Layer_2" xmlns="http://www.w3.org/2000/svg" viewBox="0 0 62.68 62.56"><defs><style>.cls-1,.cls-2{stroke-width:0px;}.cls-2{fill:#fff;}</style></defs><g id="_7"><path id="bg" class="cls-2" d="m62.65,31.17c-.07,6.82-1.82,12.59-5.51,17.8-1.69,2.39-3.62,4.58-5.81,6.42-2.01,1.69-4.25,3.19-6.7,4.29-1.82.82-3.68,1.39-5.59,1.94-2.77.8-5.54,1.01-8.32.93-4.7-.13-9.11-1.44-13.34-3.57-3.5-1.76-6.43-4.21-9.05-6.98-2.73-2.89-4.89-6.23-6.34-10.01C.26,37.51-.39,32.89.23,28.19c.43-3.24,1.38-6.4,2.83-9.4,3.47-7.17,8.76-12.55,15.9-15.97,6.92-3.32,14.11-3.66,21.41-1.24,5.89,1.96,10.64,5.54,14.66,10.22,3.43,3.99,5.58,8.61,6.82,13.63.49,2,.98,4.1.81,5.74Z"/><g id="num"><path class="cls-1" d="m39.84,16.82c-.32-1.32-.55-1.7-1.91-1.57-2.14.2-4.19,1.06-6.38.86-.07,0-.14.05-.21.06-2.22.32-4.44.64-6.66.95-1.23.17-2.47.29-3.69.47-.75.11-1.21.41-.98,1.37.24.97.39,1.97.18,3.01-.15.72.12,1.27,1.06,1.08,1.14-.24,2.31-.28,3.46-.48,2.29-.39,4.62-.57,6.92-.89,1.06-.15.88.36.56.94-.56,1.02-1.17,2-1.47,3.14-.5,1.12-1.04,2.22-1.31,3.43-.42,1.07-.83,2.14-.75,3.32-.03.14-.05.28-.06.42-.12.86-.24,1.71-.35,2.57h0c-.38,3.12-.14,6.24.01,9.35.03.6.02,1.55,1.02,1.55,1.31,0,2.63-.1,3.93-.24,1.5-.16,1.63-.43,1.62-1.94-.04-4.18-.7-8.34.16-12.56.75-3.66,2.19-7,3.82-10.28.73-1.47,1.46-2.79,1.03-4.55Z"/></g></g></svg>