<?xml version="1.0" encoding="UTF-8"?><svg id="Layer_2" xmlns="http://www.w3.org/2000/svg" viewBox="0 0 61.58 59.16"><defs><style>.cls-1{fill:#020202;}.cls-1,.cls-2{stroke-width:0px;}.cls-2{fill:#fff;}</style></defs><g id="_33"><path id="bg" class="cls-2" d="m48.99,6.02c-4.07-3.09-8.68-5.04-13.72-5.72-6.22-.84-12.27.04-17.91,2.88-6.04,3.04-10.75,7.49-13.88,13.56C1.17,21.2,0,25.9,0,30.91c-.06,3.49.44,6.9,1.57,10.19,1.86,5.43,5.04,9.98,9.43,13.65,2.36,1.98,4.85,3.76,8.01,4.32,1.72.3,3.39-.3,5.07-.26,3.71.09,7.41-.27,11.12-.32,3.21-.04,6.47-.27,9.51-1.35,5.18-1.84,9.16-5.24,12.01-9.97,5.21-8.64,6.37-17.72,2.81-27.23-2.12-5.66-5.73-10.28-10.53-13.92Z"/><path id="num" class="cls-1" d="m43.62,28.05c-.34,0-.76-.06-.85-.4-.05-.19.21-.54.42-.71,2.26-1.8,2.69-4.25,2.26-6.86-.36-2.16-1.33-4.3-3.35-5.25-5.16-2.44-10.73-.8-13.69,4.15-.31.51-.42.96.1,1.42.73.65,1.41,1.35,2.13,2.01.66.6,1.22.74,1.7-.26.41-.84,1.12-1.48,1.82-2.09,1.91-1.66,4.38-1.08,5.26,1.2.82,2.13-.47,4.31-3.19,5.39q-2.11.84-1.64,3.22c.07.33.05.69.16,1,.22.62.48,1.05,1.37.89,1.14-.2,2.33-.15,3.5-.14,1.83.03,3.14,1.13,3.52,2.89.38,1.74-.4,3.32-2,4.14-1.89.96-3.69.61-5.44-.35-.68-.37-1.27-.9-2.14-1.11-.34.97-.55,1.99-1.03,2.87-.85,1.56.01,2.29,1.17,3.03,2.07,1.33,4.33,1.64,6.73,1.46,4.73-.36,9.53-3.73,8.92-9.95-.3-3.07-2.73-6.53-5.75-6.56Z"/><path id="num-2" class="cls-1" d="m25.53,31.89c-.32-.08-.76-.04-.83-.44-.07-.38.35-.52.57-.77,1.28-1.45,2.12-3.02,2.02-5.11-.09-1.83-1.11-3.13-1.78-4.66-.94-2.14-2.71-2.8-4.58-3.14-4.09-.75-8.43,1.55-10.46,5.22-.28.5-.36.86.11,1.27.8.71,1.57,1.46,2.36,2.19.54.5,1.08.57,1.39-.19.37-.91,1.16-1.43,1.78-2.09,1.12-1.18,2.97-1.52,4.02-.91,1.07.62,1.82,2.39,1.56,3.85-.25,1.42-1.24,2.25-2.41,2.95-.92.55-2.33.35-2.87,1.25-.56.93.52,2,.43,3.09-.09,1.06.39,1.45,1.41,1.17.76-.21,1.55-.2,2.33-.2.15,0,.29.01.44,0,2.69-.28,4.16,1.78,4.14,3.84-.02,2.39-1.85,3.94-4.4,3.8-1.4-.08-2.7-.52-3.76-1.43-1.03-.89-1.5-.5-1.87.59-.26.78-.56,1.57-.94,2.3-.37.71-.2,1.2.4,1.62,3.59,2.57,7.41,3.12,11.44,1.16,3.61-1.76,5.1-4.71,4.84-8.7-.21-3.24-2.18-5.83-5.35-6.65Z"/></g></svg>