<?xml version="1.0" encoding="UTF-8"?><svg id="Layer_2" xmlns="http://www.w3.org/2000/svg" viewBox="0 0 61.72 61.91"><defs><style>.cls-1{fill:#020202;}.cls-1,.cls-2{stroke-width:0px;}.cls-2{fill:#fff;}</style></defs><g id="_34"><path id="bg" class="cls-2" d="m29.79.01C13.02.44.21,14.17,0,30.6c-.14,17.51,14.09,31.7,31.4,31.29,16.92-.4,30.94-14.94,30.29-32.82C61.1,12.84,47.36-.44,29.79.01Z"/><path id="num" class="cls-1" d="m48.26,33.25c1.78-.19,2.01-1.09,1.52-2.62-.17-.53-.29-1.12-.45-1.68-.29-1.05-1.08-1.54-1.99-1.04-1.66.91-1.84-.15-2.12-1.31-1.14-4.59-2.67-9.05-4.25-13.51-.22-.62-.5-1-1.12-.83-1.68.46-3.42.73-5.05,1.4-.71.29-.86.88-1,1.5-1.36,5.98-2.65,11.97-3.51,18.04-.13.91-.33,1.26-1.09.55-.97-.9-2.12-1.36-3.37-1.65-.85-.2-.89-.59-.34-1.21,1.8-2.03,1.92-4.37,1.23-6.87-.72-2.61-3.57-5.55-5.77-5.64-3.57-.15-6.83.55-9.39,3.43-2.65,2.97-2.6,3.77.77,5.94.75.48,1.19.57,1.67-.39.71-1.41,1.8-2.55,3.23-3.29,1.24-.65,2.68-.32,3.28.9,1.11,2.25,1.16,4.14-1.33,5.83-.64.43-1.39.71-2.1,1.01-.42.18-.91.33-.82.87.22,1.2.45,2.4.96,3.52.28.62.76.5,1.24.35,1.12-.36,2.27-.51,3.45-.48,2.14.04,3.67,1.86,3.69,4.4.01,1.91-1.39,3.12-3.57,3.22-1.74.08-3.27-.53-4.75-1.28-.82-.42-1.14-.21-1.36.58-.3,1.07-.64,2.14-.96,3.21-.15.53-.03.87.52,1.17,1.95,1.08,3.93,1.97,6.18,1.73.36,0,.65.02.94,0,5.24-.33,10.44-4.05,9.12-10.16-.17-.81.34-.84.9-.96,2.57-.57,5.07-1.37,7.53-2.3,1.25-.47,1.99-.62,2.04,1.09.02.75.45,1.48.65,2.24.94,3.61.16,4.01,5.04,2.43,1.23-.4,1.34-1.06,1.02-2.1-.48-1.58-.85-3.21-1.4-4.76-.32-.89.08-1.27.76-1.34Zm-9.11-2.6c-.85.34-1.78.48-2.66.76-.78.25-.99.02-.78-.75.57-2.12.99-4.26,1.32-6.43.19-1.23-.24-2.55.67-4.06.3,1.17.65,1.98.71,2.81.14,2.02.74,3.92,1.54,5.74.47,1.07.06,1.6-.8,1.93Z"/></g></svg>