<?xml version="1.0" encoding="UTF-8"?><svg id="Layer_2" xmlns="http://www.w3.org/2000/svg" viewBox="0 0 62.79 61.32"><defs><style>.cls-1{fill:#020202;}.cls-1,.cls-2{stroke-width:0px;}.cls-2{fill:#fff;}</style></defs><g id="_8"><path id="bg" class="cls-2" d="m59.89,17.04c-3.46-7.61-9.35-12.78-16.97-16.04-2.12-.91-4.29-1.76-6.37.11-1.35,1.21-3.01,1.78-4.67,2.39-3.78,1.39-7.49,2.76-11.65,2.79-3.88.04-7.39,1.96-11,3.25-1.45.52-2.5,1.56-3.38,2.8C1.98,17.76-.03,23.77,0,31.48c.32,6.64,2.75,13.55,7.87,19.31,5.08,5.72,11.56,9.07,19.14,10.18,5.49.81,10.89.18,16.02-1.8,7.09-2.73,12.41-7.62,16.08-14.3,1.64-2.99,2.76-6.18,3.3-9.48.44-2.71.46-5.5.22-8.31-.31-3.56-1.3-6.87-2.74-10.04Z"/><path id="num" class="cls-1" d="m36.32,27.22c-1.85.25-1.93.06-1.71-1.74.06-.51.06-1.02.1-1.79.46-1.03-.7-1.73-1.05-2.73-1.03-2.9-3.5-4.73-6.55-4.65-3.74.09-6.53,1.99-8.7,4.82-1.76,2.31-2.81,5.01-1.25,7.78,1.47,2.62,3.2,5.2,6.94,4.69,1.16-.16,1.51.57,1.14,1.58-.4,1.11-.41,2.27-.62,3.39-.72,3.83,4.19,7.91,7.36,7.66,5.44-.43,9.39-3.02,11.87-7.91,3.02-5.96-3.07-11.7-7.52-11.11Zm-9.79,1.52c-1.79.37-3.16-.85-4.23-2.46-.99-1.49.46-4,2.57-4.59,1.84-.52,2.69-.22,3.77,1.39.64.96,1.24,1.94,1.34,3.15.15,1.79-.07,2.13-1.82,2.38-.41.06-.83.07-1.63.13Zm8.65,11.89c-1.59.59-2.99.13-4.23-.98-1.57-1.4-1.58-3.27-1.58-5.14,0-.77.71-.96,1.27-1.1,1.12-.28,2.26-.55,3.07-.51,1.05.02,1.73-.11,2.4.27,1.43.81,2.83,1.82,2.65,3.58-.2,2.01-1.75,3.2-3.58,3.88Z"/></g></svg>