<?xml version="1.0" encoding="UTF-8"?><svg id="Layer_2" xmlns="http://www.w3.org/2000/svg" viewBox="0 0 61.63 54.94"><defs><style>.cls-1{fill:#020202;}.cls-1,.cls-2{stroke-width:0px;}.cls-2{fill:#fff;}</style></defs><g id="_24"><path id="bg" class="cls-2" d="m59.24,35.8c2.15-5.08,2.78-10.33,2.17-15.75-.45-4.04-1.74-7.86-3.59-11.48-1.44-2.82-3.6-4.74-6.84-5.07-2.91-.3-5.85-.3-8.74-.71-6.51-.93-13-1.99-19.55-2.63C16.16-.49,10.33.78,5.99,6.18,2.76,10.2,1,14.78.32,19.89c-.78,5.85-.19,11.5,2.36,16.81,5.55,11.53,14.79,17.6,27.55,18.25,3.69-.01,7.28-.45,10.66-1.74,8.5-3.25,14.75-8.92,18.35-17.4Z"/><path id="num" class="cls-1" d="m48.83,21.17c-.34-1.23-1.04-1.35-2.1-.82-1.61.8-1.58.75-2.12-.92-1.35-4.21-2.81-8.38-4.53-12.47-.49-1.17-1.22-1.43-2.29-1.11-1.49.45-2.95.99-4.45,1.43-.76.23-1.12.75-1.25,1.46-1.19,6.16-1.91,12.38-2.51,18.32-.12,1.68.64,2.81,1.04,4.05.31.95.8,1.17,1.73.8,2.62-1.05,5.35-1.82,7.88-3.12.99-.51,1.6-.44,1.86.84.25,1.23.72,2.42,1.13,3.62.77,2.3.78,2.3,3.04,1.57.6-.19,1.18-.48,1.8-.6,1.54-.3,1.51-1.24,1.07-2.39-.57-1.5-1.15-2.99-1.69-4.5-.2-.55-.38-1.08.46-1.4,2.32-.9,2.31-.93,1.47-3.25-.18-.5-.39-1-.53-1.52Zm-10.44,2.76c-.7.13-1.36.52-2.03.8-.39.17-.82.68-1.17.4-.44-.34-.29-1.02-.12-1.49.45-1.2.49-2.47.75-3.7.29-1.38.3-2.8.23-4.21-.02-.45-.14-.94.41-1.59.24.74.43,1.25.57,1.78.54,2.07,1.16,4.12,2.14,6.03.5.97.64,1.72-.78,1.98Z"/><path id="num-2" class="cls-1" d="m32.49,35.05c-.27-.92-.64-1.12-1.56-.8-2.31.8-4.53,1.78-6.73,2.82-.32.15-.61.66-1.01.3-.4-.36.03-.73.17-1.05,1.63-3.78,2.8-7.67,2.85-11.82,0-.44.02-.88,0-1.32-.21-3.18-1.19-6.04-3.7-8.15-2.87-2.41-7.24-2.11-10.76.26-2.13,1.43-3.48,3.51-4.15,6-.19.69-.15,1.29.59,1.59.91.36,1.75.86,2.6,1.34.72.4,1.26.28,1.48-.69.27-1.21.94-2.23,1.81-3.13,1.72-1.79,4.12-1.48,5.33.67,1.6,2.85,1.07,5.8.3,8.67-.96,3.57-2.41,6.98-4.01,10.32-.81,1.7-.75,3.26.28,4.85.45.69.8.91,1.63.58,5.03-1.98,10.06-3.93,15.14-5.8,1.16-.43,1.25-1,.84-1.95-.38-.89-.84-1.77-1.11-2.69Z"/></g></svg>