<?xml version="1.0" encoding="UTF-8"?><svg id="Layer_2" xmlns="http://www.w3.org/2000/svg" viewBox="0 0 61.96 61.8"><defs><style>.cls-1{fill:#020202;}.cls-1,.cls-2{stroke-width:0px;}.cls-2{fill:#fff;}</style></defs><g id="_28"><path id="bg" class="cls-2" d="m31.94.02C16-.64.96,12.09.04,29.24c-.89,16.62,12.39,31.56,29.06,32.51,16.83.96,32.84-11.9,32.85-30.06C62.48,16.16,48.96.73,31.94.02Z"/><path id="num" class="cls-1" d="m47.67,31.58c2.97-2.05,3.72-4.94,3.21-8.35-.87-5.85-7.34-7.74-11.8-5.85-5.03,2.13-6.01,9.57-2.63,13.07.69.72.53.97-.3,1.39-2.94,1.46-4.42,3.85-4.31,7.52-.21,1.51.57,3,1.54,4.53,2.72,4.35,10.48,5.34,14.25,1.86,3.17-2.93,4.1-9.31.14-12.64-.52-.44-.92-.97-.1-1.53Zm-6.24,11.39c-1.92.17-3.89-1.12-4.22-2.86-.4-2.09.11-3.96,1.58-5.53.3-.32.6-.62,1.12-.55,1.88.28,4.67,3.59,4.61,5.48-.06,1.9-1.32,3.31-3.09,3.46Zm2.97-13.8c-.27.38-.56.63-1.09.49-2.23-.57-4.08-4.26-3.12-6.27.77-1.61,1.9-2.23,3.37-1.84,1.2.31,2.42,2,2.39,3.44.03,1.5-.62,2.89-1.55,4.17Z"/><path id="num-2" class="cls-1" d="m28.61,16.03c-4.45-2.86-9.56-2.11-13.37,1.59-.56.54-.73,1.11-.14,1.78.38.43.67.95,1.02,1.42,1.24,1.64,1.24,1.63,2.91.45.52-.36,1.07-.68,1.61-1,1.28-.75,2.7-.89,3.89-.1,1.33.88,1.59,2.38,1.35,3.93-.38,2.4-1.54,4.4-3.16,6.16-2.43,2.63-5.22,4.85-8.01,7.07-1.57,1.24-3.39,2.26-3.18,4.81.1,1.21.48,1.63,1.59,1.72,1.51.12,3.01.31,4.51.49,3.68.44,7.36.9,11.04,1.35.9.11,1.52.06,1.61-1.19.08-1.01.06-2.04.24-3.05.18-1.01-.29-1.42-1.27-1.49-2.24-.17-4.45-.61-6.71-.52-.32.01-.84.27-.95-.34-.08-.41.24-.61.53-.78,1.93-1.13,3.43-2.75,4.9-4.38,2.77-3.08,4.8-6.53,4.63-11,.23-2.77-.65-5.36-3.06-6.91Z"/></g></svg>