<?xml version="1.0" encoding="UTF-8"?>
<svg id="Layer_2" data-name="Layer 2" xmlns="http://www.w3.org/2000/svg" xmlns:xlink="http://www.w3.org/1999/xlink" viewBox="0 0 62.54 56.7">
  <defs>
    <style>
      .cls-1 {
        fill: #fff;
      }

      .cls-2 {
        fill: #d8d7d8;
      }

      .cls-3 {
        filter: url(#drop-shadow-1);
      }

      .cls-4 {
        fill: #030203;
      }

      .cls-5 {
        fill: #ceccce;
      }
    </style>
    <filter id="drop-shadow-1" filterUnits="userSpaceOnUse">
      <feOffset dx="1.42" dy="1.42"/>
      <feGaussianBlur result="blur" stdDeviation="5"/>
      <feFlood flood-color="#231916" flood-opacity=".5"/>
      <feComposite in2="blur" operator="in"/>
      <feComposite in="SourceGraphic"/>
    </filter>
  </defs>
  <g id="bg">
    <g id="_39" data-name="39">
      <g class="cls-3">
        <path class="cls-1" d="M55.48,7.75c-4.32-.85-8.66-1.6-12.95-2.55-6.32-1.4-12.74-2.54-18.86-4.57C20.82-.31,18.37,.02,15.71,.26c-2.54,.24-4.79,1.14-6.64,2.93C3.09,9,.26,16.17,.01,24.39c-.49,16.44,11.1,29.94,27.65,32.06,18.45,2.37,34.68-12.41,34.88-33.81,.08-3-1.47-8.17-4.38-12.97-.64-1.05-1.51-1.69-2.68-1.92ZM15.16,1.76c2.51-.19,5.06-.83,6.47,2.21,.37,.8,1.16,1.31,2.01,1.58,1.83,.58,3.44,1.58,5.48,2.61-1.34,.35-2.33,.37-3.27,.8-.97,.44-1.94-.15-2.35-.98-.87-1.77-2.08-2.67-4.12-2.84-1.95-.16-3.68-1.04-4.23-3.38Zm23.09,38.19c-.24,.78-.67,.87-1.34,.81-5.26-.45-10.52-.89-15.78-1.33-1.09-.09-1.58-.63-1.27-1.74,.09-.32,.2-.64,.25-.97q.44-3.16,3.8-2.61c2.5,.41,2.43,.4,2.64-2.19,.36-4.54,.76-9.08,1.25-13.6,.15-1.4,.05-2.25-1.65-1.88-.13,.03-.27,0-.4,0-3.29-.05-3.7-.63-2.9-3.92,.16-.64,.5-.86,1.11-.92,1.75-.18,3.38-.8,4.97-1.5,1.58-.68,3.05-.71,4.43,.42h0c1.04,.08,1.79-.27,2.18-1.45-.47,3.87,.6,7.82-1.26,11.48-.42,4.32-.82,8.65-1.27,12.97-.12,1.16,.11,1.83,1.45,1.52,.13-.03,.27,0,.4,0,3.83,.04,4.56,1.14,3.38,4.93ZM56.4,12.68c-.77-.28-1.3-.32-1.76,.63-1.06,2.21-3.38,3.37-5.26,4.33-1.38,.71-3.4,1.45-5.29,1.37-.52-.02-.89,.09-1.3,.35-.27,.17-.73,.42-.9,.31-1.61-1.02-3.99-.49-5.13-2.18-1.03-1.52,.03-3.31,.15-4.97,.02-.3,.47-.69,.39-.87-1.28-2.54,.81-1.82,1.91-1.98,2.07-.32,4.09-.15,6.07,.62,.59,.23,1.42,.34,1.97,.11,2.56-1.09,5.04-.37,7.56,.06,1.62,.28,2.33,1.56,3.24,2.76-.55-.18-1.11-.34-1.65-.54Z"/>
        <path class="cls-4" d="M34.87,35.02c-.13,0-.27-.03-.4,0-1.34,.3-1.57-.37-1.45-1.52,.45-4.32,.85-8.65,1.27-12.97,.05-2.64,.43-5.26,.62-7.89,.11-1.56-.35-1.9-1.54-2.14h0c-1.38-1.13-2.85-1.11-4.43-.42-1.59,.69-3.22,1.31-4.97,1.5-.61,.06-.95,.28-1.11,.92-.8,3.29-.39,3.87,2.9,3.92,.13,0,.27,.04,.4,0,1.7-.37,1.8,.48,1.65,1.88-.49,4.53-.9,9.06-1.25,13.6-.2,2.59-.14,2.6-2.64,2.19q-3.36-.54-3.8,2.61c-.05,.33-.16,.65-.25,.97-.3,1.11,.18,1.65,1.27,1.74,5.26,.44,10.52,.88,15.78,1.33,.67,.06,1.1-.04,1.34-.81,1.18-3.78,.44-4.89-3.38-4.93Z"/>
        <path class="cls-2" d="M54.81,10.45c-2.52-.43-5-1.14-7.56-.06-.55,.23-1.38,.12-1.97-.11-1.98-.77-4-.93-6.07-.62-1.1,.17-3.19-.55-1.91,1.98,.09,.18-.36,.57-.39,.87-.12,1.67-1.18,3.45-.15,4.97,1.15,1.69,3.52,1.15,5.13,2.18,.17,.11,.63-.14,.9-.31,.41-.26,.78-.38,1.3-.35,1.89,.08,3.91-.65,5.29-1.37,1.87-.96,4.2-2.13,5.26-4.33,.45-.94,.99-.91,1.76-.63,.54,.2,1.1,.36,1.65,.54-.91-1.2-1.62-2.49-3.24-2.76Z"/>
        <path class="cls-5" d="M23.51,7.98c.41,.83,1.38,1.42,2.35,.98,.94-.43,1.93-.44,3.27-.8-2.04-1.03-3.66-2.04-5.48-2.61-.85-.27-1.64-.79-2.01-1.58-1.42-3.04-3.96-2.4-6.47-2.21,.55,2.34,2.27,3.22,4.23,3.38,2.04,.17,3.25,1.06,4.12,2.84Z"/>
        <path class="cls-2" d="M35.13,12.65c-.23,2.63-.05,5.3-.84,7.88,1.85-3.66,.79-7.61,1.26-11.48-.38,1.18-1.13,1.53-2.18,1.45h0c1.48,0,1.9,.55,1.76,2.15Z"/>
        <path class="cls-2" d="M34.91,12.64c-.18,2.63-.56,5.25-.62,7.89,.78-2.58,.6-5.25,.84-7.88,.14-1.6-.28-2.16-1.76-2.15,1.19,.23,1.65,.58,1.54,2.14Z"/>
      </g>
    </g>
  </g>
</svg>