<?xml version="1.0" encoding="UTF-8"?>
<svg id="Layer_2" data-name="Layer 2" xmlns="http://www.w3.org/2000/svg" xmlns:xlink="http://www.w3.org/1999/xlink" viewBox="0 0 62.38 62.39">
  <defs>
    <style>
      .cls-1 {
        fill: #fff;
      }

      .cls-2 {
        fill: #020202;
      }

      .cls-3 {
        filter: url(#drop-shadow-1);
      }
    </style>
    <filter id="drop-shadow-1" filterUnits="userSpaceOnUse">
      <feOffset dx="1.42" dy="1.42"/>
      <feGaussianBlur result="blur" stdDeviation="5"/>
      <feFlood flood-color="#231916" flood-opacity=".5"/>
      <feComposite in2="blur" operator="in"/>
      <feComposite in="SourceGraphic"/>
    </filter>
  </defs>
  <g id="bg">
    <g id="_39" data-name="39">
      <g class="cls-3">
        <path class="cls-1" d="M30.8,0C13.4,.37-.46,14.89,.01,32.26c.47,17.24,14.5,30.4,31.58,30.12,15.62,.32,32.92-14.74,30.57-34.67C60.49,13.63,48.04-.36,30.8,0Zm-2.39,46.47c-3.57,.16-7.11,.78-10.4,.74-1.64,.1-2.98,.17-4.33,.26-.91,.06-1.4-.27-1.37-1.27,.03-1.07-.01-2.14-.06-3.2-.06-1.19,.43-1.71,1.66-1.56,.92,.11,1.85,.09,2.78,.1,1.12,.02,1.68-.41,1.58-1.66-.41-5-.89-10-.86-15.02,0-.77-.35-1-1.02-.94-1.06,.09-2.13,.17-3.19,.28-.78,.08-1.19-.21-1.36-1.02-.54-2.48-.34-2.89,1.95-3.94,1.14-.52,2.32-.99,3.35-1.69,1.43-.97,3.03-1.05,4.63-1.29,1.28-.19,1.74,.3,1.79,1.56,.17,4.04,.37,8.08,.63,12.11,.22,3.38,.48,6.76,.39,10.15-.03,.97,.59,1.18,1.4,.97,.91-.24,1.83-.33,2.76-.36,.76-.02,1.24,.24,1.27,1.1,.03,.88,.07,1.77,.19,2.64,.19,1.4-.5,1.99-1.79,2.05Zm21.43-6.94c-.49,3.49-4.3,6.32-8.34,6.68-3.35,.3-6.35-.39-8.9-2.73-1.44-1.32-1.53-1.57-.59-3.29q1.52-2.78,4.16-.96c2.16,1.49,4.47,1.67,6.22,.49,1.09-.73,1.68-1.69,1.46-3.06-.24-1.51-.79-2.77-2.37-3.3-1.33-.45-2.71-.77-4.11-.58-1.41,.19-1.82-.39-1.69-1.67,.03-.32-.05-.65-.08-.97q-.11-2.23,2.07-2.63c1.3-.23,2.51-.67,3.48-1.61,1.22-1.19,1.4-3.12,.45-4.46-.93-1.31-2.64-1.68-4.24-.9-1.06,.51-1.97,1.21-2.71,2.14-.6,.76-1.22,.91-1.9,0-.49-.67-1.11-1.25-1.71-1.83-.7-.69-.67-1.33-.06-2.07,3.27-3.94,9.34-5.55,13.8-2.82,2.08,1.27,3.2,3.15,3.46,5.43,.33,2.88-.12,5.59-2.93,7.3-.79,.48-.61,.92,.17,1.26,4.5,1.95,4.95,5.19,4.33,9.61Z"/>
        <path class="cls-2" d="M45.52,29.93c-.78-.34-.96-.78-.17-1.26,2.81-1.71,3.26-4.42,2.93-7.3-.26-2.28-1.38-4.15-3.46-5.43-4.46-2.73-10.53-1.12-13.8,2.82-.61,.74-.64,1.38,.06,2.07,.6,.58,1.21,1.17,1.71,1.83,.68,.92,1.29,.77,1.9,0,.74-.93,1.65-1.62,2.71-2.14,1.6-.78,3.31-.41,4.24,.9,.95,1.34,.77,3.26-.45,4.46-.96,.94-2.18,1.37-3.48,1.61q-2.18,.39-2.07,2.63c.03,.32,.11,.65,.08,.97-.13,1.28,.28,1.86,1.69,1.67,1.4-.19,2.77,.13,4.11,.58,1.58,.53,2.13,1.79,2.37,3.3,.21,1.37-.38,2.33-1.46,3.06-1.76,1.18-4.07,1-6.22-.49q-2.64-1.82-4.16,.96c-.95,1.73-.85,1.98,.59,3.29,2.55,2.33,5.55,3.02,8.9,2.73,4.04-.36,7.85-3.18,8.34-6.68,.62-4.42,.17-7.66-4.33-9.61Z"/>
        <path class="cls-2" d="M30.01,41.79c-.03-.86-.51-1.12-1.27-1.1-.93,.03-1.85,.12-2.76,.36-.81,.21-1.43,0-1.4-.97,.09-3.39-.17-6.77-.39-10.15-.26-4.03-.46-8.07-.63-12.11-.05-1.25-.51-1.74-1.79-1.56-1.6,.23-3.2,.32-4.63,1.29-1.03,.7-2.21,1.17-3.35,1.69-2.29,1.05-2.49,1.46-1.95,3.94,.17,.8,.58,1.09,1.36,1.02,1.06-.11,2.13-.2,3.19-.28,.67-.05,1.02,.17,1.02,.94-.03,5.02,.45,10.02,.86,15.02,.1,1.26-.45,1.69-1.58,1.66-.93-.02-1.86,0-2.78-.1-1.23-.15-1.72,.37-1.66,1.56,.05,1.07,.09,2.14,.06,3.2-.03,1,.47,1.33,1.37,1.27,1.34-.08,2.69-.16,4.33-.26,3.29,.04,6.83-.58,10.4-.74,1.29-.06,1.98-.65,1.79-2.05-.12-.87-.16-1.76-.19-2.64Z"/>
      </g>
    </g>
  </g>
</svg>