<?xml version="1.0" encoding="UTF-8"?>
<svg id="Layer_2" data-name="Layer 2" xmlns="http://www.w3.org/2000/svg" xmlns:xlink="http://www.w3.org/1999/xlink" viewBox="0 0 62.07 61.81">
  <defs>
    <style>
      .cls-1 {
        fill: #fff;
      }

      .cls-2 {
        fill: #020202;
      }

      .cls-3 {
        filter: url(#drop-shadow-1);
      }

      .cls-4 {
        fill: #a6a4a6;
      }

      .cls-5 {
        fill: #bdbabb;
      }

      .cls-6 {
        fill: #7e7b7c;
      }

      .cls-7 {
        fill: #a7a5a6;
      }
    </style>
    <filter id="drop-shadow-1" filterUnits="userSpaceOnUse">
      <feOffset dx="1.42" dy="1.42"/>
      <feGaussianBlur result="blur" stdDeviation="5"/>
      <feFlood flood-color="#231916" flood-opacity=".5"/>
      <feComposite in2="blur" operator="in"/>
      <feComposite in="SourceGraphic"/>
    </filter>
  </defs>
  <g id="bg">
    <g id="_39" data-name="39">
      <g class="cls-3">
        <path class="cls-1" d="M49.64,5.48C43.42,.73,36.73-1.55,29.01,1.16c-1.85,.65-4.08,.97-5.16,2.77-1.23,2.05-2.6,4.05-3.48,6.3-.02,.69,.02,1.34,.18,2.04,.27,1.14,.19,2.31-.82,3.18-.22,.19-.41,.4-.72,.28-.32-.12-.34-.42-.33-.69,0-.41-.08-.88,.09-1.23,.42-.86-.02-1.28-.68-1.65h0c-.26,.02-.52,.05-.78,.07-1.29,.52-2.63,.18-3.95,.22-3.16,1.54-6.21,3.21-8.84,5.65C1.61,20.8,.38,24.21,.09,27.98c-.41,5.44,.5,10.66,2.78,15.7,2.44,5.39,6.15,9.67,10.99,12.83,7.51,4.9,15.69,6.59,24.57,4.26,7.73-2.02,13.81-6.3,18.21-12.89,5.33-7.97,6.71-16.7,4.22-25.93-1.82-6.74-5.64-12.21-11.23-16.48ZM7.05,21.7c-.46,.36-.98,.42-1.33-.1-.33-.51-.1-.99,.35-1.34,1.18-.9,2.56-1.2,4.24-1.38-1.01,1.37-2.21,2-3.25,2.82Zm20.75,19.7c-.17,3.54-.35,3.72-3.84,3.24-4-.56-7.98-1.2-11.98-1.76-.62-.09-.89-.32-1.01-.91-.09-.48-.02-.92,.04-1.38,.61-4.38,.9-3.83,4.13-3.04,2.28,.55,2.46,.37,2.64-1.91,.32-4.18,1.12-8.27,1.96-12.37,.1-.5,.19-1,.26-1.51q.26-1.93-1.58-1.44c-.13,.05-.27,.08-.4,.1-1.05,.24-2.14,.35-2.96,1.19-.1,.1-.35,.07-.53,.06-.48-.03-1.13,.18-1.28-.48-.12-.54,.42-.75,.82-.96,.69-.37,1.38-.72,2.07-1.08,1.17-1.62,1.8-1.83,3.66-1.14,.54,.2,.98,.18,1.37-.27,0,0,0,0,0,0-.55-.86-.16-1.47,.55-1.96,.44-.31,.92-.58,1.38-.87,.07-.06,.13-.14,.21-.17,3.48-1.06,4.05-.59,3.5,3.08-.53,3.53-1.28,7.03-1.67,10.58-.24,2.11-.76,4.17-.87,6.3-.05,1.07-.83,1.94-.83,3.06,0,.8,.15,1.25,1.02,1.27,.41,.01,.83,.12,1.24,.13,1.85,.05,2.2,.41,2.12,2.24Zm16.99-18.2c-1.44-.38-2.9-.59-4.37-.85-.68-.12-1.03,.09-1.23,.75-.26,.84-.51,1.68-.77,2.52-.36,1.2,.06,1.52,1.17,1.44,2.3-.16,4.28,.62,6,2.13,1.82,1.61,2.63,3.66,2.57,5.72,.08,5.57-2.06,9.88-6.4,11.73-4.74,2.02-9.85-.48-12.11-4.11-.79-1.26-.46-2.28,.44-3.27,.59-.65,1-1.64,1.83-1.84,1.07-.26,1.01,1.12,1.65,1.6,.62,.47,1.06,1.21,1.71,1.62,2.88,1.83,5.01,.49,6.11-2.72,.29-.85,.23-1.84,.22-2.76-.04-2.58-2.47-4.14-4.86-3.16-.26,.11-.5,.24-.75,.36-1.79,.87-3.71-.35-3.65-2.39,.03-1.11,.2-2.22,.42-3.3,.68-3.3,1.41-6.59,2.11-9.89,.2-.93,.7-1.13,1.61-.97,3.84,.66,7.69,1.25,11.54,1.86,1.08,.17,1.69,.58,1.62,1.91-.2,3.85-1.1,4.6-4.86,3.61Z"/>
        <path class="cls-7" d="M19.19,13.53c0,.49-.27,1,.16,1.56,.87-.57,.95-1.41,.87-2.28-.07-.87-.15-1.73,.14-2.58-.27,1.22-1.18,1.68-2.28,1.92h0c.97-.02,1.1,.62,1.1,1.38Z"/>
        <path class="cls-7" d="M18.77,13.81c-.17,.35-.09,.82-.09,1.23,0,.28,.02,.58,.33,.69,.31,.12,.5-.09,.72-.28,1.01-.88,1.09-2.04,.82-3.18-.16-.69-.2-1.35-.18-2.04-.29,.85-.21,1.71-.14,2.58,.07,.87,0,1.72-.87,2.28-.43-.57-.16-1.08-.16-1.56,0-.76-.13-1.4-1.1-1.38,.66,.37,1.1,.79,.68,1.65Z"/>
        <path class="cls-7" d="M17.31,12.23c-1.32,.09-2.66-.29-3.95,.22,1.3-.32,2.65,.08,3.95-.22Z"/>
        <path class="cls-7" d="M17.31,12.23c-1.31,.29-2.65-.1-3.95,.22,1.32-.04,2.66,.3,3.95-.22Z"/>
        <path class="cls-2" d="M48.03,17.68c-3.85-.62-7.7-1.2-11.54-1.86-.91-.16-1.41,.04-1.61,.97-.7,3.3-1.44,6.59-2.11,9.89-.22,1.09-.39,2.2-.42,3.3-.06,2.04,1.86,3.26,3.65,2.39,.25-.12,.5-.26,.75-.36,2.4-.98,4.83,.58,4.86,3.16,.01,.92,.07,1.92-.22,2.76-1.1,3.21-3.23,4.55-6.11,2.72-.65-.41-1.09-1.15-1.71-1.62-.64-.48-.58-1.86-1.65-1.6-.83,.2-1.24,1.2-1.83,1.84-.9,.98-1.23,2.01-.44,3.27,2.27,3.63,7.37,6.12,12.11,4.11,4.34-1.85,6.48-6.15,6.4-11.73,.05-2.06-.75-4.11-2.57-5.72-1.71-1.51-3.69-2.3-6-2.13-1.11,.08-1.53-.25-1.17-1.44,.25-.84,.51-1.68,.77-2.52,.2-.66,.55-.87,1.23-.75,1.46,.26,2.93,.47,4.37,.85,3.76,.99,4.66,.25,4.86-3.61,.07-1.33-.54-1.74-1.62-1.91Z"/>
        <path class="cls-2" d="M25.68,39.16c-.42-.01-.83-.12-1.24-.13-.87-.02-1.02-.47-1.02-1.27,0-1.12,.78-1.99,.83-3.06,.11-2.12,.63-4.19,.87-6.3,.4-3.54,1.14-7.05,1.67-10.58,.55-3.67-.02-4.15-3.5-3.08-.08,.02-.14,.11-.21,.17-.94,.74-.87,2.17-1.93,2.83h0c-.39,.44-.83,.47-1.37,.27-1.86-.69-2.49-.48-3.66,1.14-.26,.83-.11,1.3,.92,1.13,.44-.07,.91,.02,1.37,.04-.13,.04-.27,.07-.4,.1,.13-.02,.27-.05,.4-.1q1.83-.49,1.58,1.44c-.07,.51-.16,1.01-.26,1.51-.84,4.09-1.64,8.19-1.96,12.37-.17,2.28-.36,2.46-2.64,1.91-3.23-.79-3.52-1.34-4.13,3.04-.06,.46-.13,.9-.04,1.38,.12,.59,.39,.82,1.01,.91,4,.56,7.98,1.2,11.98,1.76,3.49,.49,3.67,.31,3.84-3.24,.09-1.83-.26-2.19-2.12-2.24Z"/>
        <path class="cls-4" d="M5.72,21.6c.35,.53,.87,.46,1.33,.1,1.04-.82,2.25-1.45,3.25-2.82-1.68,.18-3.06,.47-4.24,1.38-.44,.34-.68,.83-.35,1.34Z"/>
        <path class="cls-5" d="M16.93,20.41c-1.28,.02-1.32-.04-.8-1.26-.69,.36-1.38,.72-2.07,1.08-.4,.21-.95,.43-.82,.96,.15,.66,.8,.45,1.28,.48,.18,.01,.44,.04,.53-.06,.82-.85,1.92-.96,2.96-1.19-.36,.04-.73,0-1.09,0Z"/>
        <path class="cls-5" d="M17.05,20.28c-1.03,.17-1.17-.3-.92-1.13-.52,1.22-.48,1.29,.8,1.26,.36,0,.73,.05,1.09,0,.13-.03,.27-.06,.4-.1-.46-.02-.93-.11-1.37-.04Z"/>
        <path class="cls-6" d="M23.09,14.91c-.46,.29-.93,.56-1.38,.87-.71,.5-1.1,1.1-.55,1.96,.37-1.13,.88-2.16,1.93-2.83Z"/>
        <path class="cls-6" d="M23.09,14.91c-1.05,.67-1.56,1.7-1.93,2.83h0c1.05-.66,.99-2.09,1.93-2.83Z"/>
      </g>
    </g>
  </g>
</svg>