<?xml version="1.0" encoding="UTF-8"?>
<svg id="Layer_2" data-name="Layer 2" xmlns="http://www.w3.org/2000/svg" xmlns:xlink="http://www.w3.org/1999/xlink" viewBox="0 0 62.33 62.96">
  <defs>
    <style>
      .cls-1 {
        fill: #fff;
      }

      .cls-2 {
        fill: #020202;
      }

      .cls-3 {
        filter: url(#drop-shadow-1);
      }
    </style>
    <filter id="drop-shadow-1" filterUnits="userSpaceOnUse">
      <feOffset dx="1.42" dy="1.42"/>
      <feGaussianBlur result="blur" stdDeviation="5"/>
      <feFlood flood-color="#231916" flood-opacity=".5"/>
      <feComposite in2="blur" operator="in"/>
      <feComposite in="SourceGraphic"/>
    </filter>
  </defs>
  <g id="bg">
    <g id="_39" data-name="39">
      <g class="cls-3">
        <path class="cls-1" d="M32.34,.02C14.76-.54-.34,13.54,0,31.95c.33,17.53,14.43,31.09,31.61,31.01,16.64-.08,30.9-13.92,30.71-31.68C62.37,13.8,48.1,.51,32.34,.02Zm-3.76,45.82c-.03,.96-.45,1.34-1.37,1.31-2.41-.07-4.8,.49-6.89,.29-2.65,.2-4.96,.33-7.27,.56-1.03,.1-1.37-.38-1.36-1.26,.02-.98,.06-1.94-.17-2.91-.24-.99,.49-1.22,1.23-1.26,1.02-.07,2.04-.06,3.06-.02,1.07,.05,1.57-.35,1.46-1.46-.52-5.22-.98-10.45-1.06-15.7-.02-1.15-.85-1.49-2.3-.97-.68,.24-1.32,.48-2.01,.16-1.4-.65-.91-1.95-1.04-3.05-.11-.95,.6-.99,1.17-1.25,1.57-.69,3.16-1.34,4.56-2.34,1.38-.99,2.97-.47,4.47-.6,.58-.05,.5,.69,.53,1.12,.3,3.88,.61,7.76,.86,11.65,.22,3.52,.71,7.02,.57,10.56-.04,1.04,.44,1.43,1.58,1.31,4.06-.45,4.12-.33,3.98,3.87Zm19.18-4.36c-1.37,3.6-4.21,5.2-7.95,5.35-3.19-.02-6.66-2.48-7.99-5.44-1.81-4.02-2.63-8.22-2.5-12.59,.1-3.3,.59-6.5,2.56-9.36,3.26-4.75,9.67-5.75,14.1-2.08,.82,.68,.98,1.41,.36,2.29-.66,.94-1.13,2.3-2.03,2.73-1.05,.5-2-.87-3.03-1.34-1.92-.86-3.5-.56-4.75,1.19-1.3,1.84-1.83,3.92-1.66,6.17,.02,.26-.06,.58,.32,.67,.51,.12,.74-.27,1.04-.55,2.49-2.31,5.83-2.7,8.7-.94,1.76,1.08,2.6,2.88,3.16,4.75,.92,3.06,.79,6.17-.34,9.14Z"/>
        <path class="cls-2" d="M44.94,27.58c-2.87-1.76-6.21-1.37-8.7,.94-.3,.28-.53,.67-1.04,.55-.38-.09-.3-.41-.32-.67-.17-2.25,.35-4.33,1.66-6.17,1.24-1.75,2.82-2.06,4.75-1.19,1.04,.47,1.98,1.84,3.03,1.34,.91-.43,1.37-1.79,2.03-2.73,.62-.88,.46-1.61-.36-2.29-4.44-3.67-10.84-2.67-14.1,2.08-1.97,2.87-2.46,6.07-2.56,9.36-.13,4.37,.7,8.57,2.5,12.59,1.33,2.96,4.81,5.42,7.99,5.44,3.74-.14,6.58-1.75,7.95-5.35,1.13-2.97,1.26-6.08,.34-9.14-.56-1.87-1.4-3.67-3.16-4.75Zm-2.8,12.61c-.95,1.77-2.82,2.07-4.25,.66-1.56-1.54-2.24-3.5-2.43-5.61-.14-1.52,1.96-3.56,3.71-3.8,1.46-.2,2.61,.69,3.21,2.48,.33,.99,.29,2.01,.37,2.76,0,1.38-.06,2.49-.61,3.51Z"/>
        <path class="cls-2" d="M24.6,41.96c-1.14,.13-1.62-.27-1.58-1.31,.13-3.54-.35-7.04-.57-10.56-.24-3.89-.56-7.77-.86-11.65-.03-.43,.05-1.18-.53-1.12-1.49,.14-3.08-.39-4.47,.6-1.4,1.01-3,1.65-4.56,2.34-.57,.25-1.29,.29-1.17,1.25,.13,1.1-.36,2.4,1.04,3.05,.69,.32,1.33,.08,2.01-.16,1.45-.52,2.28-.18,2.3,.97,.08,5.25,.54,10.48,1.06,15.7,.11,1.11-.39,1.51-1.46,1.46-1.02-.05-2.05-.05-3.06,.02-.73,.05-1.46,.28-1.23,1.26,.23,.97,.19,1.93,.17,2.91-.01,.88,.32,1.36,1.36,1.26,2.31-.23,4.63-.36,7.27-.56,2.09,.2,4.47-.36,6.89-.29,.92,.03,1.34-.35,1.37-1.31,.14-4.2,.08-4.32-3.98-3.87Z"/>
        <path class="cls-1" d="M39.17,31.44c-1.75,.24-3.85,2.28-3.71,3.8,.19,2.11,.86,4.08,2.43,5.61,1.43,1.41,3.3,1.1,4.25-.66,.55-1.02,.62-2.12,.61-3.51-.07-.75-.04-1.78-.37-2.76-.6-1.79-1.74-2.68-3.21-2.48Z"/>
      </g>
    </g>
  </g>
</svg>