<?xml version="1.0" encoding="UTF-8"?>
<svg id="Layer_2" data-name="Layer 2" xmlns="http://www.w3.org/2000/svg" xmlns:xlink="http://www.w3.org/1999/xlink" viewBox="0 0 62.7 51.23">
  <defs>
    <style>
      .cls-1 {
        fill: #fff;
      }

      .cls-2 {
        fill: #020202;
      }

      .cls-3 {
        filter: url(#drop-shadow-1);
      }
    </style>
    <filter id="drop-shadow-1" filterUnits="userSpaceOnUse">
      <feOffset dx="1.42" dy="1.42"/>
      <feGaussianBlur result="blur" stdDeviation="5"/>
      <feFlood flood-color="#231916" flood-opacity=".5"/>
      <feComposite in2="blur" operator="in"/>
      <feComposite in="SourceGraphic"/>
    </filter>
  </defs>
  <g id="bg">
    <g id="_39" data-name="39">
      <g class="cls-3">
        <path class="cls-1" d="M11.38,44.04c7.8,6.27,16.71,8.44,26.54,6.49,8.2-1.62,14.64-6.16,19.3-12.92,3.6-5.22,5.74-11.14,5.46-16.65,.18-5.51-.83-9.77-2.41-13.91-1.29-3.39-4.02-5.17-7.48-5.33-6.73-.3-13.45-.82-20.19-.84-3.58,0-7.15-.16-10.73-.33C19.13,.44,16.4,.07,13.66,0c-3.89-.09-6.93,1.48-9.23,4.73-1.62,2.3-2.55,4.88-3.28,7.48-1.61,5.7-1.56,11.49,.29,17.14,1.9,5.81,5.15,10.84,9.94,14.69ZM29.69,9c.07-.74,.2-1.51,.07-2.22-.27-1.53,.64-1.76,1.77-1.77,2.65-.02,5.3,0,7.95,0,0,0,0-.01,0-.02,2.65,0,5.3,.02,7.95,0,.95-.01,1.23,.36,1.32,1.32,.18,1.8-.76,3.08-1.64,4.44-2.45,3.79-4.83,7.65-5.51,12.21-.47,3.16-.74,6.36-.76,9.57-.01,2.1-.35,2.44-2.39,2.48-.65,.01-1.3,.02-1.95,.04-1.94,.04-2.02,0-1.93-1.88,.19-4.08,.32-8.17,1.45-12.14,1-3.5,2.34-6.84,4.76-9.65,.2-.23,.54-.47,.36-.83-.2-.42-.65-.28-1-.28-2.97,.06-5.95,.1-8.92,.24-1.17,.05-1.65-.33-1.53-1.5ZM13.45,29.26c.69,.07,1.39,.04,2.09,.06,2.36,.07,2.35,.07,2.32-2.23-.02-2.09-.14-4.17-.14-6.27,0-2.6,.04-5.2,.23-7.79,.09-1.33-.46-1.64-1.61-1.5-.6,.08-1.21,.09-1.8,.17-1.01,.15-1.45-.31-1.54-1.29-.25-2.79-.15-2.93,2.58-3.81,1.01-.32,2.02-.69,2.96-1.18,1.57-.83,3.27-.53,4.91-.64,1.1-.07,.96,.91,.96,1.63,0,3.2,0,6.41,0,9.61-.14,0-.28,0-.42,0,0,3.81,.01,7.61,0,11.42,0,1.69,.1,1.82,1.79,1.81q3.08-.03,3.07,2.99c-.01,2.56-.08,2.64-2.66,2.65-4.18,.02-8.36,0-12.55,.06-1,.02-1.44-.21-1.36-1.3,.08-1.01-.03-2.04-.07-3.06-.03-.88,.21-1.45,1.26-1.35Z"/>
        <path class="cls-2" d="M12.27,33.67c-.08,1.09,.35,1.32,1.36,1.3,4.18-.06,8.36-.04,12.55-.06,2.58-.01,2.65-.09,2.66-2.65q.01-3.02-3.07-2.99c-1.69,.02-1.8-.12-1.79-1.81,.02-3.81,0-7.61,0-11.42,.14,0,.28,0,.42,0,0-3.2,0-6.41,0-9.61,0-.72,.14-1.7-.96-1.63-1.64,.1-3.33-.19-4.91,.64-.94,.49-1.95,.86-2.96,1.18-2.73,.88-2.83,1.02-2.58,3.81,.09,.98,.53,1.44,1.54,1.29,.6-.09,1.2-.1,1.8-.17,1.15-.15,1.71,.17,1.61,1.5-.18,2.59-.22,5.19-.23,7.79,0,2.09,.12,4.18,.14,6.27,.03,2.3,.04,2.3-2.32,2.23-.7-.02-1.4,0-2.09-.06-1.05-.1-1.29,.47-1.26,1.35,.04,1.02,.15,2.05,.07,3.06Z"/>
        <path class="cls-2" d="M31.23,10.5c2.97-.14,5.95-.18,8.92-.24,.35,0,.8-.14,1,.28,.18,.36-.16,.6-.36,.83-2.43,2.8-3.77,6.15-4.76,9.65-1.13,3.96-1.26,8.06-1.45,12.14-.09,1.87,0,1.92,1.93,1.88,.65-.01,1.3-.02,1.95-.04,2.04-.04,2.38-.38,2.39-2.48,.02-3.21,.29-6.41,.76-9.57,.68-4.56,3.06-8.41,5.51-12.21,.88-1.36,1.82-2.64,1.64-4.44-.09-.96-.38-1.33-1.32-1.32-2.65,.03-5.3,0-7.95,0,0,0,0,.01,0,.02-2.65,0-5.3-.01-7.95,0-1.13,0-2.04,.24-1.77,1.77,.13,.71,0,1.48-.07,2.22-.12,1.17,.37,1.55,1.53,1.5Z"/>
      </g>
    </g>
  </g>
</svg>