<?xml version="1.0" encoding="UTF-8"?>
<svg id="Layer_2" data-name="Layer 2" xmlns="http://www.w3.org/2000/svg" xmlns:xlink="http://www.w3.org/1999/xlink" viewBox="0 0 62.66 62.79">
  <defs>
    <style>
      .cls-1 {
        fill: #030202;
      }

      .cls-2 {
        fill: #fff;
      }

      .cls-3 {
        fill: #020202;
      }

      .cls-4 {
        filter: url(#drop-shadow-1);
      }

      .cls-5 {
        fill: #faf9f9;
      }

      .cls-6 {
        fill: #fcfcfc;
      }
    </style>
    <filter id="drop-shadow-1" filterUnits="userSpaceOnUse">
      <feOffset dx="1.42" dy="1.42"/>
      <feGaussianBlur result="blur" stdDeviation="5"/>
      <feFlood flood-color="#231916" flood-opacity=".5"/>
      <feComposite in2="blur" operator="in"/>
      <feComposite in="SourceGraphic"/>
    </filter>
  </defs>
  <g id="bg">
    <g id="_39" data-name="39">
      <g class="cls-4">
        <path class="cls-2" d="M50.01,5.66C43.98,2.61,37.91-.21,30.89,.01,14.38,.54,.5,13.83,.01,30.89c-.51,18,14.41,32.16,31.18,31.9,16.43,.02,31.56-13.13,31.47-31.71-.05-10.48-5.22-18.54-12.66-25.41ZM23.38,39.2q2.57,.88,1.8,3.62c-.51,1.81-1.19,2.21-2.94,1.62-3.95-1.32-7.87-2.72-11.84-3.98-1.29-.41-1.47-1.07-1.03-2.17,.29-.73,.63-1.45,.82-2.21,.23-.91,.73-1.11,1.54-.83,1.05,.37,2.1,.72,3.12,1.15,.8,.34,1.24,.05,1.49-.68,.67-1.97,1.07-4.02,1.85-5.97,1.11-2.75,2.07-5.56,3.15-8.33,.63-1.62,.44-2.07-1.22-2.45-.27-.06-.58-.05-.81-.18-.66-.4-1.95,.21-2.04-.72-.11-1.1,.31-2.29,.98-3.26,.57-.82,1.49-.19,1.99-.39,1.53-.04,2.83-.11,4.1-.41,1.54-.35,2.91,.35,4.33,.72,.79,.21,.56,.82,.38,1.37-1.1,3.34-2.2,6.68-3.29,10.02-1.16,3.56-2.29,7.13-3.69,10.62-.6,1.49-.29,1.91,1.29,2.45Zm21.55-5.47c-1.25,.63-1.41,1.24-.62,2.34,2.62,3.69,1.22,7.25-.7,10.22-1.08,1.67-4.13,2.86-6.48,2.86-3.51,.3-7.94-2.25-9.36-6.66-.99-3.06,.97-7.92,3.91-9.3,.29-.14,.6-.25,.89-.39,1.73-.8,1.74-1.07,.86-2.83-1.32-2.64-.61-5.16,.86-7.5,1.73-2.75,4.26-4.28,7.5-3.73,3.07,.51,5.94,1.63,7.1,5.04,1.17,3.44-.67,8.31-3.94,9.95Z"/>
        <path class="cls-1" d="M41.77,18.74c-3.24-.54-5.78,.98-7.5,3.73-1.47,2.34-2.18,4.85-.86,7.5,.88,1.76,.87,2.02-.86,2.83-.29,.14-.6,.25-.89,.39-2.93,1.38-4.89,6.24-3.91,9.3,1.42,4.41,5.85,6.96,9.36,6.66,2.35,0,5.4-1.19,6.48-2.86,1.93-2.97,3.32-6.53,.7-10.22-.79-1.11-.63-1.72,.62-2.34,3.27-1.64,5.12-6.51,3.94-9.95-1.16-3.4-4.03-4.52-7.1-5.04Zm-1.52,22.57c-.53,2.15-2.18,3.51-4,3.3-2.07-.25-3.69-2.12-3.73-4.75,.26-1.57,1.2-3.22,2.63-4.61,.31-.3,.68-.23,1.05-.16,2.03,.38,4.55,4.24,4.05,6.23Zm4.01-13.51c-.47,1.38-1.32,2.53-2.34,3.57-.44,.45-.99,.5-1.38,.16-1.42-1.23-2.57-2.66-2.73-4.35,.09-1.41,.15-2.49,1.16-3.29,1.19-.93,2.49-1.16,3.58-.47,1.68,1.06,2.3,2.61,1.7,4.38Z"/>
        <path class="cls-3" d="M25.78,26.14c1.09-3.34,2.19-6.68,3.29-10.02,.18-.55,.41-1.16-.38-1.37-1.42-.37-2.79-1.08-4.33-.72-1.27,.29-2.57,.36-4.1,.41-.5,.19-1.42-.43-1.99,.39-.68,.97-1.1,2.16-.98,3.26,.1,.93,1.38,.32,2.04,.72,.22,.13,.54,.12,.81,.18,1.66,.38,1.85,.83,1.22,2.45-1.07,2.77-2.03,5.58-3.15,8.33-.79,1.94-1.18,3.99-1.85,5.97-.25,.74-.69,1.02-1.49,.68-1.02-.43-2.08-.78-3.12-1.15-.81-.29-1.31-.08-1.54,.83-.19,.76-.53,1.48-.82,2.21-.44,1.1-.26,1.76,1.03,2.17,3.97,1.26,7.89,2.66,11.84,3.98,1.75,.59,2.43,.19,2.94-1.62q.77-2.74-1.8-3.62c-1.58-.54-1.88-.96-1.29-2.45,1.4-3.48,2.53-7.05,3.69-10.62Z"/>
        <path class="cls-5" d="M36.2,35.08c-.37-.07-.74-.14-1.05,.16-1.43,1.39-2.37,3.04-2.63,4.61,.04,2.63,1.66,4.51,3.73,4.75,1.82,.22,3.46-1.14,4-3.3,.49-1.99-2.02-5.85-4.05-6.23Z"/>
        <path class="cls-6" d="M42.57,23.42c-1.09-.69-2.39-.46-3.58,.47-1.01,.8-1.07,1.88-1.16,3.29,.16,1.69,1.31,3.12,2.73,4.35,.38,.33,.93,.29,1.38-.16,1.02-1.04,1.87-2.19,2.34-3.57,.61-1.77-.02-3.32-1.7-4.38Z"/>
      </g>
    </g>
  </g>
</svg>