<?xml version="1.0" encoding="UTF-8"?>
<svg id="Layer_2" data-name="Layer 2" xmlns="http://www.w3.org/2000/svg" xmlns:xlink="http://www.w3.org/1999/xlink" viewBox="0 0 62.4 62.26">
  <defs>
    <style>
      .cls-1 {
        fill: #fff;
      }

      .cls-2 {
        fill: #020202;
      }

      .cls-3 {
        filter: url(#drop-shadow-1);
      }
    </style>
    <filter id="drop-shadow-1" filterUnits="userSpaceOnUse">
      <feOffset dx="1.42" dy="1.42"/>
      <feGaussianBlur result="blur" stdDeviation="5"/>
      <feFlood flood-color="#231916" flood-opacity=".5"/>
      <feComposite in2="blur" operator="in"/>
      <feComposite in="SourceGraphic"/>
    </filter>
  </defs>
  <g id="bg">
    <g id="_39" data-name="39">
      <g class="cls-3">
        <path class="cls-1" d="M57.58,14.57c-2.15-3.15-4.42-6.25-7.8-8.36-2.88-1.8-5.61-3.75-8.95-4.69C35.88,.14,30.94-.48,25.83,.42,18.49,1.71,12.54,5.4,7.5,10.74c-.54,.67-1.08,1.35-1.62,2.02,0,0,0,0,0,0-1.42,2.55-2.78,5.11-3.87,7.83-3.09,7.67-2.35,15.23,.4,22.75,1.77,4.84,5.14,8.48,9.08,11.73,5.55,4.58,11.76,7.12,18.99,7.18,2.61,.02,5.17-.15,7.74-.71,4.67-1.02,8.98-2.89,12.59-5.94,5.74-4.86,9.67-10.87,11-18.49,.85-4.86,.92-9.56-.63-14.27-.95-2.87-1.91-5.8-3.59-8.28Zm-29.45,26.98c-.06,.65-.15,1.29-.18,1.94-.1,2.15-.31,2.32-2.39,2.09-4.01-.45-8.03-.88-12.05-1.29-2.35-.24-2.39-.25-2.31-2.58,.1-2.97,.31-3.13,3.23-2.61,2.51,.45,3.36,1.16,3.52-2.68,.17-4.06,.53-8.15,1.28-12.17,.07-.36,.02-.75,.07-1.11,.2-1.33-.32-1.94-1.69-1.75-.14,.02-.28,0-.42,0-3.09-.01-3.13-.06-2.6-3.12,.08-.45,.23-.9,.67-.97,2.74-.39,5.21-1.95,8.04-1.92,3.18,.06,2.63,.03,2.39,2.59-.64,6.93-1.1,13.88-2.25,20.74-.2,1.17,.29,1.56,1.29,1.6,.74,.03,1.49,0,2.23-.05,.94-.06,1.26,.41,1.18,1.28Zm20.59-7.6c-.6,4.07-1.91,7.85-4.84,10.86-3.73,3.83-9.98,3.25-13.78-1.18-.21-.25-.22-.49-.21-.77,.03-.51,2.27-3.22,2.77-3.35,.49-.12,.77,.18,1.06,.5,2.77,3.06,5.99,2.58,7.84-1.14,.54-1.09,1.05-2.17,1.2-3.38,.04-.31,.18-.7-.11-.92-.32-.25-.7-.07-1.03,.11-1.01,.55-1.97,1.22-3.19,1.3-4.3,.27-7.51-2.59-7.73-6.92-.03-.56,0-1.12,0-1.67-.12-3.35,.79-6.32,3.27-8.68,3.76-3.57,10.37-2.36,12.92,2.17,2.36,4.18,2.49,8.55,1.82,13.09Z"/>
        <path class="cls-2" d="M33.98,18.7c-2.49,2.36-3.39,5.33-3.27,8.68,0,.56-.02,1.12,0,1.67,.22,4.33,3.42,7.19,7.73,6.92,1.22-.07,2.17-.75,3.19-1.3,.33-.18,.71-.36,1.03-.11,.28,.22,.15,.61,.11,.92-.15,1.21-.66,2.3-1.2,3.38-1.85,3.72-5.07,4.2-7.84,1.14-.29-.32-.57-.62-1.06-.5-.5,.13-2.75,2.84-2.77,3.35-.02,.28,0,.52,.21,.77,3.81,4.43,10.05,5.01,13.78,1.18,2.93-3.01,4.24-6.79,4.84-10.86,.67-4.53,.54-8.91-1.82-13.09-2.55-4.52-9.17-5.74-12.92-2.17Zm9.54,9.72c-.18,1.52-2.75,3.26-4.71,3.23-1.28-.02-2.56-1.41-2.77-3.04-.06-.5,0-1.02,0-1.61-.2-1.6,.46-3.02,1.32-4.37,1.06-1.67,2.89-1.85,4.18-.37,1.53,1.75,2.27,3.81,1.99,6.16Z"/>
        <path class="cls-2" d="M26.96,40.28c-.74,.04-1.49,.08-2.23,.05-.99-.05-1.48-.43-1.29-1.6,1.15-6.87,1.6-13.82,2.25-20.74,.24-2.56,.79-2.52-2.39-2.59-2.83-.02-5.3,1.53-8.04,1.92-.44,.06-.59,.52-.67,.97-.52,3.06-.49,3.11,2.6,3.12,.14,0,.28,.02,.42,0,1.37-.19,1.89,.42,1.69,1.75-.06,.37,0,.75-.07,1.11-.75,4.02-1.11,8.12-1.28,12.17-.16,3.84-1.02,3.13-3.52,2.68-2.91-.52-3.13-.36-3.23,2.61-.08,2.32-.04,2.34,2.31,2.58,4.02,.41,8.04,.84,12.05,1.29,2.08,.23,2.3,.06,2.39-2.09,.03-.65,.12-1.29,.18-1.94,.09-.87-.24-1.33-1.18-1.28Z"/>
        <path class="cls-1" d="M37.35,22.62c-.86,1.35-1.52,2.77-1.32,4.37,0,.59-.05,1.1,0,1.61,.21,1.63,1.49,3.02,2.77,3.04,1.96,.03,4.53-1.71,4.71-3.23,.28-2.35-.47-4.41-1.99-6.16-1.29-1.48-3.11-1.3-4.18,.37Z"/>
      </g>
    </g>
  </g>
</svg>