<?xml version="1.0" encoding="UTF-8"?>
<svg id="Layer_2" data-name="Layer 2" xmlns="http://www.w3.org/2000/svg" xmlns:xlink="http://www.w3.org/1999/xlink" viewBox="0 0 61.51 61.23">
  <defs>
    <style>
      .cls-1 {
        fill: #fff;
      }

      .cls-2 {
        fill: #fafafa;
      }

      .cls-3 {
        filter: url(#drop-shadow-1);
      }

      .cls-4 {
        fill: #fbfafa;
      }

      .cls-5 {
        fill: #726f70;
      }

      .cls-6 {
        fill: #090809;
      }
    </style>
    <filter id="drop-shadow-1" filterUnits="userSpaceOnUse">
      <feOffset dx="1.42" dy="1.42"/>
      <feGaussianBlur result="blur" stdDeviation="5"/>
      <feFlood flood-color="#231916" flood-opacity=".5"/>
      <feComposite in2="blur" operator="in"/>
      <feComposite in="SourceGraphic"/>
    </filter>
  </defs>
  <g id="bg">
    <g id="_39" data-name="39">
      <g class="cls-3">
        <path class="cls-1" d="M.01,30.04c.05-1.69-.08-3.38,.42-5.04,.14-.45,.3-.84,.71-1.09,4.05-2.55,7.71-5.63,11.63-8.35,4.79-3.32,9.22-7.12,14.02-10.43,1.69-1.16,3.38-2.39,4.81-3.91,1.52-1.6,3.41-1.3,5.26-.89,6.86,1.51,12.73,4.82,17.37,10.1,3.43,3.91,5.79,8.46,6.78,13.59,.68,3.54,.62,7.09,.11,10.7-.71,5.04-2.45,9.6-5.3,13.76-3.43,5.01-8.12,8.52-13.73,10.71-4.55,1.77-9.3,2.39-14.22,1.88-5.35-.55-10.1-2.44-14.55-5.44-4.63-3.12-8.02-7.25-10.39-12.18C.91,39.26-.13,34.75,.01,30.04Z"/>
        <path class="cls-6" d="M25.97,16.52c.61,0,1.21-.01,1.82-.02,1.11-.57,2.07-.34,2.92,.53,3.76,2.14,5.59,5.38,5.82,9.69,.16,3.03-.52,5.93-.98,8.87-.13,.88-.93,1.56-.75,2.54,.04,.23-.24,.53,.09,.7,.31,.17,.57-.04,.82-.21,1.07-.69,2.13-1.41,3.22-2.06,1.19-.71,2.42-1.35,3.63-2.03,.52-.29,.95-.18,1.25,.31,.69,1.12,1.37,2.24,2.02,3.38,.41,.74,0,1.19-.65,1.51-3.02,1.51-6.03,3.05-9.07,4.54-1.82,.9-3.58,1.9-5.3,2.98-1.94,1.22-3.52,.28-3.69-2.07-.08-1.05,.53-1.85,.77-2.78,.47-1.84,.99-3.66,1.47-5.5,.09-.36,.29-1.02,.29-1.02,.45-2.04,.94-3.95,1.26-5.97,.22-1.39,.22-2.71,0-4.06-.49-3.12-2.4-4.45-5.6-3.9-2.08,.84-2.84,2.69-3.48,4.59-.37,1.1-.58,1.31-1.66,.87-.87-.35-1.71-.74-2.69-.76-.52,0-.76-.28-.61-.91,.63-2.65,1.7-5.04,3.69-6.97,.46-.3,.65,.1,.89,.35,.31,.48,.36,1.01,.23,1.56-.15,.52-.58,.82-.94,1.17-.15,.16-.33,.31-.41,.52-.16,.43-.33,.94,.02,1.26,.38,.35,.76-.09,1.07-.31,.97-.7,1.82-1.54,2.43-2.58,.24-.41,.31-.74-.37-.55-.18-.03-.28-.14-.31-.32,0-.37,.23-.64,.5-.84,.63-.45,1.11-.99,1.32-1.75,.13-.49,.57-.64,.99-.79Z"/>
        <path class="cls-2" d="M21.44,20.79c-.07-.51,.27-1.08-.22-1.53-.2-.36,.02-.56,.31-.7,1.3-.62,2.7-1.09,3.79-2.09,.14-.13,.35-.07,.5,.08,.05-.01,.1-.02,.15-.02-.43,.37-.82,.73-.91,1.37-.16,1.05-1.42,1.16-1.84,2.01-.15,.75-.96,.86-1.35,1.37-.09,.05-.19,.07-.3,.06-.23-.14-.23-.33-.11-.54Z"/>
        <path class="cls-4" d="M23.51,20.16c.23-.23,.37-.57,.81-.53,.16,.55-.03,1.03-.32,1.46-.77,1.16-1.81,2.07-2.91,2.9-.3,.23-.68,.38-1.05,.22-.45-.2-.06-.59-.1-.89-.1-.62-.18-1.29,.6-1.61,.41-.08,.78-.26,1.16-.44h-.01c.57-.43,1.17-.81,1.82-1.12Z"/>
        <path class="cls-5" d="M33.75,40.23c-.24,.02-.37-.13-.32-.32,.09-.33,.12-.77,.53-.87,.23-.05,.36,.23,.35,.46-.02,.36-.19,.63-.56,.73Z"/>
      </g>
    </g>
  </g>
</svg>