<?xml version="1.0" encoding="UTF-8"?>
<svg id="Layer_2" data-name="Layer 2" xmlns="http://www.w3.org/2000/svg" xmlns:xlink="http://www.w3.org/1999/xlink" viewBox="0 0 62.38 62.05">
  <defs>
    <style>
      .cls-1 {
        fill: #fff;
      }

      .cls-2 {
        fill: #020202;
      }

      .cls-3 {
        filter: url(#drop-shadow-1);
      }
    </style>
    <filter id="drop-shadow-1" filterUnits="userSpaceOnUse">
      <feOffset dx="1.42" dy="1.42"/>
      <feGaussianBlur result="blur" stdDeviation="5"/>
      <feFlood flood-color="#231916" flood-opacity=".5"/>
      <feComposite in2="blur" operator="in"/>
      <feComposite in="SourceGraphic"/>
    </filter>
  </defs>
  <g id="bg">
    <g id="_39" data-name="39">
      <g class="cls-3">
        <path class="cls-1" d="M28.23,.09C14.34,1.01-1.33,13.55,.09,33.5c1.1,15.45,14.37,28.48,30.46,28.52,17.93,.65,33.23-14.77,31.73-33.32C61.06,13.59,48.68-1.27,28.23,.09Zm1.41,45.95c-2.42-.01-4.83,0-7.25,0,0-.14,0-.29,0-.43-2.79,0-5.58-.02-8.36,.01-1.03,.01-1.34-.46-1.39-1.43-.09-1.54,.31-2.77,1.46-3.87,2.92-2.8,5.83-5.62,8.27-8.86,1.49-1.97,2.55-4.2,2.72-6.75,.11-1.7-.59-3.09-2.02-3.84-1.22-.65-2.5-.15-3.66,.59-.68,.43-1.21,1-1.77,1.55-.99,.96-1.46,.9-2.31-.16-.37-.47-.84-.86-1.28-1.27-.7-.65-.78-1.42-.17-2.08,3.1-3.34,6.62-4.75,11.01-3.68,3.69,.9,5.99,4.23,5.99,8.23,0,4.77-2.17,8.66-5.09,12.2-.86,1.04-1.88,1.93-2.82,2.9-.28,.29-.73,.59-.57,1.04,.19,.53,.72,.25,1.1,.24,1.95-.03,3.9-.12,5.85-.14,1.97-.01,2.24,.28,2.28,2.23,.01,.51,0,1.02,0,1.54-.02,1.9-.14,2-1.98,1.99Zm19.33-3.74c-2.38,4.64-6.71,6.16-11.3,3.75-2.02-1.06-2.87-3.1-3.65-5.09-1.75-4.47-1.54-9.09-1-13.74,.3-2.56,.92-5,2.2-7.27,1.54-2.75,3.95-4.07,6.95-4.09,2.83-.02,5.06,1.39,6.57,3.8,2.17,3.45,2.43,7.34,2.47,11.44-.16,3.74-.4,7.62-2.24,11.21Z"/>
        <path class="cls-2" d="M42.17,15.84c-3,.02-5.4,1.35-6.95,4.09-1.28,2.28-1.9,4.71-2.2,7.27-.54,4.65-.75,9.27,1,13.74,.78,1.99,1.64,4.04,3.65,5.09,4.59,2.41,8.92,.89,11.3-3.75,1.84-3.6,2.08-7.47,2.24-11.21-.04-4.1-.3-7.99-2.47-11.44-1.51-2.41-3.75-3.82-6.57-3.8Zm2.74,21.21c-.23,1.41-.82,2.65-1.5,3.85-.94,1.64-2.76,1.58-3.7-.1-.86-1.54-1.04-3.28-1.15-4.98-.24-3.71,0-7.42,.54-11.1,.12-.84,.42-1.61,.8-2.36,.48-.93,1.24-1.59,2.28-1.59,1.13,0,1.83,.82,2.27,1.8,1.04,2.33,.93,4.8,.85,7.47,.02,2.21,0,4.62-.38,7.02Z"/>
        <path class="cls-2" d="M29.35,40.28c-1.95,.01-3.9,.11-5.85,.14-.38,0-.91,.29-1.1-.24-.16-.45,.29-.75,.57-1.04,.94-.97,1.96-1.87,2.82-2.9,2.93-3.54,5.09-7.43,5.09-12.2,0-4.01-2.3-7.34-5.99-8.23-4.38-1.07-7.91,.34-11.01,3.68-.61,.66-.53,1.43,.17,2.08,.44,.41,.91,.81,1.28,1.27,.85,1.07,1.32,1.13,2.31,.16,.56-.55,1.09-1.12,1.77-1.55,1.16-.74,2.44-1.24,3.66-.59,1.43,.76,2.13,2.14,2.02,3.84-.17,2.55-1.23,4.78-2.72,6.75-2.44,3.23-5.36,6.06-8.27,8.86-1.15,1.1-1.54,2.34-1.46,3.87,.06,.97,.36,1.45,1.39,1.43,2.79-.03,5.58-.01,8.36-.01,0,.14,0,.29,0,.43,2.42,0,4.83,0,7.25,0,1.85,0,1.96-.09,1.98-1.99,0-.51,0-1.02,0-1.54-.04-1.95-.31-2.24-2.28-2.23Z"/>
        <path class="cls-1" d="M44.44,22.57c-.44-.98-1.14-1.8-2.27-1.8-1.03,0-1.79,.66-2.28,1.59-.39,.75-.68,1.52-.8,2.36-.55,3.68-.79,7.39-.54,11.1,.11,1.7,.29,3.44,1.15,4.98,.94,1.68,2.77,1.74,3.7,.1,.69-1.2,1.28-2.44,1.5-3.85,.39-2.4,.4-4.81,.38-7.02,.09-2.67,.19-5.14-.85-7.47Z"/>
      </g>
    </g>
  </g>
</svg>