<?xml version="1.0" encoding="UTF-8"?>
<svg id="Layer_2" data-name="Layer 2" xmlns="http://www.w3.org/2000/svg" xmlns:xlink="http://www.w3.org/1999/xlink" viewBox="0 0 62.24 57.18">
  <defs>
    <style>
      .cls-1 {
        fill: #fff;
      }

      .cls-2 {
        fill: #020202;
      }

      .cls-3 {
        filter: url(#drop-shadow-1);
      }

      .cls-4 {
        fill: #bdbabb;
      }
    </style>
    <filter id="drop-shadow-1" filterUnits="userSpaceOnUse">
      <feOffset dx="1.42" dy="1.42"/>
      <feGaussianBlur result="blur" stdDeviation="5"/>
      <feFlood flood-color="#231916" flood-opacity=".5"/>
      <feComposite in2="blur" operator="in"/>
      <feComposite in="SourceGraphic"/>
    </filter>
  </defs>
  <g id="bg">
    <g id="_39" data-name="39">
      <g class="cls-3">
        <path class="cls-1" d="M54.1,10.03C49.05,4.61,42.96,1.26,35.49,.37c-4.55-.54-9.04-.65-13.39,.74C9.49,5.17,2.14,13.8,.28,26.96c-.86,6.06,.3,11.87,2.89,17.34,1.26,2.66,2.98,5.14,6.58,4.83,1.73-.25,3.41,.02,5.09,.39,.78,.17,1.55,.26,2.27-.23-.04-.56-.95-.86-.49-1.48,.47-.63,1.17-.39,1.8-.24,.95,.23,1.88,.49,2.87,.43,.22-.01,.51-.05,.6,.22,.12,.35-.17,.49-.42,.61-.49,.23-.92,.68-1.54,.45-.27-.1-.59-.2-.72,.13-.14,.36,.24,.43,.46,.56,.82,.47,1.67,.76,2.64,.77,.57,0,1.22-.2,1.7,.35h0c2.1,.56,4.21,1.06,6.29,1.7,2.9,.89,5.77,1.61,8.88,1.75,2.42,.11,5.07,.2,7.23,2,1.2,1.01,2.59,.69,3.69-.27,2.66-2.33,5.04-4.91,6.94-7.92,3.08-4.87,5.2-10.08,5.2-15.89,0-3.54-.23-7.11-1.35-10.57-1.44-4.45-3.6-8.45-6.79-11.87Zm-21.89,35.9c-3.61,.37-7-.46-10.49-.83-1.06-.11-2.13-.16-3.2-.18-1.23-.02-1.38-.54-.75-1.46,1.02-1.49,2.15-2.92,3.09-4.46,1.84-3.01,3.78-5.97,4.55-9.49,.33-1.51,.14-2.92-.3-4.37-1-3.35-4.16-3.02-5.92-1.38-.76,.71-1.25,1.61-1.83,2.45-.42,.6-.8,.83-1.43,.24-.51-.47-1.09-.86-1.64-1.29-1.67-1.31-1.75-1.37-.55-3.07,2.54-3.59,5.94-5.68,10.47-4.93,2.27,.38,4.21,1.58,5.34,3.81,1.11,2.19,2.01,4.4,1.74,6.59-.12,4.42-1.92,7.92-3.89,11.35-.23,.4-.57,.74-.79,1.14-.28,.51-.83,1.1-.46,1.64,.32,.48,.94-.02,1.42-.1,1.61-.27,3.13-.85,4.69-1.29,2.08-.59,2.64-.22,2.91,1.87,.5,3.91,.96,3.35-2.94,3.75Zm18.24-2.59c-3.67,.78-7.39,1.35-11.57,1.83-.81,.25-1.32-.23-1.38-1.53-.04-.91-.39-1.79-.53-2.71-.15-.98,.23-1.29,1.05-1.37,.78-.08,1.57-.16,2.36-.2,1.5-.08,1.94-.54,1.66-2.01-.18-.9-.67-1.74-.81-2.64-.6-3.75-1.52-7.44-1.87-11.23-.17-1.81-.38-1.98-2.14-1.7-.09,.01-.19,.02-.28,.04-3.03,.59-3,.58-3.34-2.5-.09-.8,.09-1.28,.8-1.71,1.43-.85,2.87-1.69,4.18-2.76,1.13-.92,2.61-1.11,4.08-1.19,.79-.04,.78,.56,.93,.98,.66,1.84,.79,3.8,1.15,5.7,.3,1.57,.56,3.15,.84,4.72,.64,3.7,1.27,7.39,1.93,11.09,.29,1.63,.77,1.91,2.38,1.43,.44-.13,.86-.35,1.3-.49,.84-.25,1.46,0,1.76,.87,.04,.13,.12,.25,.16,.38,1.36,3.7,1.13,4.19-2.64,4.99Z"/>
        <path class="cls-4" d="M20.39,50.56c-.28-.17-.6-.25-.89-.39-.3-.15-.6-.35-.52-.73,.07-.35,.38-.49,.73-.54,.41-.05,.84,0,1.32-.4-.91-.21-1.74-.31-2.55-.49-.78-.18-1.6-.32-1.15,1,.17,.5-.26,.63-.62,.73-.45,.13-.95,.16-1.38,.05-1.84-.47-3.72-.52-5.59-.66,2.42,.14,4.76,.99,7.22,.86,.73-.04,1.5,.01,2.17,.34,1.55,.75,3.2,.81,4.86,.78-1.16-.45-2.48,.13-3.62-.54Z"/>
        <path class="cls-4" d="M22.31,50.76c-.97,0-1.82-.3-2.64-.77-.22-.13-.6-.2-.46-.56,.13-.33,.45-.23,.72-.13,.62,.22,1.05-.23,1.54-.45,.24-.11,.54-.25,.42-.61-.1-.27-.39-.23-.6-.22-.99,.06-1.93-.19-2.87-.43-.62-.15-1.33-.4-1.8,.24-.46,.62,.45,.92,.49,1.48-.72,.49-1.49,.4-2.27,.23-1.68-.37-3.37-.64-5.09-.39,1.87,.14,3.75,.18,5.59,.66,.43,.11,.92,.08,1.38-.05,.36-.1,.79-.24,.62-.73-.45-1.32,.37-1.18,1.15-1,.81,.19,1.64,.29,2.55,.49-.48,.4-.91,.35-1.32,.4-.35,.05-.66,.19-.73,.54-.08,.38,.21,.58,.52,.73,.29,.14,.61,.22,.89,.39,1.13,.67,2.45,.09,3.62,.54h0c-.48-.55-1.13-.34-1.7-.35Z"/>
        <path class="cls-2" d="M32.25,40.31c-1.56,.44-3.08,1.02-4.69,1.29-.48,.08-1.1,.58-1.42,.1-.37-.55,.18-1.13,.46-1.64,.22-.4,.57-.74,.79-1.14,1.97-3.43,3.77-6.93,3.89-11.35,.27-2.19-.63-4.4-1.74-6.59-1.13-2.23-3.07-3.43-5.34-3.81-4.53-.75-7.92,1.33-10.47,4.93-1.2,1.69-1.11,1.75,.55,3.07,.55,.43,1.13,.82,1.64,1.29,.63,.59,1.01,.36,1.43-.24,.58-.83,1.07-1.73,1.83-2.45,1.76-1.65,4.92-1.98,5.92,1.38,.43,1.46,.63,2.86,.3,4.37-.78,3.53-2.72,6.49-4.55,9.49-.94,1.54-2.07,2.97-3.09,4.46-.63,.92-.48,1.44,.75,1.46,1.07,.01,2.14,.07,3.2,.18,3.48,.37,6.88,1.2,10.49,.83,3.9-.4,3.44,.16,2.94-3.75-.27-2.1-.83-2.46-2.91-1.87Z"/>
        <path class="cls-2" d="M52.94,37.97c-.3-.87-.91-1.13-1.76-.87-.44,.13-.86,.36-1.3,.49-1.61,.47-2.09,.2-2.38-1.43-.66-3.69-1.28-7.39-1.93-11.09-.27-1.58-.54-3.15-.84-4.72-.36-1.91-.49-3.86-1.15-5.7-.15-.42-.15-1.02-.93-.98-1.47,.07-2.94,.26-4.08,1.19-1.31,1.07-2.74,1.91-4.18,2.76-.71,.43-.89,.91-.8,1.71,.33,3.09,.3,3.09,3.34,2.5,.09-.02,.18-.02,.28-.04,1.76-.28,1.97-.1,2.14,1.7,.35,3.79,1.27,7.48,1.87,11.23,.15,.9,.64,1.74,.81,2.64,.28,1.46-.16,1.93-1.66,2.01-.79,.04-1.57,.12-2.36,.2-.82,.09-1.2,.4-1.05,1.37,.14,.92,.49,1.8,.53,2.71,.06,1.3,.58,1.78,1.38,1.53,4.19-.47,7.9-1.05,11.57-1.83,3.77-.8,4-1.29,2.64-4.99-.05-.13-.12-.25-.16-.38Z"/>
      </g>
    </g>
  </g>
</svg>