<?xml version="1.0" encoding="UTF-8"?>
<svg id="Layer_2" data-name="Layer 2" xmlns="http://www.w3.org/2000/svg" xmlns:xlink="http://www.w3.org/1999/xlink" viewBox="0 0 63.09 60.96">
  <defs>
    <style>
      .cls-1 {
        fill: #fff;
      }

      .cls-2 {
        fill: #020202;
      }

      .cls-3 {
        filter: url(#drop-shadow-1);
      }

      .cls-4 {
        fill: #b1adad;
      }
    </style>
    <filter id="drop-shadow-1" filterUnits="userSpaceOnUse">
      <feOffset dx="1.42" dy="1.42"/>
      <feGaussianBlur result="blur" stdDeviation="5"/>
      <feFlood flood-color="#231916" flood-opacity=".5"/>
      <feComposite in2="blur" operator="in"/>
      <feComposite in="SourceGraphic"/>
    </filter>
  </defs>
  <g id="bg">
    <g id="_39" data-name="39">
      <g class="cls-3">
        <path class="cls-1" d="M57.67,46.85c3.49-5.3,5.24-11.08,5.41-15.94-.09-6.75-1.2-11.8-3.73-16.52-1.19-2.22-2.63-4.07-5.37-4.28-1.92-.14-3.78-.63-5.52-1.29-4.01-1.53-8.05-2.92-12.2-3.99-.9-.23-1.81-.19-2.72-.45-2.83-.8-5.52-1.92-8.09-3.32-2.97-1.61-5.76-1.37-8.47,.58-.41,.3-.86,.55-1.31,.8C9.23,6.03,4.77,11.39,2.2,18.2c-3.63,9.63-2.76,19,2.56,27.8,7.48,12.38,21.29,17.51,35.04,13.75,7.55-2.06,13.53-6.32,17.87-12.9Zm-25.58-23.21c-.4,4.39-2.67,7.84-5.49,11.01-.99,1.11-2.07,2.13-3.06,3.24-.27,.3-.8,.66-.46,1.18,.27,.41,.77,.27,1.17,.2,2.13-.36,4.27-.06,6.4-.14,.73-.03,1.15,.28,1.1,1.08-.07,1.11-.11,2.23-.2,3.34-.07,.9-.38,1.44-1.5,1.28-1.09-.16-2.22-.03-3.34-.03-3.99-.24-7.95-.94-11.95-.9-.94,0-1.32-.48-1.27-1.41,.07-1.49,.5-2.7,1.69-3.78,2.82-2.56,5.54-5.23,8.03-8.13,1.69-1.97,2.91-4.18,3.32-6.77,.17-1.03,.04-2.03-.43-2.99-.84-1.72-2.9-2.42-4.6-1.49-.97,.53-2.02,.96-2.69,1.93-.13,.18-.34,.41-.53,.42-1.56,.09-1.86-1.47-2.78-2.21-.57-.46-.4-1.1-.02-1.62,2.28-3.17,7.23-4.87,10.96-3.78,3.78,1.11,6.07,5.01,5.66,9.59Zm.77,20.69c-.27-1.09-.6-2.3,.34-3.31,1.92-2.08,3.85-4.15,5.77-6.23,1.83-1.98,3.74-3.91,4.83-6.42,.73-1.69,1.47-3.38,1.28-5.31-.26-2.62-2.7-3.91-5.05-2.64-.94,.51-1.89,1.02-2.55,1.89-.43,.57-.81,.53-1.21,0-.03-.04-.05-.08-.08-.12-.59-1.01-2.17-1.85-1.69-2.98,.67-1.58,2.03-2.85,3.71-3.6h0c1.78-.53,3.45-1.57,5.44-1.14,.35,.07,.74-.03,1.01,.31,2.53,.63,4.17,2.31,5.31,4.55,2.15,4.24,.84,8.08-1.44,11.78-1.44,2.34-3.18,4.46-5.15,6.38-.2,.19-.41,.39-.56,.61-.4,.6-1.25,1.17-.88,1.9,.29,.56,1.18,.19,1.8,.19,1.95,0,3.9-.04,5.85-.09,.61-.01,1.22,.09,1.33,.73,.25,1.46,.43,2.94-.32,4.33-.28,.51-.68,.68-1.26,.65-4.86-.27-9.72-.53-14.57-.78-.72-.04-1.68,.21-1.9-.72Z"/>
        <path class="cls-2" d="M26.43,14.05c-3.74-1.09-8.68,.6-10.96,3.78-.38,.53-.55,1.17,.02,1.62,.93,.74,1.22,2.3,2.78,2.21,.19-.01,.41-.24,.53-.42,.67-.97,1.72-1.4,2.69-1.93,1.69-.93,3.75-.23,4.6,1.49,.47,.95,.59,1.96,.43,2.99-.42,2.59-1.64,4.79-3.32,6.77-2.48,2.9-5.21,5.57-8.03,8.13-1.19,1.08-1.61,2.29-1.69,3.78-.05,.93,.33,1.42,1.27,1.41,4-.04,7.96,.66,11.95,.9,1.11,0,2.25-.12,3.34,.03,1.13,.16,1.43-.38,1.5-1.28,.09-1.11,.13-2.22,.2-3.34,.05-.79-.37-1.1-1.1-1.08-2.13,.08-4.27-.22-6.4,.14-.4,.07-.9,.21-1.17-.2-.34-.52,.19-.87,.46-1.18,.99-1.11,2.07-2.13,3.06-3.24,2.82-3.17,5.09-6.62,5.49-11.01,.42-4.58-1.87-8.48-5.66-9.59Z"/>
        <path class="cls-2" d="M50.59,45.18c.76-1.4,.57-2.88,.32-4.33-.11-.64-.72-.75-1.33-.73-1.95,.05-3.9,.08-5.85,.09-.62,0-1.52,.37-1.8-.19-.37-.73,.48-1.3,.88-1.9,.15-.23,.37-.42,.56-.61,1.97-1.92,3.7-4.04,5.15-6.38,2.28-3.7,3.6-7.54,1.44-11.78-1.14-2.24-2.78-3.91-5.31-4.55-.69-.02-1.39-.05-2.08-.04-.29,0-.74-.14-.8,.3-.07,.45,.32,.63,.7,.7,.54,.11,1.09,.2,1.64,.3,1.04,.18,1.77,.85,2.8,1.65-1.61-.17-2.83-.19-4.1-.89-1.36-.76-2.94-1.3-4.61-1.18h0c-1.68,.75-3.04,2.02-3.71,3.6-.48,1.13,1.1,1.97,1.69,2.98,.02,.04,.05,.08,.08,.12,.4,.54,.79,.57,1.21,0,.66-.88,1.61-1.38,2.55-1.89,2.35-1.27,4.79,.02,5.05,2.64,.19,1.93-.55,3.63-1.28,5.31-1.09,2.52-3,4.45-4.83,6.42-1.92,2.08-3.85,4.15-5.77,6.23-.93,1.01-.61,2.22-.34,3.31,.23,.93,1.19,.68,1.9,.72,4.86,.26,9.72,.51,14.57,.78,.58,.03,.98-.14,1.26-.65Z"/>
        <path class="cls-4" d="M43.12,16.48c.92,.45,1.83,.74,2.74,.81-.93-.51-1.97-.97-3.12-1.13-.36-.05-.71-.21-.96-.51-.18-.22-.32-.47-.2-.76,.11-.27,.38-.22,.6-.21,.82,.03,1.66-.12,2.47,.1-.27-.34-.66-.23-1.01-.31-1.99-.43-3.66,.61-5.44,1.14h0c1.77-.42,3.39,.11,4.92,.87Z"/>
        <path class="cls-4" d="M42.81,16.79c1.26,.7,2.49,.72,4.1,.89-1.03-.8-1.76-1.47-2.8-1.65-.55-.1-1.1-.19-1.64-.3-.38-.08-.77-.26-.7-.7,.07-.43,.51-.29,.8-.3,.69,0,1.39,.03,2.08,.04-.82-.22-1.65-.07-2.47-.1-.22,0-.49-.06-.6,.21-.12,.29,.02,.54,.2,.76,.25,.3,.6,.46,.96,.51,1.15,.16,2.19,.62,3.12,1.13-.91-.07-1.82-.36-2.74-.81-1.54-.76-3.16-1.29-4.92-.87,1.67-.11,3.25,.43,4.61,1.18Z"/>
      </g>
    </g>
  </g>
</svg>