<?xml version="1.0" encoding="UTF-8"?>
<svg id="Layer_2" data-name="Layer 2" xmlns="http://www.w3.org/2000/svg" xmlns:xlink="http://www.w3.org/1999/xlink" viewBox="0 0 65.27 62.79">
  <defs>
    <style>
      .cls-1 {
        fill: #030202;
      }

      .cls-2 {
        fill: #fff;
      }

      .cls-3 {
        fill: #020202;
      }

      .cls-4 {
        fill: #111212;
      }

      .cls-5 {
        filter: url(#drop-shadow-1);
      }

      .cls-6 {
        fill: #2c2c2c;
      }

      .cls-7 {
        fill: #c9c5c6;
      }

      .cls-8 {
        fill: #969292;
      }
    </style>
    <filter id="drop-shadow-1" filterUnits="userSpaceOnUse">
      <feOffset dx="1.42" dy="1.42"/>
      <feGaussianBlur result="blur" stdDeviation="5"/>
      <feFlood flood-color="#231916" flood-opacity=".5"/>
      <feComposite in2="blur" operator="in"/>
      <feComposite in="SourceGraphic"/>
    </filter>
  </defs>
  <g id="bg">
    <g id="_39" data-name="39">
      <g class="cls-5">
        <path class="cls-2" d="M42.67,1.1c-4.7-1.33-9.52-1.45-14.32-.39-7.6,1.68-13.67,5.73-18.47,11.82-1.77,2.25-2.86,4.86-4.22,7.34-.84,3.04-1.84,6.05-1.76,9.28,.02,.89,.27,1.51,1.11,1.85,.56,.23,.97,.65,1.34,1.11,.45,.54,1.02,.7,1.7,.61,2.52-.36,4.59,.6,6.5,2.16,.78,.64,1.55,1.48,2.73,1.45,.09,0,.24,.01,.27,.07,1.36,2.21,1.98,.17,2.7-.53,2.24-2.17,4.58-4.26,6.04-7.11,.63-1.23,1.06-2.52,1.03-3.91-.06-2.32-1.4-4.07-3.48-4.65-.3-.08-.44,.09-.64,.21-1.39,.8-2.88,1.42-3.9,2.77-.39,.51-.76,.58-1.19-.16-.45-.79-1.17-1.43-1.78-2.12-.54-.61-.61-1.21,0-1.8,2.29-2.18,4.85-3.62,8.17-3.66,4.68-.07,7.61,3.33,8.23,7.46,.7,4.67-1.36,8.32-3.9,11.85-.91,1.26-1.97,2.41-3.18,3.41-.57,.47-1.11,.72-1.56-.06-.92-1.6-2.02-1.09-3.16-.33h0c-.31,.65-.87,1.27-.26,2.03,.96-.17,1.61,.36,1.95,1.11,.25,.56-.38,.77-.83,.94-.2,.2-.4,.39-.6,.59-.17,.26-.29,.72-.05,.77,.7,.17,1.44,.18,2.14-.15,.37-.17,.3-.34,.13-.66-.22-.42-.38-1.01,.02-1.37,.46-.41,.89,.13,1.33,.28,1.28,.44,1.94,1.88,3.43,2.07,.24,.03,.24,.94,1,1.27,.84,.35,1.32,.89,2.02-.15,.29-.43,.79-.26,.91,.36,.07,.41,.6,.93-.3,1.08-.42,.07-.88,.07-1.2,.45-.76,.88-.75,.87-1.25,0-.14-.25-.34-.52-.69-.41-.43,.14-.4,.5-.32,.84,.07,.33,.62,.38,.42,1.01-2.22,.09-4.5,.5-6.8,.79-2.61,.32-5.24,.45-7.84,.82-1.37,.2-1.77-.53-1.98-1.55-.33-1.66,1.23-5.21,2.8-5.52,1.06-.21,1.68-1.14,2.73-1.11,.39-.56,1.33,0,1.62-.85-.24-.74-1.91,.27-1.58-1.22h0s0,0,0,0c-.51-1.41-1.8-1.83-3.01-2.21-2.09-.65-4.34-.34-6.45-.93-.6-.17-1.31-.05-1.86-.31-2.07-.96-3.92-.13-5.8,.58-.55,.21-.55,.73-.59,1.23-.11,1.39,.39,2.68,.64,4.01,.49,1.27,.93,2.56,1.48,3.8,2.26,5.09,5.42,9.5,10.17,12.53,3.08,1.96,6.37,3.46,10.11,3.92,2.28,.28,4.5,.67,6.81,.28,1.17-.2,2.43-.61,3.6,.28,.35,.26,.94,.21,1.42,.27,3.89,.46,7.65-.34,11.14-1.84,10.95-4.69,17.57-12.97,19.48-24.78,1.31-8.12-.71-15.6-5.18-22.38-4.11-6.23-9.82-10.52-17.03-12.56Zm-10.59,41.4c-1.04-.57-2.08-.25-3.12-.3-.62-.03-1.27-.14-1.25-.88,.02-.75,.74-.61,1.25-.62,1.02-.02,2.03-.03,3.05-.03,.61,0,1.04,.22,1.02,.96-.11,.49-.26,1.23-.95,.86Zm20.15-18.38c-4.3,4.5-6.18,10.03-7.03,16.05-.3,2.12-.67,4.23-.77,6.37-.04,.74-.33,1.13-1.21,1.03-1.31-.15-2.63-.17-3.95-.18-.8,0-1.17-.26-1.09-1.12,.66-6.89,1.92-13.59,5.86-19.49,.57-.85,1.26-1.61,1.89-2.42,.59-.76,.47-1.24-.55-1.36-1.07-.12-2.14-.21-3.13-.06-2.13,0-4.16-.5-6.21-.32-.55,.05-.79-.18-.77-.76,.04-1.32,.06-2.64,.05-3.96,0-.76,.32-1.05,1.07-1,4.24,.25,8.48,.49,12.72,.73,1.12,.06,2.24,.17,3.36,.19,.98,.02,1.39,.44,1.4,1.43,.02,1.82-.33,3.51-1.62,4.86Z"/>
        <path class="cls-3" d="M18.14,37.15c.47,.61,1.1,2.37,1.66,1.78,1.17-1.21,1.57-3.32,4.36-1.33,.13,.1,.28,.41,.47,.49,.16,.07,.5-.06,.63,.05,.59,.51,4.02-4.39,4.58-5.11,1.21-1.56,2.53-5.62,2.79-7.6,.26-2.01-1.37-6.74-3.09-8.03-1.7-1.27-5.33-2.16-7.35-1.55-.23,.07-2.52,.99-2.71,1.13-1.83,1.37-3.36,2.49-3.29,2.78,.05,.19,.97,.87,.87,.7-.31-.53-.63-.84-.19-1.28,2.01-1.99,4.33-3.29,7.25-3.35,3.09-.06,5.39,1.26,6.95,4.03,1.08,1.91,1.52,3.74,1.28,5.83-.55,4.86-3.28,8.56-6.68,11.85-.51,.49-.95,.5-1.51-.01-1.36-1.24-1.45-1.64-3.05-.41-.05,.09-.58,.62-.63,.71,.14-.03,.3-.06,.42-.09h0c1.15-.76,2.25-1.27,3.16,.33,.45,.79,.99,.53,1.56,.06,1.21-1,2.27-2.15,3.18-3.41,2.54-3.53,4.6-7.18,3.9-11.85-.62-4.13-3.55-7.53-8.23-7.46-3.32,.05-5.88,1.48-8.17,3.66-.61,.59-.54,1.19,0,1.8,.61,.69,1.33,1.33,1.78,2.12,.43,.74,.8,.67,1.19,.16,1.02-1.34,2.51-1.97,3.9-2.77,.2-.12,.34-.29,.64-.21,2.07,.58,3.42,2.33,3.48,4.65,.04,1.4-.4,2.68-1.03,3.91-1.45,2.84-3.79,4.94-6.04,7.11"/>
        <path class="cls-3" d="M52.45,17.83c-1.12-.02-2.24-.12-3.36-.19-4.24-.24-8.48-.48-12.72-.73-.74-.04-1.08,.24-1.07,1,.01,1.32,0,2.64-.05,3.96-.02,.58,.23,.81,.77,.76,2.06-.18,4.08,.31,6.21,.32,.99-.15,2.06-.07,3.13,.06,1.02,.12,1.14,.61,.55,1.36-.63,.81-1.32,1.57-1.89,2.42-3.93,5.9-5.19,12.6-5.86,19.49-.08,.85,.29,1.11,1.09,1.12,1.32,0,2.64,.03,3.95,.18,.88,.1,1.18-.29,1.21-1.03,.1-2.14,.47-4.25,.77-6.37,.85-6.02,2.73-11.55,7.03-16.05,1.29-1.35,1.64-3.04,1.62-4.86-.01-.99-.42-1.42-1.4-1.43Z"/>
        <path class="cls-1" d="M18.92,41.26c-.11,.04-.24,.07-.36,.1-.24,.05-.47,.13-.7,.21-1.83,.88-3.79,1.54-4.8,3.56-.39,.78-.6,1.54-.49,2.39,.16,1.16,.72,1.56,1.9,1.49,4.28-.27,8.49-1.17,12.77-1.37,.6-.03,.89-.26,.82-.91-.07-.66,.41-1.26,.92-.85,1.32,1.07,1.79-.25,2.65-.68-1.74,.78-2.66-.21-3.78-1.31-.86-.85-2.03-1.47-3.1-2.13-.65-.4-.9-.1-1.01,.64-.17,1.11-1.65,1.7-2.6,1.13-.47-.29-.51-.67-.26-1.12,.05-.06,.11-.11,.16-.17-.56-.76-1.32-.95-2.13-.97Zm5.92,1.37c.75,.14,1.19,.51,1.12,1.25-.03,.32-.41,.51-.65,.36-.59-.37-.63-.96-.48-1.61Z"/>
        <path class="cls-1" d="M20.88,42.4c-.25,.45-.21,.84,.26,1.12,.95,.57,2.44-.02,2.6-1.13,.11-.74,.36-1.04,1.01-.64,1.07,.66,2.24,1.28,3.1,2.13,1.11,1.1,2.04,2.09,3.78,1.31-.85,.43-1.33,1.75-2.65,.68-.5-.41-.98,.18-.92,.85,.07,.65-.22,.88-.82,.91-4.28,.2-8.49,1.1-12.77,1.37-1.18,.08-1.74-.32-1.9-1.49-.12-.85,.1-1.61,.49-2.39,1.01-2.02,2.97-2.69,4.8-3.56,.23-.08,.46-.16,.7-.21,.12-.03,.24-.06,.36-.1-.4-.01-.82,0-1.22,0-1.05-.03-1.67,.9-2.73,1.11-1.57,.31-3.14,3.85-2.8,5.52,.21,1.02,.61,1.74,1.98,1.55,2.6-.38,5.24-.5,7.84-.82,2.3-.28,4.58-.7,6.8-.79,.2-.63-.35-.68-.42-1.01-.08-.35-.11-.71,.32-.84,.35-.11,.54,.16,.69,.41,.49,.87,.49,.88,1.25,0,.32-.38,.78-.38,1.2-.45,.9-.15,.37-.68,.3-1.08-.11-.62-.62-.79-.91-.36-.7,1.05-1.18,.51-2.02,.15-.77-.32-.76-1.24-1-1.27-1.49-.19-2.15-1.63-3.43-2.07-.44-.15-.87-.69-1.33-.28-.4,.36-.23,.94-.02,1.37,.16,.32,.24,.49-.13,.66-.7,.33-1.44,.31-2.14,.15-.24-.06-.12-.52,.05-.77-.05-.08-.1-.13-.15-.2-.05,.06-.11,.11-.16,.17Z"/>
        <path class="cls-4" d="M32,40.68c-1.02,0-2.03,0-3.05,.03-.51,.01-1.22-.13-1.25,.62-.02,.74,.63,.85,1.25,.88,1.04,.05,2.07-.27,3.12,.3,.68,.37,.83-.37,.95-.86,.02-.75-.4-.96-1.02-.96Z"/>
        <path class="cls-8" d="M18.25,39.42c.1,.13,.23,.22,.43,.28,.41,.12,.93,.2,.9,.78-.02,.26-.13,.43-.29,.56,.27,0,.54,.01,.8,.09,.49,.14,.99,.39,1.09,.95,.14-.14,.29-.27,.43-.41,.02-.02,.03-.03,.05-.05-.22-.45-.27-1.09-1.09-.92-.24,.05-.61,.15-.58-.36,.02-.34,.2-.47,.43-.53-.29-.36-.36-.7-.31-1.02-.55,1-.76,1.08-1.86,.62Z"/>
        <path class="cls-8" d="M20.35,38.37c-.09,.16-.16,.3-.23,.43-.05,.33,.02,.66,.31,1.02,.08-.02,.16-.03,.24-.04h0c-.61-.77-.05-1.38,.26-2.03h0c-.23,.17-.44,.35-.58,.62Z"/>
        <path class="cls-8" d="M19.57,40.48c.03-.58-.49-.66-.9-.78-.2-.06-.33-.15-.43-.28-.16-.06-.33-.14-.52-.22h0c-.33,1.49,1.35,.48,1.58,1.22-.29,.84-1.23,.29-1.62,.85,.53-.1,1.07-.21,1.6-.22,.16-.13,.27-.3,.29-.56Z"/>
        <path class="cls-8" d="M21.61,41.68c-.14,.14-.29,.27-.43,.41,.02,.1,.03,.21,.01,.34,.2-.2,.4-.39,.6-.59-.05-.06-.1-.13-.14-.21-.02,.02-.03,.03-.05,.05Z"/>
        <path class="cls-8" d="M20.11,38.8c.05-.33,.21-.64,.4-.96-.12,.03-.22,.06-.23,.11-.26,1.37-1.18,1.36-2.13,1.28,.03,.07,.06,.13,.11,.18,1.1,.45,1.31,.38,1.86-.62Z"/>
        <path class="cls-8" d="M18.14,39.24c-.14-.01-.28-.03-.42-.04,.2,.08,.37,.16,.52,.22-.04-.06-.08-.12-.11-.18Z"/>
        <path class="cls-8" d="M20.11,38.8c.07-.13,.15-.27,.23-.43,.14-.27,.35-.45,.58-.62-.12,.03-.28,.06-.42,.09-.19,.31-.35,.63-.4,.96Z"/>
        <path class="cls-8" d="M20.09,41.14c-.26-.08-.53-.09-.8-.09-.11,.09-.23,.16-.37,.22,.81,.03,1.56,.21,2.13,.97,.05-.05,.09-.1,.14-.14-.1-.56-.6-.81-1.09-.95Z"/>
        <path class="cls-8" d="M18.92,41.26c.14-.05,.27-.13,.37-.22-.53,0-1.07,.12-1.6,.22,.41,0,.82-.02,1.22,0Z"/>
        <path class="cls-8" d="M21.04,42.23c.05,.07,.1,.12,.15,.2,.01-.13,0-.24-.01-.34-.05,.04-.09,.09-.14,.14Z"/>
        <path class="cls-6" d="M20.98,40.47c.51,.19,.78,.54,.82,1.02,.35-.43,.27-.82-.32-1.16-.27-.15-.58-.21-.85-.36-.03,.23,.07,.39,.35,.5Z"/>
        <path class="cls-6" d="M20.63,39.97c.27,.15,.58,.21,.85,.36,.59,.34,.67,.73,.32,1.16,0,.11,.02,.23,0,.36,.45-.17,1.08-.38,.83-.94-.34-.75-.99-1.29-1.95-1.11h0c-.02,.07-.03,.13-.04,.18Z"/>
        <path class="cls-6" d="M19.99,40.35c-.03,.51,.34,.41,.58,.36,.83-.17,.87,.47,1.09,.92,.05-.05,.1-.1,.14-.15-.04-.48-.31-.83-.82-1.02-.28-.11-.38-.27-.35-.5-.06-.04-.13-.07-.19-.12,0,0,0-.02-.02-.02-.24,.06-.41,.19-.43,.53Z"/>
        <path class="cls-6" d="M20.43,39.82s0,.02,.02,.02c.06,.05,.12,.09,.19,.12,0-.06,.02-.12,.04-.18h0c-.09,0-.17,.02-.24,.04Z"/>
        <path class="cls-6" d="M21.66,41.63c.04,.08,.08,.15,.14,.21,.02-.13,.01-.24,0-.36-.04,.05-.09,.1-.14,.15Z"/>
        <path class="cls-7" d="M25.31,44.24c.24,.15,.62-.04,.65-.36,.07-.74-.37-1.11-1.12-1.25-.16,.65-.11,1.24,.48,1.61Z"/>
      </g>
    </g>
  </g>
</svg>