<?xml version="1.0" encoding="UTF-8"?>
<svg id="Layer_2" data-name="Layer 2" xmlns="http://www.w3.org/2000/svg" xmlns:xlink="http://www.w3.org/1999/xlink" viewBox="0 0 61.99 60.16">
  <defs>
    <style>
      .cls-1 {
        fill: #fff;
      }

      .cls-2 {
        fill: #020202;
      }

      .cls-3 {
        filter: url(#drop-shadow-1);
      }
    </style>
    <filter id="drop-shadow-1" filterUnits="userSpaceOnUse">
      <feOffset dx="1.42" dy="1.42"/>
      <feGaussianBlur result="blur" stdDeviation="5"/>
      <feFlood flood-color="#231916" flood-opacity=".5"/>
      <feComposite in2="blur" operator="in"/>
      <feComposite in="SourceGraphic"/>
    </filter>
  </defs>
  <g id="bg">
    <g id="_39" data-name="39">
      <g class="cls-3">
        <path class="cls-1" d="M59.58,19.58C54.82,8.2,46.15,1.53,33.73,.2c-7.89-.85-15.08,1.05-21.44,5.89C4.11,12.31,.14,20.6,0,30.82c.07,1.27,.07,2.54,.24,3.8,.58,4.38,1.48,8.63,4.42,12.2,4.48,5.45,10.26,8.93,16.8,11.22,4.72,1.66,9.62,2.31,14.63,2.07,5.25-.25,10.09-1.75,14.2-5.04,10.46-8.38,14.82-22.28,9.29-35.48Zm-29.95,21.41c-.17,1.27-.88,2.36-1.05,3.63-.12,.83-.98,.69-1.59,.53-2.16-.57-4.32-1.14-6.45-1.8-3.02-.92-6.01-1.93-9.03-2.86-.43-.13-.67-.26-.72-.74-.13-1.29,.82-3.28,1.94-3.84,3.54-1.77,6.87-3.89,10.12-6.14,2.15-1.5,3.93-3.33,4.85-5.89,.73-2.01,.6-3.44-.55-4.47-1.2-1.08-3.11-1.23-4.79-.37q-2.43,1.25-3.76-1.13c-1.01-1.82-.99-1.91,.84-2.86,1.82-.95,3.66-1.89,5.84-1.7,3.41,.29,6.37,1.34,7.94,4.74,1.11,2.38,.79,4.86-.03,7.12-1.96,5.38-6.12,8.78-10.99,11.44-.17,.09-.35,.17-.52,.27-.3,.17-.69,.37-.65,.72,.06,.53,.59,.39,.94,.44,2.36,.39,4.66,1.02,6.94,1.74,.6,.19,.81,.43,.72,1.14Zm21.94-9.79c-.47,4.32-1.91,8.33-4.23,12-1.3,2.05-2.86,3.79-5.07,4.93-4.38,2.26-10.03,.14-11.75-4.46-.05-.14-.13-.27-.15-.41-.14-.78,3.07-3.35,3.81-3.06,.37,.14,.39,.52,.54,.81,1.78,3.34,5.36,3.52,7.44,.33,.81-1.24,1.78-2.44,2.01-4.07-.54-.14-.85,.02-1.13,.2-3.66,2.24-9.5-.92-9.15-6.68,.21-3.44,1.23-6.7,3.6-9.39,3.14-3.56,9.16-3.57,11.96,.2,2.08,2.81,2.5,6.18,2.12,9.59Z"/>
        <path class="cls-2" d="M37.49,21.4c-2.37,2.69-3.39,5.95-3.6,9.39-.35,5.76,5.49,8.91,9.15,6.68,.29-.17,.59-.34,1.13-.2-.24,1.63-1.2,2.83-2.01,4.07-2.07,3.18-5.66,3.01-7.44-.33-.16-.3-.18-.67-.54-.81-.75-.29-3.95,2.29-3.81,3.06,.02,.14,.1,.27,.15,.41,1.71,4.61,7.36,6.72,11.75,4.46,2.21-1.14,3.78-2.88,5.07-4.93,2.33-3.68,3.76-7.69,4.23-12,.37-3.41-.04-6.79-2.12-9.59-2.79-3.77-8.82-3.76-11.96-.2Zm3.94,12.26c-1.2-.13-1.91-.81-2.08-2.03-.39-2.71,.65-4.95,2.37-6.92,1.01-1.16,2.48-1.11,3.53,.03,.8,.87,1.11,1.94,1.09,3.81-.03,3.57-1.83,5.45-4.91,5.12Z"/>
        <path class="cls-2" d="M28.91,39.85c-2.28-.72-4.58-1.35-6.94-1.74-.35-.06-.89,.09-.94-.44-.04-.35,.35-.55,.65-.72,.17-.1,.35-.18,.52-.27,4.87-2.66,9.04-6.06,10.99-11.44,.82-2.27,1.14-4.74,.03-7.12-1.58-3.4-4.54-4.45-7.94-4.74-2.18-.18-4.01,.76-5.84,1.7-1.84,.95-1.85,1.04-.84,2.86q1.32,2.37,3.76,1.13c1.68-.86,3.59-.71,4.79,.37,1.15,1.03,1.27,2.45,.55,4.47-.92,2.56-2.7,4.39-4.85,5.89-3.24,2.26-6.58,4.37-10.12,6.14-1.12,.56-2.07,2.55-1.94,3.84,.05,.48,.29,.6,.72,.74,3.02,.93,6.01,1.94,9.03,2.86,2.13,.65,4.29,1.23,6.45,1.8,.6,.16,1.47,.3,1.59-.53,.18-1.28,.88-2.36,1.05-3.63,.1-.71-.12-.95-.72-1.14Z"/>
        <path class="cls-1" d="M41.71,24.71c-1.72,1.98-2.76,4.21-2.37,6.92,.17,1.22,.88,1.9,2.08,2.03,3.09,.33,4.89-1.55,4.91-5.12,.01-1.87-.29-2.94-1.09-3.81-1.05-1.14-2.52-1.19-3.53-.03Z"/>
      </g>
    </g>
  </g>
</svg>