<?xml version="1.0" encoding="UTF-8"?>
<svg id="Layer_2" data-name="Layer 2" xmlns="http://www.w3.org/2000/svg" xmlns:xlink="http://www.w3.org/1999/xlink" viewBox="0 0 61.71 53.91">
  <defs>
    <style>
      .cls-1 {
        fill: #020203;
      }

      .cls-2 {
        fill: #020202;
      }

      .cls-3 {
        filter: url(#drop-shadow-1);
      }

      .cls-4 {
        fill: #e0dee0;
      }

      .cls-5 {
        fill: #fffdff;
      }
    </style>
    <filter id="drop-shadow-1" filterUnits="userSpaceOnUse">
      <feOffset dx="1.42" dy="1.42"/>
      <feGaussianBlur result="blur" stdDeviation="5"/>
      <feFlood flood-color="#231916" flood-opacity=".5"/>
      <feComposite in2="blur" operator="in"/>
      <feComposite in="SourceGraphic"/>
    </filter>
  </defs>
  <g id="bg">
    <g id="_39" data-name="39">
      <g class="cls-3">
        <path class="cls-1" d="M27.59,23.39s-.02-.04-.03-.06c-.01,.02-.02,.03-.04,.05,.02,0,.04,0,.06,.01Z"/>
        <path class="cls-5" d="M10.74,46.21c4.89,4.21,10.38,6.93,16.79,7.53,12.17,1.13,22.01-3.27,28.91-13.33,5.51-8.04,6.79-16.94,3.42-26.26-1.34-3.69-3.57-6.64-7.72-7.44-2.29-.44-4.61-.83-6.93-.99-3.6-.26-7.09-1.18-10.66-1.62-4.04-.51-8.04-1.42-12.07-2.04-3.79-.59-7.62-.97-11.37-1.78-.82-.18-1.72-.59-2.47,.22,2.36,.75,3.35,3.16,5.35,4.35,1.24,.75,2.43,1.59,3.67,2.35,.49,.3,1.03,.49,1.35,1.05,.33,.57,.86,.74,1.5,.4,1.03-.55,1.63-.13,1.92,.91,3.62,.64,6.08,2.67,7.01,7.02,.41,1.91,.8,3.12-1.87,6.76,0,.02,.02,.04,.03,.06,1.44,.27,2.78,.53,3.88,1.58,3.81,3.64,4.81,10.99-1.86,14.51-3.84,2.03-7.61,1.66-11.38-.15-.92-.44-1.34-1.05-.95-2.11,.34-.91,.53-1.87,.82-2.81,.25-.81,.63-1.09,1.5-.58,1.39,.81,2.87,1.39,4.55,1.37,2.3-.02,4.35-1.66,4.06-3.6-.34-2.32-1.6-4.04-3.96-3.74-.96,.12-2,.02-2.89,.34-1.42,.52-1.97-.11-2.33-1.29-.23-.79-.47-1.58-.68-2.37-.19-.71,.15-1.11,.81-1.31,1.04-.31,2-.77,2.84-1.46,1.71-1.41,1.93-3.67,.51-5.38-.96-1.15-2.67-1.23-3.9-.12-.95,.86-1.78,1.83-2.34,2.98-.45,.92-.99,.97-1.72,.39-.88-.69-1.76-1.38-2.63-2.08-.68-.55-.51-1.25-.15-1.85,.55-.92,1.2-1.77,1.81-2.65,.1-.37,.15-.76,.3-1.1,.65-1.49,.43-2.25-1.14-2.67-1.48-.39-2.04-1.25-2.09-2.66-.04-1.03-1.24-1.75-.75-2.98,.11-.27-.63-.47-1.06-.54-.68-.11-1.38-.2-1.76-.91C4.32,5.57,2.59,9.45,1.4,13.61-.03,18.63-.5,23.8,.62,28.82c1.5,6.77,4.71,12.72,10.12,17.38Zm21.33-25.82c-.61-2.35-1.1-4.74-1.37-7.16-.22-1.95-.13-2.09,1.91-2.08,.24,0,.49-.06,.73-.03,.97,.12,2-.28,2.89,.18,1.17,.59,.25,1.72,.45,2.59,1.15,4.85,2.72,9.54,4.83,14.05,.02,.04,.02,.1,.05,.14,.72,.92,1.52,2.13,2.75,1.8,1.24-.33,1.53-1.72,1.41-2.93-.55-5.44-2.1-10.57-5.16-15.15-.53-.8-.75-1.18,.43-1.39,1.34-.24,2.65-.6,3.99-.89,.68-.15,1.26,.01,1.64,.66,2.7,4.61,5.02,9.34,4.95,14.39,.16,2.5,.04,4.5-.85,6.35-2.66,5.5-9.25,6.24-13.06,1.42-2.79-3.52-4.46-7.62-5.58-11.94Z"/>
        <path class="cls-4" d="M10.36,4.36c.11,1.19,.75,2.29,1.02,3.47,.11,.46,.54,.65,.95,.84,2.57,1.22,2.65,1.37,1.73,3.96,1.68-1.54,3.6-2.59,5.92-2.98,.76-.13,1.51-.06,2.26-.1-.55-.54-1.16-.89-2.04-.5-.32,.14-.71,.04-.97-.19-2.46-2.22-5.82-3.25-7.9-5.94-.78-1-2.08-1.34-2.71-2.45-.83,.29-1.19,1-1.54,1.72,.56,.11,1.01,.47,1.62,.51,.94,.06,1.54,.51,1.65,1.65Z"/>
        <path class="cls-4" d="M11.33,2.94c2.07,2.68,5.44,3.72,7.9,5.94,.26,.23,.65,.33,.97,.19,.88-.39,1.49-.04,2.04,.5,.06,0,.12,0,.18,0-.29-1.05-.89-1.46-1.92-.91-.64,.34-1.17,.17-1.5-.4-.33-.56-.86-.75-1.35-1.05-1.23-.76-2.42-1.6-3.67-2.35-2-1.2-2.99-3.61-5.35-4.35,.63,1.11,1.93,1.45,2.71,2.45Z"/>
        <path class="cls-4" d="M8.85,3.12c.44,.07,1.17,.27,1.06,.54-.49,1.23,.71,1.96,.75,2.98,.06,1.41,.61,2.27,2.09,2.66,1.57,.41,1.79,1.18,1.14,2.67-.15,.35-.2,.73-.3,1.1,.15-.15,.31-.29,.46-.43,.92-2.59,.84-2.74-1.73-3.96-.41-.19-.84-.38-.95-.84-.27-1.18-.91-2.28-1.02-3.47-.1-1.14-.7-1.59-1.65-1.65-.62-.04-1.07-.4-1.62-.51,.38,.71,1.08,.8,1.76,.91Z"/>
        <path class="cls-2" d="M27.91,22.06c2.06-3.62,1.49-7.43-1.54-10.31-1.1-1.04-2.6-1.28-3.89-1.95-.05-.06-.11-.11-.16-.17-.66,.55-1.51,.35-2.25,.48-1.98,.32-3.74,1.05-5.21,2.44-.27,.25-.54,.58-.93,.58,0,0,0,.01,0,.02-.38,.86-1.03,1.54-1.51,2.34-.5,.83-.51,1.54,.33,2.17,2.97,2.24,2.26,2.62,4.51-.48,.23-.32,.46-.64,.75-.89,1.06-.89,2.24-1.5,3.63-.99,1.4,.52,1.92,1.74,2.04,3.13,.2,2.27-.47,3.36-2.72,4.49-2.4,1.2-2.48,1.46-1.48,3.85,.39,.94,1.02,1.24,1.98,.97,1.04-.29,2.1-.46,3.19-.33,1.49,.17,2.68,.76,3.4,2.19,1.44,2.84,.05,5.5-3.14,5.86-1.59,.18-3.1-.05-4.55-.79-1.49-.75-1.72-.61-2.18,.91-.88,2.95-.81,3.01,2.09,4.12,4.35,1.67,8.18,.72,11.49-2.35,2.49-2.31,3.05-5.99,1.53-9.05-1.02-2.05-2.25-3.88-4.79-4.34-.5-.09-.79-.28-.89-.56-.02,0-.04,0-.06-.01,.01-.02,.02-.03,.04-.05-.08-.31,.04-.73,.34-1.26Z"/>
        <path class="cls-2" d="M22.48,9.8c1.29,.67,2.79,.91,3.89,1.95,3.03,2.88,3.6,6.69,1.54,10.31-.3,.53-.43,.95-.34,1.26,2.66-3.64,2.28-4.85,1.87-6.76-.94-4.35-3.39-6.38-7.01-7.02-.03,.03-.07,.05-.1,.08,.06,.06,.11,.11,.16,.17Z"/>
        <path class="cls-2" d="M28.49,23.95c2.54,.46,3.77,2.29,4.79,4.34,1.52,3.06,.96,6.74-1.53,9.05-3.31,3.07-7.14,4.02-11.49,2.35-2.9-1.11-2.97-1.18-2.09-4.12,.45-1.52,.69-1.66,2.18-.91,1.45,.73,2.97,.96,4.55,.79,3.19-.35,4.59-3.01,3.14-5.86-.73-1.43-1.91-2.02-3.4-2.19-1.08-.13-2.14,.04-3.19,.33-.95,.26-1.58-.03-1.98-.97-1-2.39-.92-2.65,1.48-3.85,2.25-1.13,2.92-2.21,2.72-4.49-.12-1.39-.64-2.62-2.04-3.13-1.38-.51-2.57,.09-3.63,.99-.3,.25-.52,.58-.75,.89-2.25,3.1-1.54,2.72-4.51,.48-.84-.63-.83-1.34-.33-2.17,.48-.8,1.12-1.48,1.51-2.34,0,0,0-.01,0-.02-.1,0-.2-.02-.32-.06-.61,.88-1.26,1.74-1.81,2.65-.36,.6-.53,1.3,.15,1.85,.87,.71,1.75,1.39,2.63,2.08,.73,.57,1.27,.53,1.72-.39,.56-1.15,1.39-2.13,2.34-2.98,1.23-1.11,2.94-1.04,3.9,.12,1.42,1.71,1.21,3.97-.51,5.38-.84,.69-1.8,1.15-2.84,1.46-.66,.2-1,.59-.81,1.31,.22,.79,.45,1.58,.68,2.37,.35,1.19,.91,1.81,2.33,1.29,.89-.32,1.92-.22,2.89-.34,2.36-.3,3.61,1.42,3.96,3.74,.29,1.94-1.76,3.58-4.06,3.6-1.68,.01-3.16-.56-4.55-1.37-.87-.51-1.25-.23-1.5,.58-.28,.93-.48,1.89-.82,2.81-.39,1.06,.03,1.67,.95,2.11,3.77,1.8,7.54,2.18,11.38,.15,6.67-3.52,5.67-10.87,1.86-14.51-1.1-1.05-2.43-1.31-3.88-1.58,.11,.28,.39,.47,.89,.56Z"/>
        <path class="cls-2" d="M13.92,13.13c.4,0,.66-.33,.93-.58,1.47-1.39,3.23-2.11,5.21-2.44,.75-.12,1.6,.07,2.25-.48-.02-.03-.05-.05-.07-.08-.75,.04-1.5-.03-2.26,.1-2.32,.39-4.24,1.44-5.92,2.98-.01,.03-.02,.06-.03,.1-.05,.13-.07,.27-.11,.4Z"/>
        <path class="cls-2" d="M22.31,9.63s.07-.05,.1-.08c-.06,0-.12,0-.18,0,.03,.02,.05,.05,.07,.08Z"/>
        <path class="cls-2" d="M14.03,12.73s.02-.06,.03-.1c-.15,.14-.31,.28-.46,.43,.12,.05,.22,.06,.32,.06,.04-.13,.06-.27,.11-.4Z"/>
        <path class="cls-2" d="M50.72,30.91c.9-1.85,1.02-3.85,.85-6.35,.07-5.04-2.25-9.78-4.95-14.39-.38-.64-.96-.8-1.64-.66-1.33,.29-2.65,.65-3.99,.89-1.17,.21-.96,.59-.43,1.39,3.06,4.58,4.61,9.71,5.16,15.15,.12,1.21-.17,2.6-1.41,2.93-1.23,.33-2.03-.87-2.75-1.8-.03-.04-.03-.09-.05-.14-2.1-4.51-3.68-9.2-4.83-14.05-.21-.88,.72-2-.45-2.59-.89-.45-1.93-.06-2.89-.18-.24-.03-.49,.03-.73,.03-2.04-.01-2.13,.13-1.91,2.08,.27,2.43,.76,4.81,1.37,7.16,1.12,4.32,2.79,8.41,5.58,11.94,3.82,4.82,10.4,4.08,13.06-1.42Z"/>
      </g>
    </g>
  </g>
</svg>