<?xml version="1.0" encoding="UTF-8"?>
<svg id="Layer_2" data-name="Layer 2" xmlns="http://www.w3.org/2000/svg" xmlns:xlink="http://www.w3.org/1999/xlink" viewBox="0 0 61.52 61.54">
  <defs>
    <style>
      .cls-1 {
        fill: #fff;
      }

      .cls-2 {
        fill: #020202;
      }

      .cls-3 {
        filter: url(#drop-shadow-1);
      }
    </style>
    <filter id="drop-shadow-1" filterUnits="userSpaceOnUse">
      <feOffset dx="1.42" dy="1.42"/>
      <feGaussianBlur result="blur" stdDeviation="5"/>
      <feFlood flood-color="#231916" flood-opacity=".5"/>
      <feComposite in2="blur" operator="in"/>
      <feComposite in="SourceGraphic"/>
    </filter>
  </defs>
  <g id="bg">
    <g id="_39" data-name="39">
      <g class="cls-3">
        <path class="cls-1" d="M61.51,29.57C61.1,14.83,48.91,.4,31.12,0,14.74-.36,1.13,12.01,.06,28.62c-1.14,17.77,13.15,32.75,30.02,32.9,15.94,.6,31.98-12.31,31.43-31.95ZM24.39,48.19c-3.11,.46-5.9-.2-8.45-1.97-.27-.19-.56-.41-.74-.68-.23-.34,1.3-4.49,1.69-4.69,.37-.19,.63,.04,.93,.2,.95,.5,1.88,1.07,2.89,1.4,1.77,.59,3.5,.41,4.93-.88,1.05-.94,1.14-2.78,.49-4.36-.78-1.86-2.29-2.04-3.99-1.87-.54,0-1.07,0-1.61,0-.74,0-1.67,.74-2.17-.11-.68-1.17-.89-2.56-.92-3.92-.01-.52,.64-.56,1.04-.66,1.05-.28,2-.71,2.92-1.3,2.43-1.56,1.59-4.85,.02-6.02-.95-.7-1.96-.5-2.9-.03-1.24,.63-2.29,1.53-2.95,2.76-.57,1.04-1.1,1.01-1.88,.23-.61-.62-1.3-1.19-2.03-1.68-.82-.55-.77-1.23-.31-1.88,2.68-3.82,6.36-5.88,11.3-5.11,2.85,.44,5.23,3.03,5.86,5.83,.63,2.82,.05,5.18-2.02,7.19-.22,.21-.46,.4-.31,.74,.15,.34,.49,.28,.77,.26,2.29-.14,3.47,1.48,4.4,3.09,3.4,5.93-.11,12.43-6.93,13.44Zm26.1-6.33c-4.45,1.08-8.89,2.18-13.4,2.97-.97,.17-1.56-.02-1.67-1.18-.08-.91-.35-1.82-.67-2.67-.4-1.06,.08-1.44,1-1.59,.91-.14,1.79-.44,2.73-.4,.96,.05,1.25-.43,1.02-1.4-1.02-4.24-2-8.49-2.98-12.74-.14-.61-.31-1.23-.32-1.85-.04-1.62-.95-1.65-2.13-1.24-2.84,.97-2.47,1.04-3.26-2.08-.26-1.04-.03-1.76,1.01-2.24,1.34-.61,2.46-1.55,3.51-2.59,1.19-1.18,2.88-1.07,4.37-1.44,.52-.13,.7,.56,.85,1.03,.85,2.59,1.55,5.22,1.66,7.96,.05,1.37,.73,2.54,1.01,3.84,.1,.48,.32,.91,.09,1.68,.72,2.15,.78,4.7,1.8,7.03,.08,.18,.19,.34,.25,.53,.62,1.76,.64,1.77,2.47,1.19,2.52-.8,3.19-.37,3.51,2.25,.05,.43,.17,.86,.2,1.3,.06,.79-.13,1.44-1.04,1.66Z"/>
        <path class="cls-2" d="M26.92,31.66c-.28,.02-.62,.08-.77-.26-.15-.33,.1-.53,.31-.74,2.07-2,2.66-4.36,2.02-7.19-.63-2.8-3-5.39-5.86-5.83-4.94-.77-8.62,1.29-11.3,5.11-.46,.66-.5,1.33,.31,1.88,.72,.49,1.41,1.06,2.03,1.68,.78,.79,1.31,.82,1.88-.23,.67-1.23,1.72-2.14,2.95-2.76,.94-.47,1.95-.68,2.9,.03,1.57,1.17,2.41,4.45-.02,6.02-.91,.59-1.87,1.02-2.92,1.3-.39,.1-1.05,.14-1.04,.66,.03,1.36,.24,2.75,.92,3.92,.5,.85,1.43,.1,2.17,.11,.54,0,1.07,0,1.61,0,1.69-.17,3.21,.01,3.99,1.87,.66,1.58,.56,3.42-.49,4.36-1.43,1.29-3.17,1.47-4.93,.88-1.01-.34-1.94-.9-2.89-1.4-.31-.16-.57-.39-.93-.2-.39,.2-1.92,4.35-1.69,4.69,.18,.27,.47,.49,.74,.68,2.56,1.77,5.35,2.43,8.45,1.97,6.82-1.01,10.34-7.51,6.93-13.44-.93-1.61-2.11-3.23-4.4-3.09Z"/>
        <path class="cls-2" d="M51.33,38.9c-.32-2.62-.98-3.05-3.51-2.25-1.83,.58-1.85,.57-2.47-1.19-.06-.18-.18-.35-.25-.53-1.02-2.33-1.07-4.88-1.8-7.03,.23-.76,.01-1.2-.09-1.68-.28-1.29-.96-2.46-1.01-3.84-.11-2.74-.81-5.37-1.66-7.96-.16-.47-.34-1.16-.85-1.03-1.48,.38-3.17,.26-4.37,1.44-1.05,1.04-2.17,1.98-3.51,2.59-1.04,.48-1.27,1.2-1.01,2.24,.79,3.13,.42,3.05,3.26,2.08,1.18-.4,2.09-.38,2.13,1.24,.01,.62,.18,1.24,.32,1.85,.98,4.25,1.96,8.5,2.98,12.74,.23,.97-.06,1.44-1.02,1.4-.95-.05-1.83,.25-2.73,.4-.93,.15-1.4,.53-1,1.59,.32,.86,.59,1.77,.67,2.67,.1,1.16,.7,1.35,1.67,1.18,4.51-.79,8.96-1.89,13.4-2.97,.92-.22,1.1-.87,1.04-1.66-.03-.43-.15-.86-.2-1.3Z"/>
      </g>
    </g>
  </g>
</svg>