<?xml version="1.0" encoding="UTF-8"?>
<svg id="Layer_2" data-name="Layer 2" xmlns="http://www.w3.org/2000/svg" xmlns:xlink="http://www.w3.org/1999/xlink" viewBox="0 0 59.82 61.42">
  <defs>
    <style>
      .cls-1 {
        fill: #fff;
      }

      .cls-2 {
        fill: #898585;
      }

      .cls-3 {
        fill: #020202;
      }

      .cls-4 {
        filter: url(#drop-shadow-1);
      }
    </style>
    <filter id="drop-shadow-1" filterUnits="userSpaceOnUse">
      <feOffset dx="1.42" dy="1.42"/>
      <feGaussianBlur result="blur" stdDeviation="5"/>
      <feFlood flood-color="#231916" flood-opacity=".5"/>
      <feComposite in2="blur" operator="in"/>
      <feComposite in="SourceGraphic"/>
    </filter>
  </defs>
  <g id="bg">
    <g id="_39" data-name="39">
      <g class="cls-4">
        <path class="cls-1" d="M20.76,1.3c-2.39,.61-4.55,1.69-5.24,4.31-.32,1.21-.96,2.1-1.82,2.9-1.04,.96-1.65,2.15-1.93,3.52-.38,1.86-.52,3.8-1.17,5.56-2.64,7.13-5.56,14.14-9.92,20.44-.77,1.12-.88,2.21-.38,3.45,2.48,6.23,6.71,11.14,12.1,14.91,4.88,3.41,10.47,5.13,16.06,5.03,8.18,.06,15.05-2.28,20.93-7.3,5.5-4.7,8.84-10.69,9.95-17.85,1.48-9.57-.33-18.44-6.77-25.82C44.03,.65,33.15-1.89,20.76,1.3Zm-6.67,36.18c-1.33-.57-2.97-.87-3.43-2.66-.13-.49-.6-.37-.99-.36-.58,0-.82-.46-1.07-.88-.33-.56,.17-.8,.46-1.07,.94-.87,1.79-1.8,2.35-2.97,.45-.94,.82-.74,1.2,.07,.84,1.77,2.24,2.62,4.22,2.45,.68-.06,1,.36,1.16,.89,.11,.35,.55,.83-.13,1.1-.35,.14-.7,.25-.33,.69,.24,.29,.61,.45,.91,.21,.73-.59,1.32-1.05,1.31,.45,0,.12,.24,.33,.39,.36,.3,.05,.36-.23,.46-.46,.45-.95,.05-1.93,.05-2.88,.02-1.74,.71-3.55-.29-5.27-.55-.93-1.34-1.66-1.92-2.57-.41-.63-.79-1.13-.61-1.91,.07-.29,.04-.59-.42-.55-.65,.05-.49-.27-.23-.58,.19-.22,.39-.45,.62-.61,.67-.45,.51-2.21,1.95-1.37,.75,.43,1.68,.78,2.03,1.74,.03,.09,.03,.18,.05,.27,1.06-.77,2.28,.09,3.42-.36,.96-.38,1.7-.9,2.2-1.8,.87-1.57,.64-2.75-.77-3.84-1-.78-2.13-1.15-3.4-1.16q-2.45,0-2.46-2.41c0-.54-.04-1.08,.01-1.61,.07-.68,.33-1.13,1.17-1.21,4.73-.42,9.07,1.83,11.22,5.89,1.77,3.35-.1,9.07-3.62,10.5-1.26,.51-2.76,1.22-4.21,.16-.28-.2-.66-.36-.93-.04-.27,.32,.06,.65,.19,.93,1.62,3.53,1.35,5.73-1.03,8.26-2.69,2.87-6.43,3.94-9.54,2.6Zm29.29,1.11c-3.08,2.07-6.49,3.28-10.19,3.65-.92,.09-1.83,.26-2.74,.39-.33,.04-.75,0-.83,.42-.07,.4,.35,.57,.62,.74,1.95,1.19,3.87,2.43,5.67,3.86,.98,.78,1.19,1.42,.27,2.37-.68,.7-1.27,1.49-1.86,2.26-.69,.91-1.5,.88-2.28,.24-3.86-3.13-7.81-6.17-11.42-9.58-.48-.45-1.82-.52-1.39-1.32,.63-1.18,1.28-2.6,2.86-2.92,3.23-.66,6.47-1.27,9.7-1.94,2.97-.62,5.84-1.49,8.37-3.27,1.42-1,2.39-3.43,1.89-4.91-.48-1.41-2.27-2.28-4.27-2.08-.1,0-.2,0-.29,.02q-2.52,.35-2.53-2.28t2.57-2.77c5.08-.54,9.77,2.4,10.75,6.73,.78,3.48-1.31,7.98-4.89,10.39Z"/>
        <path class="cls-3" d="M37.53,21.46q-2.58,.27-2.57,2.77t2.53,2.28c.1-.01,.2-.01,.29-.02,2-.2,3.79,.67,4.27,2.08,.5,1.47-.47,3.91-1.89,4.91-2.53,1.78-5.4,2.65-8.37,3.27-3.23,.67-6.47,1.28-9.7,1.94-1.58,.32-2.23,1.74-2.86,2.92-.42,.8,.92,.87,1.39,1.32,3.61,3.42,7.56,6.45,11.42,9.58,.78,.63,1.59,.67,2.28-.24,.59-.78,1.18-1.57,1.86-2.26,.92-.95,.72-1.59-.27-2.37-1.8-1.43-3.72-2.66-5.67-3.86-.27-.17-.69-.34-.62-.74,.07-.41,.49-.37,.83-.42,.91-.12,1.82-.29,2.74-.39,3.7-.37,7.11-1.57,10.19-3.65,3.58-2.41,5.67-6.91,4.89-10.39-.97-4.33-5.67-7.27-10.75-6.73Z"/>
        <path class="cls-3" d="M24.66,26.62c-.13-.29-.46-.61-.19-.93,.27-.32,.65-.17,.93,.04,1.44,1.06,2.94,.35,4.21-.16,3.53-1.43,5.4-7.15,3.62-10.5-2.15-4.07-6.49-6.32-11.22-5.89-.84,.08-1.1,.53-1.17,1.21-.05,.53-.01,1.07-.01,1.61q.01,2.4,2.46,2.41c1.27,0,2.4,.38,3.4,1.16,1.4,1.09,1.64,2.27,.77,3.84-.5,.9-1.24,1.42-2.2,1.8-1.13,.45-2.35-.41-3.42,.36-.02-.09-.02-.19-.05-.27-.34-.96-1.27-1.3-2.03-1.74-1.44-.83-1.28,.92-1.95,1.37-.24,.16-.44,.39-.62,.61-.26,.31-.42,.63,.23,.58,.46-.04,.49,.26,.42,.55-.18,.78,.21,1.28,.61,1.91,.58,.91,1.38,1.64,1.92,2.57,1,1.71,.31,3.52,.29,5.27,0,.95,.39,1.93-.05,2.88-.1,.22-.16,.51-.46,.46-.15-.03-.39-.23-.39-.36,.01-1.5-.58-1.04-1.31-.45-.3,.24-.67,.08-.91-.21-.37-.44-.02-.55,.33-.69,.68-.27,.24-.75,.13-1.1-.16-.53-.48-.95-1.16-.89-1.97,.17-3.38-.67-4.22-2.45-.38-.81-.75-1-1.2-.07-.56,1.17-1.41,2.1-2.35,2.97-.29,.27-.79,.51-.46,1.07,.25,.42,.49,.89,1.07,.88,.39,0,.86-.13,.99,.36,.46,1.78,2.09,2.08,3.43,2.66,3.11,1.34,6.85,.27,9.54-2.6,2.38-2.53,2.65-4.73,1.03-8.26Zm-3.78-1.05c-.72,.17-.86-.84-1.45-1.18,.65-.09,1.29-.18,2.07-.28,0,.64-.08,1.34-.62,1.47Z"/>
        <path class="cls-2" d="M20.88,25.56c.54-.13,.61-.83,.62-1.47-.78,.11-1.42,.2-2.07,.28,.59,.34,.73,1.35,1.45,1.18Z"/>
      </g>
    </g>
  </g>
</svg>