<?xml version="1.0" encoding="UTF-8"?>
<svg id="Layer_2" data-name="Layer 2" xmlns="http://www.w3.org/2000/svg" xmlns:xlink="http://www.w3.org/1999/xlink" viewBox="0 0 61.72 61.91">
  <defs>
    <style>
      .cls-1 {
        fill: #fff;
      }

      .cls-2 {
        fill: #f5f5f5;
      }

      .cls-3 {
        fill: #020202;
      }

      .cls-4 {
        filter: url(#drop-shadow-1);
      }
    </style>
    <filter id="drop-shadow-1" filterUnits="userSpaceOnUse">
      <feOffset dx="1.42" dy="1.42"/>
      <feGaussianBlur result="blur" stdDeviation="5"/>
      <feFlood flood-color="#231916" flood-opacity=".5"/>
      <feComposite in2="blur" operator="in"/>
      <feComposite in="SourceGraphic"/>
    </filter>
  </defs>
  <g id="bg">
    <g id="_39" data-name="39">
      <g class="cls-4">
        <path class="cls-1" d="M29.79,.01C13.02,.44,.21,14.17,0,30.6c-.14,17.51,14.09,31.7,31.4,31.29,16.92-.4,30.94-14.94,30.29-32.82C61.1,12.84,47.36-.44,29.79,.01Zm18.48,33.24c-.68,.07-1.08,.45-.76,1.34,.55,1.56,.92,3.18,1.4,4.76,.32,1.04,.21,1.71-1.02,2.1-4.89,1.58-4.1,1.19-5.04-2.43-.2-.75-.63-1.49-.65-2.24-.05-1.71-.79-1.56-2.04-1.09-2.45,.93-4.96,1.73-7.53,2.3-.56,.12-1.07,.16-.9,.96,1.32,6.11-3.88,9.83-9.12,10.16-.29,.02-.59,0-.94,0-2.24,.23-4.23-.65-6.18-1.73-.55-.3-.67-.65-.52-1.17,.31-1.07,.65-2.13,.96-3.21,.22-.78,.54-.99,1.36-.58,1.48,.75,3.01,1.36,4.75,1.28,2.18-.1,3.58-1.31,3.57-3.22-.02-2.54-1.55-4.36-3.69-4.4-1.18-.02-2.33,.12-3.45,.48-.48,.15-.96,.28-1.24-.35-.5-1.12-.74-2.32-.96-3.52-.1-.54,.39-.69,.82-.87,.72-.3,1.47-.58,2.1-1.01,2.49-1.69,2.44-3.58,1.33-5.83-.61-1.23-2.04-1.55-3.28-.9-1.43,.74-2.52,1.88-3.23,3.29-.48,.96-.92,.88-1.67,.39-3.37-2.17-3.41-2.97-.77-5.94,2.56-2.87,5.82-3.58,9.39-3.43,2.2,.09,5.05,3.03,5.77,5.64,.69,2.5,.57,4.83-1.23,6.87-.55,.62-.51,1.01,.34,1.21,1.25,.29,2.4,.75,3.37,1.65,.76,.7,.96,.35,1.09-.55,.86-6.07,2.15-12.07,3.51-18.04,.14-.62,.28-1.21,1-1.5,1.63-.67,3.36-.94,5.05-1.4,.62-.17,.9,.21,1.12,.83,1.58,4.45,3.11,8.92,4.25,13.51,.29,1.15,.47,2.22,2.12,1.31,.91-.5,1.71,0,1.99,1.04,.15,.56,.28,1.14,.45,1.68,.49,1.53,.26,2.42-1.52,2.62Z"/>
        <path class="cls-3" d="M49.34,28.95c-.29-1.05-1.08-1.54-1.99-1.04-1.66,.91-1.84-.15-2.12-1.31-1.14-4.59-2.67-9.05-4.25-13.51-.22-.62-.5-1-1.12-.83-1.68,.46-3.42,.73-5.05,1.4-.71,.29-.86,.88-1,1.5-1.36,5.98-2.65,11.97-3.51,18.04-.13,.91-.33,1.26-1.09,.55-.97-.9-2.12-1.36-3.37-1.65-.85-.2-.89-.59-.34-1.21,1.8-2.03,1.92-4.37,1.23-6.87-.72-2.61-3.57-5.55-5.77-5.64-3.57-.15-6.83,.55-9.39,3.43-2.65,2.97-2.6,3.77,.77,5.94,.75,.48,1.19,.57,1.67-.39,.71-1.41,1.8-2.55,3.23-3.29,1.24-.65,2.68-.32,3.28,.9,1.11,2.25,1.16,4.14-1.33,5.83-.64,.43-1.39,.71-2.1,1.01-.42,.18-.91,.33-.82,.87,.22,1.2,.45,2.4,.96,3.52,.28,.62,.76,.5,1.24,.35,1.12-.36,2.27-.51,3.45-.48,2.14,.04,3.67,1.86,3.69,4.4,.01,1.91-1.39,3.12-3.57,3.22-1.74,.08-3.27-.53-4.75-1.28-.82-.42-1.14-.21-1.36,.58-.3,1.07-.64,2.14-.96,3.21-.15,.53-.03,.87,.52,1.17,1.95,1.08,3.93,1.97,6.18,1.73,.36,0,.65,.02,.94,0,5.24-.33,10.44-4.05,9.12-10.16-.17-.81,.34-.84,.9-.96,2.57-.57,5.07-1.37,7.53-2.3,1.25-.47,1.99-.62,2.04,1.09,.02,.75,.45,1.48,.65,2.24,.94,3.61,.16,4.01,5.04,2.43,1.23-.4,1.34-1.06,1.02-2.1-.48-1.58-.85-3.21-1.4-4.76-.32-.89,.08-1.27,.76-1.34,1.78-.19,2.01-1.09,1.52-2.62-.17-.53-.29-1.12-.45-1.68Zm-13.04-5.03c.14,1.33-.2,2.56-.67,3.76-.11-1.32-.03-2.6,.67-3.76Zm2.86,6.72c-.85,.34-1.78,.48-2.66,.76-.78,.25-.99,.02-.78-.75,.57-2.12,1-4.26,1.32-6.43,.19-1.23-.24-2.55,.67-4.06,.3,1.17,.65,1.98,.71,2.81,.14,2.02,.74,3.92,1.54,5.74,.47,1.07,.06,1.6-.8,1.93Zm5.59-1.9c-.29,.08-.47-.12-.54-.36-.12-.42-.22-.84-.3-1.27-.45-2.4-1.35-4.66-1.97-7.01-.11-.42-.31-.83,.05-1.74,.86,2.81,1.61,5.26,2.36,7.71,.21,.69,.43,1.39,.63,2.08,.07,.24,.1,.5-.22,.59Z"/>
        <path class="cls-2" d="M38.41,22.97c-.06-.83-.4-1.64-.71-2.81-.91,1.51-.48,2.83-.67,4.06-.33,2.17-.76,4.31-1.32,6.43-.21,.78,0,1,.78,.75,.88-.28,1.81-.42,2.66-.76,.85-.33,1.26-.86,.8-1.93-.8-1.82-1.4-3.72-1.54-5.74Z"/>
        <path class="cls-3" d="M44.33,26.08c-.75-2.45-1.5-4.9-2.36-7.71-.35,.91-.16,1.32-.05,1.74,.62,2.35,1.52,4.61,1.97,7.01,.08,.43,.18,.85,.3,1.27,.07,.24,.25,.44,.54,.36,.32-.09,.29-.35,.22-.59-.2-.7-.42-1.39-.63-2.08Z"/>
        <path class="cls-3" d="M36.29,23.92c-.69,1.16-.78,2.44-.67,3.76,.47-1.21,.81-2.44,.67-3.76Z"/>
      </g>
    </g>
  </g>
</svg>