<?xml version="1.0" encoding="UTF-8"?>
<svg id="Layer_2" data-name="Layer 2" xmlns="http://www.w3.org/2000/svg" xmlns:xlink="http://www.w3.org/1999/xlink" viewBox="0 0 61.41 61.96">
  <defs>
    <style>
      .cls-1 {
        fill: #fff;
      }

      .cls-2 {
        fill: #020202;
      }

      .cls-3 {
        filter: url(#drop-shadow-1);
      }
    </style>
    <filter id="drop-shadow-1" filterUnits="userSpaceOnUse">
      <feOffset dx="1.42" dy="1.42"/>
      <feGaussianBlur result="blur" stdDeviation="5"/>
      <feFlood flood-color="#231916" flood-opacity=".5"/>
      <feComposite in2="blur" operator="in"/>
      <feComposite in="SourceGraphic"/>
    </filter>
  </defs>
  <g id="bg">
    <g id="_39" data-name="39">
      <g class="cls-3">
        <path class="cls-1" d="M31.04,61.96c16.98-.26,30.77-13.93,30.37-31.93C61.03,13.51,47.69-.2,30.36,0,13.68,.06-.31,14.24,0,31.39c.31,17.08,13.79,30.83,31.03,30.57Zm9.67-42.58c3.78,2.13,7.57,4.25,11.36,6.36,.67,.38,.67,.9,.35,1.49-.53,.99-1.08,1.96-1.6,2.96-.45,.88-1.01,1.06-1.88,.52-1.99-1.23-4.04-2.37-6.02-3.62-.99-.63-1.65-.81-2.23,.52-.49,1.13-1.59,1.96-1.86,3.28,3.33,.65,5.79,2.3,6.98,5.56,.32,.86,.33,1.73,.27,2.6-.34,4.65-4.31,10.57-9.17,10.94-5.4,.42-9.82-2.43-11.47-7.55-.39-1.2-.22-2.07,1.03-2.62,.93-.41,1.84-1.36,2.7-1.3,1.13,.08,.88,1.61,1.32,2.47,.95,1.87,2.22,3.25,4.44,3.29,2.18,.04,3.3-1.47,4.18-3.17,.73-1.41,1.34-2.96,.33-4.42-1.11-1.6-2.75-2.28-4.73-1.97-.61,.1-1.56,.33-1.68-.38-.17-1.05-1.32-1.91-.57-3.15,2.3-3.79,4.58-7.59,6.83-11.41,.39-.67,.77-.75,1.41-.39ZM9.2,30.55s.09-.03,.14-.05c1.16-.49,2.44-1.54,3.44-1.32,.97,.21,.97,2.05,1.58,3.1,.45,.77,.95,1.5,1.64,2.04,1.53,1.2,3.56,1.94,5.34-.02,1.58-1.74,1.56-3.68-.14-5.47-.81-.86-1.74-1.58-2.81-2.07-.82-.38-1-.85-.48-1.59,.06-.08,.09-.17,.14-.26,.48-.9,.77-2.05,1.5-2.65,.98-.8,1.73,.6,2.67,.84,2.72,.7,4.56,.01,5.64-2.28,.84-1.78,.08-3.43-1.84-4-1.49-.44-2.99-.49-4.46,.05-.78,.28-1.11-.03-1.25-.72-.13-.62-.21-1.25-.3-1.88-.36-2.55-.28-2.66,2.34-2.9,.73-.07,1.46,0,2.2,0,3.43-.19,6.02,1.49,8.08,3.96,1.76,2.12,1.92,4.61,.83,7.16-.76,1.78-1.7,3.43-3.45,4.4-.95,.53-1.99,.79-3.11,.67-.28-.03-.61-.07-.75,.29-.14,.38,.08,.65,.33,.9,1.34,1.36,1.7,2.99,1.46,4.84-.43,3.41-3.93,7.31-7.51,7.5-5.74,.31-10.28-3.26-11.94-9.2-.2-.72,.04-1.12,.71-1.34Z"/>
        <path class="cls-2" d="M33.04,34.33c.12,.72,1.06,.48,1.68,.38,1.99-.31,3.63,.37,4.73,1.97,1.02,1.47,.4,3.02-.33,4.42-.88,1.7-2,3.21-4.18,3.17-2.22-.04-3.49-1.42-4.44-3.29-.44-.86-.19-2.39-1.32-2.47-.86-.06-1.77,.89-2.7,1.3-1.25,.55-1.42,1.42-1.03,2.62,1.65,5.12,6.07,7.97,11.47,7.55,4.86-.38,8.83-6.29,9.17-10.94,.06-.87,.04-1.74-.27-2.6-1.2-3.26-3.65-4.91-6.98-5.56,.27-1.31,1.36-2.14,1.86-3.28,.58-1.33,1.24-1.14,2.23-.52,1.98,1.25,4.03,2.38,6.02,3.62,.88,.54,1.43,.37,1.88-.52,.51-1,1.07-1.97,1.6-2.96,.31-.59,.32-1.11-.35-1.49-3.79-2.11-7.58-4.23-11.36-6.36-.64-.36-1.02-.27-1.41,.39-2.25,3.82-4.53,7.62-6.83,11.41-.75,1.23,.4,2.1,.57,3.15Z"/>
        <path class="cls-2" d="M20.43,41.09c3.57-.2,7.07-4.1,7.51-7.5,.24-1.85-.12-3.48-1.46-4.84-.25-.25-.47-.52-.33-.9,.13-.35,.47-.32,.75-.29,1.11,.12,2.16-.14,3.11-.67,1.75-.98,2.69-2.63,3.45-4.4,1.09-2.55,.93-5.04-.83-7.16-2.06-2.47-4.66-4.15-8.08-3.96-.73,0-1.47-.06-2.2,0-2.62,.24-2.7,.35-2.34,2.9,.09,.63,.17,1.26,.3,1.88,.14,.68,.47,1,1.25,.72,1.47-.54,2.97-.49,4.46-.05,1.92,.57,2.68,2.21,1.84,4-1.08,2.29-2.92,2.98-5.64,2.28-.93-.24-1.69-1.64-2.67-.84-.73,.6-1.02,1.75-1.5,2.65-.05,.09-.08,.18-.14,.26-.52,.74-.34,1.22,.48,1.59,1.07,.49,2,1.21,2.81,2.07,1.7,1.79,1.72,3.73,.14,5.47-1.78,1.95-3.81,1.22-5.34,.02-.69-.54-1.19-1.27-1.64-2.04-.62-1.04-.61-2.89-1.58-3.1-1.01-.22-2.28,.83-3.44,1.32-.04,.02-.09,.03-.14,.05-.67,.22-.91,.61-.71,1.34,1.67,5.94,6.2,9.51,11.94,9.2Z"/>
      </g>
    </g>
  </g>
</svg>