<?xml version="1.0" encoding="UTF-8"?>
<svg id="Layer_2" data-name="Layer 2" xmlns="http://www.w3.org/2000/svg" xmlns:xlink="http://www.w3.org/1999/xlink" viewBox="0 0 61.33 61.54">
  <defs>
    <style>
      .cls-1 {
        fill: #fff;
      }

      .cls-2 {
        fill: #020202;
      }

      .cls-3 {
        filter: url(#drop-shadow-1);
      }
    </style>
    <filter id="drop-shadow-1" filterUnits="userSpaceOnUse">
      <feOffset dx="1.42" dy="1.42"/>
      <feGaussianBlur result="blur" stdDeviation="5"/>
      <feFlood flood-color="#231916" flood-opacity=".5"/>
      <feComposite in2="blur" operator="in"/>
      <feComposite in="SourceGraphic"/>
    </filter>
  </defs>
  <g id="bg">
    <g id="_39" data-name="39">
      <g class="cls-3">
        <path class="cls-1" d="M29.14,61.51c18.53,.86,32.3-14.61,32.2-30.52C61.25,13.76,47.85,.27,31.16,0,13.5-.28-.66,14.24,.02,32.03c.63,16.37,14.03,28.78,29.11,29.48Zm3.61-35.57c.5-2.92,1.55-5.63,3.76-7.76,1.73-1.66,3.7-2.67,5.86-2.52,3.12-.1,5.38,1.12,7.38,2.97,.43,.4,.74,.95,.39,1.43-.8,1.1-1.62,2.22-2.62,3.12-.67,.6-1.06-.39-1.47-.77-2.29-2.16-5.02-1.82-6.63,.85-.74,1.23-1.12,2.6-1.39,3.98-.1,.53-.62,1.27-.15,1.59,.52,.35,.99-.38,1.45-.72,2.92-2.24,7.53-1.47,9.57,1.61,2.65,3.98,2.01,10.98-1.32,14.44-3.75,3.91-10.61,2.92-13.02-1.96-2.56-5.18-2.77-10.68-1.81-16.27Zm-19.84,13.89c.74-.77,1.24-2.06,2.1-2.34,1.03-.34,1.54,1.21,2.45,1.75,1.36,.81,2.66,1.56,4.33,1.47,1.62-.09,2.91-1.04,3.28-2.58,.46-1.92-.2-3.69-1.72-4.41-1.42-.68-2.93-1.09-4.53-.98-.81,.05-1.19-.28-1.13-1.09,0-.1,0-.2,0-.29,.05-1.02-.17-2.16,.21-3.04,.47-1.08,1.76-.37,2.67-.56,2.74-.56,4.07-1.92,4.06-4.33-.01-2.31-1.73-3.57-3.95-2.84-1.26,.41-2.4,1.08-3.33,2.06-.65,.68-1.19,.71-1.71-.16-.3-.5-.71-.93-1.06-1.4-1.24-1.72-1.13-2.52,.71-3.62,2.15-1.29,4.37-2.44,6.74-2.1,8.33-.33,10.09,7.57,7.55,11.92-.58,.99-1.34,1.79-2.39,2.29-.87,.41-.91,.88,.04,1.19,2.91,.94,4.34,5.14,3.64,8.87-.57,3.08-2.93,5.43-6.13,6.11-4.51,.97-8.39-.2-11.75-3.29-.94-.86-.99-1.69-.09-2.63Z"/>
        <path class="cls-2" d="M47.58,44.16c3.33-3.47,3.96-10.46,1.32-14.44-2.04-3.08-6.65-3.85-9.57-1.61-.45,.35-.93,1.07-1.45,.72-.47-.32,.05-1.06,.15-1.59,.27-1.39,.65-2.75,1.39-3.98,1.61-2.68,4.34-3.01,6.63-.85,.41,.38,.8,1.37,1.47,.77,1-.9,1.83-2.02,2.62-3.12,.35-.48,.04-1.03-.39-1.43-2-1.85-4.26-3.07-7.38-2.97-2.16-.15-4.13,.86-5.86,2.52-2.21,2.13-3.26,4.83-3.76,7.76-.96,5.58-.74,11.08,1.81,16.27,2.4,4.88,9.26,5.87,13.02,1.96Zm-5.97-12.6c1.55-.22,3.09,1.11,3.25,2.85,.06,.58,0,1.17,0,1.94,.22,1.33-.18,2.69-1.02,3.96-1.2,1.82-3.38,1.77-4.5-.08-.72-1.19-1.1-2.5-1.34-3.83-.41-2.24,1.34-4.51,3.6-4.83Z"/>
        <path class="cls-2" d="M24.74,45.74c3.21-.69,5.56-3.04,6.13-6.11,.7-3.74-.74-7.94-3.64-8.87-.95-.31-.91-.78-.04-1.19,1.05-.5,1.81-1.3,2.39-2.29,2.54-4.35,.79-12.25-7.55-11.92-2.37-.34-4.59,.81-6.74,2.1-1.84,1.11-1.95,1.91-.71,3.62,.34,.47,.76,.9,1.06,1.4,.52,.86,1.07,.84,1.71,.16,.93-.98,2.06-1.64,3.33-2.06,2.22-.73,3.94,.53,3.95,2.84,.02,2.41-1.32,3.77-4.06,4.33-.91,.19-2.2-.52-2.67,.56-.38,.88-.17,2.02-.21,3.04,0,.1,0,.2,0,.29-.06,.82,.32,1.15,1.13,1.09,1.6-.1,3.1,.3,4.53,.98,1.51,.73,2.18,2.49,1.72,4.41-.37,1.54-1.66,2.49-3.28,2.58-1.67,.09-2.97-.66-4.33-1.47-.91-.54-1.42-2.09-2.45-1.75-.86,.28-1.36,1.57-2.1,2.34-.91,.95-.85,1.77,.09,2.63,3.36,3.09,7.24,4.25,11.75,3.29Z"/>
        <path class="cls-1" d="M39.34,40.22c1.13,1.86,3.3,1.9,4.5,.08,.84-1.27,1.24-2.62,1.02-3.96,0-.77,.05-1.36,0-1.94-.17-1.74-1.71-3.06-3.25-2.85-2.26,.32-4.01,2.58-3.6,4.83,.24,1.33,.61,2.64,1.34,3.83Z"/>
      </g>
    </g>
  </g>
</svg>