<?xml version="1.0" encoding="UTF-8"?>
<svg id="Layer_2" data-name="Layer 2" xmlns="http://www.w3.org/2000/svg" xmlns:xlink="http://www.w3.org/1999/xlink" viewBox="0 0 61.39 57.57">
  <defs>
    <style>
      .cls-1 {
        fill: #fff;
      }

      .cls-2 {
        fill: #020202;
      }

      .cls-3 {
        filter: url(#drop-shadow-1);
      }
    </style>
    <filter id="drop-shadow-1" filterUnits="userSpaceOnUse">
      <feOffset dx="1.42" dy="1.42"/>
      <feGaussianBlur result="blur" stdDeviation="5"/>
      <feFlood flood-color="#231916" flood-opacity=".5"/>
      <feComposite in2="blur" operator="in"/>
      <feComposite in="SourceGraphic"/>
    </filter>
  </defs>
  <g id="bg">
    <g id="_39" data-name="39">
      <g class="cls-3">
        <path class="cls-1" d="M49.4,51.07c6.12-4.77,10.02-10.99,11.46-18.69,.76-4.08,.75-8.18-.22-12.18-1.6-6.65-4.91-12.36-10.19-16.83-.45-.38-.86-.93-1.47-.87-2,.2-3.7-.96-5.32-1.62-3.37-1.38-6.52-.9-9.71-.09-4.31,1.09-8.29,3.1-12.25,5.07-5.58,2.78-10.98,5.93-16.6,8.61-2.54,1.21-3.81,2.98-4.39,5.55C.22,22.16,.01,24.32,0,26.52c.03,10.43,4.37,18.83,12.58,25.03,10.92,8.25,25.97,7.96,36.81-.48ZM32.24,11.61c4.91-.66,9.82-1.37,14.72-2.09,1.3-.19,2.06,.25,2.25,1.54,.15,1.06,.14,2.12-.33,3.15-1.1,2.43-2.13,4.89-3.23,7.32-.6,1.33-.52,2.78-.67,4.15-.28,2.6-.33,5.23-.03,7.86,.2,1.77,.66,3.52,.55,5.34-.05,.79-.24,1.27-1.15,1.33-1.16,.08-2.31,.29-3.47,.43-.74,.09-1.19-.11-1.26-.98-.22-2.96-.5-5.92-.31-9.68-.04-4.11,1.08-8.74,3.34-13.1,.16-.31,.39-.66,.17-.95-.26-.35-.61,0-.93,.05-2.97,.47-5.95,.92-8.92,1.4-.64,.1-1.06-.03-1.15-.74-.16-1.35-.3-2.7-.47-4.05-.09-.71,.22-.89,.89-.98Zm-18.45,5.19c.66-.56,1.37-.88,2.2-1.04,2.32-.43,4.56-1.17,6.52-2.46,1.77-1.16,3.33-.63,4.74,.35,2.91,2.03,4.93,7.24,2.45,10.94-.44,.66-.91,1.25-1.7,1.53-.27,.1-.55,.35-.41,.67,.07,.15,.4,.24,.62,.27,2.88,.46,4.44,2.35,5,5.01,1.28,6.05-1.85,10.06-7.83,11.02-3.54,.57-6.65-.4-9.42-2.62-.69-.55-.91-1.04-.37-1.83,.49-.72,.91-1.51,1.26-2.31,.51-1.17,1.07-1.07,1.94-.33,2.09,1.78,4.44,2.38,7.04,1.18,1.48-.69,2.02-1.74,1.86-3.45-.15-1.5-.94-2.55-2.36-3.04-1.02-.35-2.09-.51-3-.43-2.9,.05-2.88,.05-3.28-2.71-.18-1.25-.19-2.12,1.55-2.19,1.28-.05,2.52-.75,3.45-1.75,1.22-1.3,1.26-3.28,.13-4.69-.96-1.2-2.52-1.4-4.1-.53-1.08,.6-2.01,1.4-2.73,2.4-.49,.69-.92,.73-1.51,.09-.66-.72-1.38-1.38-2.1-2.04-.8-.73-.76-1.33,.07-2.03Z"/>
        <path class="cls-2" d="M15.82,20.87c.59,.64,1.02,.6,1.51-.09,.72-1,1.64-1.8,2.73-2.4,1.58-.88,3.14-.67,4.1,.53,1.13,1.41,1.09,3.39-.13,4.69-.94,1-2.17,1.69-3.45,1.75-1.74,.07-1.73,.94-1.55,2.19,.4,2.76,.38,2.77,3.28,2.71,.91-.07,1.98,.08,3,.43,1.42,.49,2.22,1.55,2.36,3.04,.17,1.71-.38,2.76-1.86,3.45-2.6,1.21-4.95,.6-7.04-1.18-.87-.74-1.43-.84-1.94,.33-.35,.8-.76,1.59-1.26,2.31-.55,.8-.32,1.28,.37,1.83,2.78,2.22,5.89,3.18,9.42,2.62,5.99-.96,9.11-4.97,7.83-11.02-.56-2.65-2.12-4.55-5-5.01-.22-.04-.56-.12-.62-.27-.14-.32,.14-.57,.41-.67,.79-.28,1.26-.87,1.7-1.53,2.48-3.7,.46-8.91-2.45-10.94-1.4-.98-2.97-1.51-4.74-.35-1.96,1.29-4.2,2.02-6.52,2.46-.83,.16-1.54,.48-2.2,1.04-.83,.7-.87,1.31-.07,2.03,.72,.65,1.44,1.32,2.1,2.04Z"/>
        <path class="cls-2" d="M32.97,17.39c2.97-.47,5.95-.92,8.92-1.4,.32-.05,.67-.4,.93-.05,.22,.29-.01,.64-.17,.95-2.26,4.35-3.39,8.98-3.34,13.1-.19,3.77,.09,6.72,.31,9.68,.06,.87,.52,1.07,1.26,.98,1.16-.14,2.31-.35,3.47-.43,.91-.06,1.1-.54,1.15-1.33,.12-1.81-.35-3.56-.55-5.34-.29-2.63-.25-5.27,.03-7.86,.15-1.37,.06-2.82,.67-4.15,1.1-2.43,2.13-4.89,3.23-7.32,.47-1.03,.48-2.09,.33-3.15-.19-1.29-.95-1.73-2.25-1.54-4.9,.72-9.81,1.43-14.72,2.09-.68,.09-.98,.27-.89,.98,.17,1.35,.32,2.7,.47,4.05,.08,.71,.51,.84,1.15,.74Z"/>
      </g>
    </g>
  </g>
</svg>