<?xml version="1.0" encoding="UTF-8"?>
<svg id="Layer_2" data-name="Layer 2" xmlns="http://www.w3.org/2000/svg" xmlns:xlink="http://www.w3.org/1999/xlink" viewBox="0 0 61.85 62.2">
  <defs>
    <style>
      .cls-1 {
        fill: #fff;
      }

      .cls-2 {
        fill: #fdffff;
      }

      .cls-3 {
        fill: #020202;
      }

      .cls-4 {
        filter: url(#drop-shadow-1);
      }

      .cls-5 {
        fill: #fdfdfd;
      }
    </style>
    <filter id="drop-shadow-1" filterUnits="userSpaceOnUse">
      <feOffset dx="1.42" dy="1.42"/>
      <feGaussianBlur result="blur" stdDeviation="5"/>
      <feFlood flood-color="#231916" flood-opacity=".5"/>
      <feComposite in2="blur" operator="in"/>
      <feComposite in="SourceGraphic"/>
    </filter>
  </defs>
  <g id="bg">
    <g id="_39" data-name="39">
      <g class="cls-4">
        <path class="cls-1" d="M30.56,0C13.53,.01-.04,13.78,0,30.91c-.34,17.38,13.93,31.16,30.63,31.29,18.11,.14,30.81-14.87,31.2-28.42C62.42,13.38,47.43-.01,30.56,0Zm-.53,39.7c-1.36,3.52-3.85,5.55-8.52,5.58-3.49-.18-6.97-1.8-9.43-5.37-.75-1.09-.77-1.9,.36-2.86,2.46-2.09,2.43-2.18,4.55,.29,.94,1.09,2.07,1.74,3.45,2.05,2.02,.45,3.24-.12,4.02-1.93,.82-1.91,.37-3.77-1.23-4.81-1.03-.67-2.14-1.21-3.36-1.41-1.19-.19-1.54-.86-1.33-1.95,.08-.43,.17-.86,.23-1.3,.18-1.4,.78-1.98,2.35-1.72,1.2,.2,2.56,.22,3.73-.37,1.63-.81,2.42-3.18,1.71-4.81-.62-1.4-2.5-2.1-4.28-1.48-.91,.32-1.77,.81-2.61,1.3-.7,.42-1.15,.4-1.47-.42-.22-.54-.53-1.05-.78-1.57-1.11-2.29-1.12-2.35,1.21-3.49,4.09-2,8.03-1.75,11.74,.94,2.38,1.73,3.24,5.51,2.05,8.81-.71,1.97-1.8,3.58-3.93,4.2-1.06,.31-.75,.89-.24,1.36,2.78,2.56,3.06,5.61,1.78,8.94Zm17.55-3.94c1.81,2.4,2.37,5.1,1.31,7.97-1.39,3.76-4.16,5.6-9.17,5.59-2.63-.08-5.59-1.42-7.59-4.49-1.91-2.93-1.38-9.27,3.37-11.79,1.09-.58,1.38-.99,.55-2.16-2.4-3.39-1.19-8.9,2.36-11.43,3.32-2.37,8.57-1.6,11.05,1.73,3.03,4.07,2.25,8.89-1.42,11.83-1.1,.88-1.36,1.58-.47,2.76Z"/>
        <path class="cls-3" d="M48.05,33c3.67-2.94,4.46-7.76,1.42-11.83-2.48-3.33-7.73-4.09-11.05-1.73-3.55,2.53-4.76,8.04-2.36,11.43,.83,1.18,.54,1.59-.55,2.16-4.75,2.52-5.28,8.85-3.37,11.79,2,3.07,4.96,4.41,7.59,4.49,5,.02,7.78-1.83,9.17-5.59,1.06-2.87,.5-5.56-1.31-7.97-.89-1.18-.63-1.89,.47-2.76Zm-4.81,8.41c-.34,2.1-1.68,3.14-3.77,2.94-1.71-.17-2.97-1.7-2.92-3.55-.04-2.06,.65-3.8,2.22-5.18,.3-.27,.51-.51,.99-.29,2.12,.97,3.83,3.91,3.47,6.08Zm.96-10.7c-.4,.55-1.01,.77-1.51,.31-1.24-1.15-2.59-2.28-2.45-3.98,.08-1.24,.1-2.19,.83-3,.79-.87,1.63-1.36,2.82-.98,1.21,.39,1.82,1.33,1.96,2.5,.23,1.93-.52,3.61-1.64,5.15Z"/>
        <path class="cls-3" d="M28.25,30.76c-.51-.47-.82-1.05,.24-1.36,2.13-.62,3.22-2.24,3.93-4.2,1.19-3.3,.33-7.09-2.05-8.81-3.71-2.69-7.65-2.95-11.74-.94-2.33,1.14-2.33,1.2-1.21,3.49,.26,.53,.57,1.03,.78,1.57,.33,.81,.77,.83,1.47,.42,.83-.5,1.7-.98,2.61-1.3,1.79-.63,3.67,.07,4.28,1.48,.72,1.63-.08,4-1.71,4.81-1.17,.59-2.52,.57-3.73,.37-1.57-.26-2.17,.32-2.35,1.72-.06,.44-.15,.87-.23,1.3-.21,1.1,.14,1.76,1.33,1.95,1.22,.2,2.33,.74,3.36,1.41,1.59,1.03,2.05,2.89,1.23,4.81-.78,1.81-1.99,2.39-4.02,1.93-1.38-.31-2.52-.96-3.45-2.05-2.12-2.47-2.09-2.38-4.55-.29-1.13,.96-1.11,1.77-.36,2.86,2.47,3.57,5.95,5.19,9.43,5.37,4.67-.03,7.16-2.06,8.52-5.58,1.28-3.33,1-6.38-1.78-8.94Z"/>
        <path class="cls-2" d="M39.77,35.34c-.48-.22-.69,.02-.99,.29-1.57,1.38-2.26,3.12-2.22,5.18-.05,1.85,1.22,3.38,2.92,3.55,2.09,.21,3.43-.83,3.77-2.94,.35-2.17-1.35-5.11-3.47-6.08Z"/>
        <path class="cls-5" d="M43.88,23.07c-1.19-.39-2.03,.11-2.82,.98-.73,.81-.75,1.75-.83,3-.14,1.7,1.21,2.83,2.45,3.98,.5,.46,1.11,.25,1.51-.31,1.12-1.53,1.87-3.21,1.64-5.15-.14-1.17-.74-2.1-1.96-2.5Z"/>
      </g>
    </g>
  </g>
</svg>