<?xml version="1.0" encoding="UTF-8"?>
<svg id="Layer_2" data-name="Layer 2" xmlns="http://www.w3.org/2000/svg" xmlns:xlink="http://www.w3.org/1999/xlink" viewBox="0 0 61.33 61.54">
  <defs>
    <style>
      .cls-1 {
        fill: #fff;
      }

      .cls-2 {
        fill: #020202;
      }

      .cls-3 {
        filter: url(#drop-shadow-1);
      }
    </style>
    <filter id="drop-shadow-1" filterUnits="userSpaceOnUse">
      <feOffset dx="1.42" dy="1.42"/>
      <feGaussianBlur result="blur" stdDeviation="5"/>
      <feFlood flood-color="#231916" flood-opacity=".5"/>
      <feComposite in2="blur" operator="in"/>
      <feComposite in="SourceGraphic"/>
    </filter>
  </defs>
  <g id="bg">
    <g id="_39" data-name="39">
      <g class="cls-3">
        <path class="cls-1" d="M31.16,0C13.5-.28-.66,14.24,.02,32.03c.63,16.37,14.03,28.78,29.11,29.48,18.53,.86,32.3-14.61,32.2-30.52C61.25,13.76,47.85,.27,31.16,0Z"/>
        <g>
          <path class="cls-2" d="M24.06,45.82c3.21-.69,5.56-3.04,6.13-6.11,.7-3.74-.74-7.94-3.64-8.87-.95-.31-.91-.78-.04-1.19,1.05-.5,1.81-1.3,2.39-2.29,2.54-4.35,.79-12.25-7.55-11.92-2.37-.34-4.59,.81-6.74,2.1-1.84,1.11-1.95,1.91-.71,3.62,.34,.47,.76,.9,1.06,1.4,.52,.86,1.07,.84,1.71,.16,.93-.98,2.06-1.64,3.33-2.06,2.22-.73,3.94,.53,3.95,2.84,.02,2.41-1.32,3.77-4.06,4.33-.91,.19-2.2-.52-2.67,.56-.38,.88-.17,2.02-.21,3.04,0,.1,0,.2,0,.29-.06,.82,.32,1.15,1.13,1.09,1.6-.1,3.1,.3,4.53,.98,1.51,.73,2.18,2.49,1.72,4.41-.37,1.54-1.66,2.49-3.28,2.58-1.67,.09-2.97-.66-4.33-1.47-.91-.54-1.42-2.09-2.45-1.75-.86,.28-1.36,1.57-2.1,2.34-.91,.95-.85,1.77,.09,2.63,3.36,3.09,7.24,4.25,11.75,3.29Z"/>
          <path class="cls-2" d="M34.78,17.53c-3.43,3.36-4.29,10.33-1.77,14.39,1.95,3.14,6.53,4.06,9.51,1.91,.46-.33,.96-1.04,1.47-.68,.46,.33-.08,1.06-.2,1.59-.31,1.38-.73,2.73-1.51,3.94-1.7,2.62-4.43,2.87-6.65,.64-.39-.4-.76-1.39-1.45-.82-1.03,.87-1.89,1.96-2.72,3.03-.36,.47-.07,1.03,.35,1.44,1.94,1.91,4.16,3.2,7.28,3.2,2.15,.22,4.16-.73,5.94-2.34,2.27-2.05,3.41-4.73,4.01-7.63,1.14-5.55,1.09-11.06-1.3-16.32-2.25-4.95-9.07-6.16-12.95-2.37Zm5,13.2c-1.55,.17-3.05-1.21-3.16-2.95-.04-.58-.09-1.31-.06-2.08,.02-1.31,.39-2.54,1.26-3.78,1.26-1.78,3.43-1.66,4.5,.23,.69,1.21,1.02,2.53,1.21,3.87,.33,2.26-1.48,4.46-3.75,4.71Z"/>
        </g>
      </g>
    </g>
  </g>
</svg>