<?xml version="1.0" encoding="UTF-8"?>
<svg id="Layer_2" data-name="Layer 2" xmlns="http://www.w3.org/2000/svg" xmlns:xlink="http://www.w3.org/1999/xlink" viewBox="0 0 62.26 61.23">
  <defs>
    <style>
      .cls-1 {
        fill: #fff;
      }

      .cls-2 {
        fill: #0c0c0d;
      }

      .cls-3 {
        fill: #545152;
      }

      .cls-4 {
        filter: url(#drop-shadow-1);
      }

      .cls-5 {
        fill: #fdfdff;
      }
    </style>
    <filter id="drop-shadow-1" filterUnits="userSpaceOnUse">
      <feOffset dx="1.42" dy="1.42"/>
      <feGaussianBlur result="blur" stdDeviation="5"/>
      <feFlood flood-color="#231916" flood-opacity=".5"/>
      <feComposite in2="blur" operator="in"/>
      <feComposite in="SourceGraphic"/>
    </filter>
  </defs>
  <g id="bg">
    <g id="_39" data-name="39">
      <g class="cls-4">
        <path class="cls-1" d="M30.18,61.23c-8.35-.38-15.53-3.57-21.41-9.43-3.2-3.19-5.56-7-6.99-11.4C.61,36.78-.07,33.15,0,29.38c.05-2.59,.44-5.11,1.22-7.6,1.53-4.83,3.81-9.2,7.38-12.82C12.86,4.66,17.95,1.95,23.91,.73c5.96-1.22,11.79-.91,17.55,.89,4.18,1.31,7.91,3.48,11.19,6.36,3.89,3.42,6.5,7.68,8.1,12.63,1.42,4.38,1.83,8.86,1.28,13.32-.55,4.46-1.99,8.74-4.5,12.58-2,3.05-4.38,5.76-7.24,7.99-2.57,2-5.4,3.61-8.55,4.64-1.6,.52-3.17,1.07-4.81,1.46-2.22,.52-4.46,.66-6.74,.63Z"/>
        <path class="cls-2" d="M40.18,30.35c-.3,1.11-.47,2.24-.83,3.34-.23,.68,.47,.84,.97,.96,2.32,.54,2.33,.53,1.85,2.92-.47,2.35-.46,2.33-2.91,1.92-.94-.16-1.34,.39-1.53,1.24-.37,1.64-.75,3.28-1.2,4.91-.21,.76-.68,1.47-1.63,1.01-1.24-.61-2.57-.8-3.88-1.06-.65-.13-.7-.43-.58-.91,.42-1.71,.82-3.43,1.28-5.13,.39-1.43,.26-1.72-1.22-1.95-2.89-.47-5.68-1.42-8.6-1.77-2.24-.27-2.08-.22-1.77-2.51,.24-1.74,1.09-2.92,2.27-4.09,4.12-4.07,8.2-8.2,12.25-12.35,.72-.74,1.49-.97,2.42-.77,1.73,.36,3.45,.74,5.17,1.14,.75,.18,1.05,.74,.86,1.46-.78,2.97-1.27,6-2.29,8.9-.48,.85-.95,1.71-.65,2.75Z"/>
        <path class="cls-3" d="M40.18,30.35c-.75-.61-.4-2.11,.65-2.75,.02,.97-.2,1.89-.65,2.75Z"/>
        <path class="cls-5" d="M32.35,32.93c-1.44-.28-2.88-.56-4.32-.83-.23-.04-.44-.08-.5-.36-.08-.38,.21-.5,.43-.7,2.13-1.91,4.27-3.82,5.99-6.13,.31-.42,.54-.9,.88-1.29,.19-.22,.29-.74,.73-.55,.47,.2,.13,.6,.04,.89-.48,1.69-.95,3.38-1.52,5.04-.34,1.01-.28,2.09-.62,3.09-.19,.55-.45,.95-1.11,.84Z"/>
      </g>
    </g>
  </g>
</svg>