<?xml version="1.0" encoding="UTF-8"?>
<svg id="Layer_2" data-name="Layer 2" xmlns="http://www.w3.org/2000/svg" xmlns:xlink="http://www.w3.org/1999/xlink" viewBox="0 0 62.06 61.75">
  <defs>
    <style>
      .cls-1 {
        fill: #fff;
      }

      .cls-2 {
        fill: #020202;
      }

      .cls-3 {
        filter: url(#drop-shadow-1);
      }

      .cls-4 {
        fill: #fdfdfd;
      }
    </style>
    <filter id="drop-shadow-1" filterUnits="userSpaceOnUse">
      <feOffset dx="1.42" dy="1.42"/>
      <feGaussianBlur result="blur" stdDeviation="5"/>
      <feFlood flood-color="#231916" flood-opacity=".5"/>
      <feComposite in2="blur" operator="in"/>
      <feComposite in="SourceGraphic"/>
    </filter>
  </defs>
  <g id="bg">
    <g id="_39" data-name="39">
      <g class="cls-3">
        <path class="cls-1" d="M30.46,0C14.14,.4-.11,13.41,0,31.27c.11,18.05,15.3,30.3,30.82,30.48,17.1,.14,31.42-13.75,31.23-31.27C61.88,14.05,48.76-.43,30.46,0Zm16.02,42.13c-1.34,2.48-3.33,4.1-6.23,4.22-3.23,.13-5.75-1.24-7.5-3.99-1.26-1.99-1.66-4.24-2-6.51-.09-.61-.16-1.21-.67-1.84-.63,1.11-.16,2.13-.14,3.09,.02,1.21-.31,1.76-1.57,1.57-1.14-.17-1.47,.44-1.37,1.47,.16,1.7,.28,3.41,.42,5.11,.08,.88-.2,1.38-1.21,1.37-1.07-.02-2.15,.05-3.22,.15-.91,.09-1.23-.29-1.24-1.16-.02-1.66-.1-3.32-.13-4.98-.02-1.14-.55-1.53-1.68-1.42-2.91,.29-5.84,.48-8.75,.76-.96,.09-1.13-.27-1.35-1.17-.9-3.7,1.27-6.48,2.67-9.47,1.76-3.76,3.72-7.42,5.53-11.15,.51-1.05,1.12-1.59,2.34-1.56,1.41,.03,2.83-.09,4.24-.23,.92-.09,1.15,.26,1.21,1.14,.36,4.82,.61,9.65,.73,14.48,.03,1.09,.28,1.59,1.49,1.56,2.26-.06,2.14,.02,1.95-2.22-.34-4.15-.49-8.32,1.52-12.18,1.57-3.03,4.18-4.42,7.51-4.44,3.15-.01,5.31,1.65,6.77,4.32,1.99,3.65,2.61,7.62,2.69,11.7,.08,3.91-.08,7.8-2,11.36Z"/>
        <path class="cls-2" d="M45.79,19.08c-1.46-2.67-3.63-4.34-6.77-4.32-3.33,.02-5.94,1.41-7.51,4.44-2.01,3.87-1.85,8.03-1.52,12.18,.18,2.24,.31,2.16-1.95,2.22-1.21,.03-1.47-.47-1.49-1.56-.11-4.83-.37-9.66-.73-14.48-.07-.87-.29-1.23-1.21-1.14-1.41,.14-2.83,.26-4.24,.23-1.22-.03-1.83,.52-2.34,1.56-1.81,3.73-3.77,7.39-5.53,11.15-1.4,2.99-3.57,5.77-2.67,9.47,.22,.9,.39,1.26,1.35,1.17,2.91-.29,5.84-.48,8.75-.76,1.13-.11,1.66,.27,1.68,1.42,.03,1.66,.11,3.32,.13,4.98,0,.87,.34,1.25,1.24,1.16,1.07-.1,2.15-.17,3.22-.15,1.01,.01,1.28-.48,1.21-1.37-.14-1.7-.27-3.41-.42-5.11-.09-1.03,.24-1.64,1.37-1.47,1.26,.19,1.6-.36,1.57-1.57-.02-.96-.49-1.98,.14-3.09,.52,.63,.58,1.22,.67,1.84,.33,2.27,.73,4.53,2,6.51,1.75,2.75,4.26,4.12,7.5,3.99,2.9-.12,4.89-1.74,6.23-4.22,1.92-3.56,2.09-7.45,2-11.36-.09-4.08-.7-8.06-2.69-11.7Zm-26.06,15.19c-1.06-.01-2.14,.13-3.19,.28-.84,.13-1.02-.16-.65-.85,1.61-3.06,3.25-6.09,4.13-9.47,.08-.32,.23-.73,.66-.64,.42,.09,.35,.53,.37,.86,.02,.39,0,.78,0,1.29-.45,2.27-.19,4.64,.03,7.02,.1,1.03-.21,1.53-1.34,1.51Zm22.43,3.2c-.06,.33,.02,.71-.1,1.01-.5,1.23-1.02,2.59-2.61,2.61-1.47,.01-2-1.28-2.43-2.4-.83-2.16-.94-4.48-1.17-6.75-.31-3.09-.7-6.2,.1-9.3,.35-1.36,1.06-2.35,2.51-2.46,1.44-.11,2.1,1.04,2.45,2.13,.91,2.79,1.31,5.69,1.28,8.64-.1,2.18,.35,4.35-.03,6.53Z"/>
        <path class="cls-1" d="M42.19,30.93c.03-2.95-.37-5.84-1.28-8.64-.36-1.09-1.01-2.25-2.45-2.13-1.45,.11-2.16,1.1-2.51,2.46-.8,3.1-.4,6.2-.1,9.3,.22,2.27,.34,4.59,1.17,6.75,.43,1.12,.96,2.42,2.43,2.4,1.59-.01,2.11-1.37,2.61-2.61,.12-.3,.04-.68,.1-1.01,.39-2.18-.07-4.35,.03-6.53Z"/>
        <path class="cls-4" d="M21.04,25.73c0-.51,.01-.9,0-1.29-.02-.33,.05-.77-.37-.86-.43-.09-.58,.32-.66,.64-.88,3.37-2.52,6.41-4.13,9.47-.37,.69-.19,.98,.65,.85,1.06-.16,2.13-.3,3.19-.28,1.13,.01,1.44-.48,1.34-1.51-.23-2.37-.48-4.75-.03-7.02Z"/>
      </g>
    </g>
  </g>
</svg>