<?xml version="1.0" encoding="UTF-8"?>
<svg id="Layer_2" data-name="Layer 2" xmlns="http://www.w3.org/2000/svg" xmlns:xlink="http://www.w3.org/1999/xlink" viewBox="0 0 62.15 58.31">
  <defs>
    <style>
      .cls-1 {
        fill: #fff;
      }

      .cls-2 {
        fill: #020202;
      }

      .cls-3 {
        filter: url(#drop-shadow-1);
      }

      .cls-4 {
        fill: #fbfbfc;
      }

      .cls-5 {
        fill: #c7c5c7;
      }

      .cls-6 {
        fill: #807f80;
      }

      .cls-7 {
        fill: #cccacb;
      }

      .cls-8 {
        fill: #aaa8aa;
      }
    </style>
    <filter id="drop-shadow-1" filterUnits="userSpaceOnUse">
      <feOffset dx="1.42" dy="1.42"/>
      <feGaussianBlur result="blur" stdDeviation="5"/>
      <feFlood flood-color="#231916" flood-opacity=".5"/>
      <feComposite in2="blur" operator="in"/>
      <feComposite in="SourceGraphic"/>
    </filter>
  </defs>
  <g id="bg">
    <g id="_39" data-name="39">
      <g class="cls-3">
        <path class="cls-1" d="M59.53,24.88c-4.13-2.47-8.16-5.13-11.97-8.08-2.89-2.24-5.57-4.74-8.59-6.81-1.46-1-2.89-2.1-3.89-3.52-1.1-1.57-2.44-2.89-3.82-4.16C30.18,1.32,29.08-.04,27.51,0c-3.15,.09-6.35,.16-9.33,1.46C7.95,5.91,2.2,13.83,.36,24.71c-.62,3.69-.48,7.42,.69,10.99,2.15,6.55,6.59,11.25,12.42,14.75,6.08,3.65,12.61,6.07,19.57,7.33,4.74,.86,9.43,.87,13.83-1.43,3.43-1.79,6.09-4.47,8.43-7.55,4.18-5.5,6.72-11.56,6.8-18.54,0-.39-.04-.79,0-1.17,.23-2.09-.83-3.15-2.6-4.21Zm-28.72,8.8c0,.44-.13,.88-.09,1.31,.12,1.3-.44,1.81-1.7,1.58-1.32-.24-1.71,.35-1.62,1.62,.1,1.41-.08,2.84,.04,4.24,.12,1.36-.39,1.77-1.65,1.52-.28-.06-.58-.04-.69-.04-2.77-.25-2.8-.25-2.94-2.84-.06-1.17-.06-2.34,0-3.51,.05-1.02-.43-1.31-1.34-1.17-2.87,.45-5.74-.1-8.61-.08-.58,0-.97-.26-.96-.85,.04-1.68-.2-3.34,.69-4.98,2.78-5.14,5.66-10.23,8.58-15.29,.53-.92,1.16-1.32,2.23-1.21,1.41,.15,2.82,.19,4.24,.26,1.22,.06,1.22,.99,1.2,1.8-.04,2.92-.12,5.85-.25,8.77-.08,1.75-.23,3.49-.43,5.23-.12,1.06,.03,1.61,1.32,1.56,2.03-.09,2.04,0,2,2.1Zm26.76-.04c-.25,.15-.52,.34-.81,.14-.58-.42-1.3-.7-1.59-1.45-.85-2.22-2.58-3.72-4.29-5.24-.3-.27-.65-.6-1.02-.43-1.38,.64-1.78-.28-2.41-1.22-.83-1.24-2.62-1.81-2.57-3.71,0-.21-.48-.44-.74-.66-.51,2.15-.24,4.35-.39,6.52-.22,3.16-.31,6.33-.5,9.49-.12,2.07,0,2.22,2.01,2.07,3.03-.23,3.01-.23,2.96,2.76-.07,3.55,.02,2.8-2.96,2.84-4.15,.06-8.29-.21-12.44-.47-.91-.06-1.35-.35-1.32-1.31,.04-1.02,.02-2.05-.03-3.08-.04-.8,.35-1.03,1.07-.99,1.12,.07,2.25,.09,3.36,.19,.88,.08,1.21-.18,1.16-1.12-.18-3.6-.16-7.21,.03-10.82,.08-1.46,.15-2.92,.36-4.37,.13-.91-.08-1.3-1.02-1.24-.54,.04-1.07,0-1.61,.01q-2.1,.01-2.21-1.98c-.57-1.88-.39-2.39,.92-2.65,.58-.1,1.16-.21,1.74-.31,0,0,0,0,0,0,.1-.1,.19-.19,.29-.29-.78-.54-1.49-1.61-2.48-.23-.24,.33-.53-.01-.65-.28-.87-1.92-2.78-2.56-4.36-3.63-2.54-1.73-5.24-3.17-7.99-4.51-.99-.48-1.38-1.74-2.76-1.83-.62-.04-.91-1.09-.9-1.84,0-.71,.69-.76,1.17-.87,1.12-.26,2.1-1.06,3.32-.89h0c2.47-.64,4.94-1.72,7.39,.03,.42,.3,.9,.59,1.03,1.16h0c1.15,1.52,2.33,3.02,3.45,4.56,1.83,2.53,3.43,5.25,5.76,7.39h0c2.1,1.48,3.56,3.69,5.75,5.07h0c1.29,.45,2.57,.94,3.68,1.74,.57,.41,1.83,.36,1.21,1.71-.06,.14,.6,.72,1.01,.95,1.99,1.1,3.46,2.8,5.1,4.3,1.14,1.05,1.33,2.7,2.36,3.83,.18,.2,.17,.45-.1,.61Z"/>
        <path class="cls-1" d="M29.19,7.68s-.03-.02-.04-.03c0,.01,0,.02,0,.03,.01,0,.03,0,.04,0Z"/>
        <path class="cls-2" d="M28.8,31.58c-1.29,.06-1.44-.5-1.32-1.56,.2-1.74,.35-3.48,.43-5.23,.13-2.92,.21-5.85,.25-8.77,.01-.81,.01-1.74-1.2-1.8-1.41-.07-2.83-.11-4.24-.26-1.07-.11-1.7,.3-2.23,1.21-2.92,5.07-5.8,10.15-8.58,15.29-.89,1.64-.65,3.3-.69,4.98-.01,.59,.38,.85,.96,.85,2.87-.02,5.73,.53,8.61,.08,.91-.14,1.39,.15,1.34,1.17-.05,1.17-.06,2.34,0,3.51,.14,2.59,.17,2.59,2.94,2.84,.11,0,.41-.02,.69,.04,1.26,.25,1.77-.16,1.65-1.52-.12-1.41,.06-2.83-.04-4.24-.09-1.27,.3-1.85,1.62-1.62,1.26,.23,1.82-.28,1.7-1.58-.04-.43,.08-.87,.09-1.31,.03-2.1,.02-2.19-2-2.1Zm-7.09-.23c-.78,.61-1.99,.11-3,.14-.5,.01-1.14,.37-1.48-.23-.39-.69,.36-1,.65-1.47,1.25-2.03,2.6-4.01,3.43-6.27,.19-.53,.3-1.13,1.18-1.75-.13,2.39-.17,4.47-.38,6.53-.11,1.03,.5,2.34-.39,3.04Z"/>
        <path class="cls-2" d="M44.31,20.49c-2.19-1.38-3.65-3.59-5.75-5.07h0c-.88-.34-1.33,.56-2.05,.69-.3,.43-.68,.68-1.22,.51h0s0,0,0,0c-.58,.1-1.16,.21-1.74,.31-1.34,.52-.72,1.73-.92,2.65q.12,2,2.21,1.98c.54,0,1.08,.02,1.61-.01,.94-.06,1.15,.33,1.02,1.24-.21,1.44-.28,2.91-.36,4.37-.2,3.6-.21,7.21-.03,10.82,.05,.95-.28,1.21-1.16,1.12-1.12-.1-2.24-.12-3.36-.19-.72-.05-1.1,.19-1.07,.99,.05,1.02,.06,2.05,.03,3.08-.03,.96,.41,1.25,1.32,1.31,4.14,.25,8.28,.53,12.44,.47,2.98-.04,2.9,.71,2.96-2.84,.06-2.99,.07-2.99-2.96-2.76-2.01,.15-2.14,0-2.01-2.07,.18-3.16,.28-6.33,.5-9.49,.15-2.17-.12-4.37,.39-6.52,.06-.19,.11-.38,.17-.57h0Z"/>
        <path class="cls-5" d="M35.6,15.65c-1.07-.38-1.79-1.3-2.84-1.73-.97-.39-2.17-.65-2.49-1.95-.08-.31-.3-.46-.58-.59-1.2-.53-1.19-.54-.96-1.77,.06-.34-.23-.5-.44-.7-.3-.29-1.11-.17-.78-.95,.3-.7,.9-.25,1.65-.29,0-.01,0-.02,0-.03-1.53-1.06-1.66-3.25-3.78-3.39-.07,0-.15-.11-.2-.19-.53-.93-1.11-1.09-2.06-.55-.29,.17-.57,.37-.85,.56-.78,.5-1.47,.15-1.94-.42-.56-.69,.34-.94,.61-1.39-1.23-.16-2.2,.64-3.32,.89-.47,.11-1.16,.16-1.17,.87,0,.75,.28,1.8,.9,1.84,1.37,.09,1.77,1.34,2.76,1.83,2.75,1.34,5.45,2.78,7.99,4.51,1.58,1.07,3.49,1.71,4.36,3.63,.12,.26,.41,.61,.65,.28,.99-1.39,1.7-.31,2.48,.23,.38-.22,.28-.59,.02-.68Z"/>
        <path class="cls-8" d="M36.73,15.66c.21-.46,.26-.87-.7-.89-.44,0-.35-.38-.51-.58-.63-.79-1.22-1.62-2.24-2.01-.34-.13-.83-.42-.88-.7-.26-1.63-1.52-2.73-2.12-4.18-.33-.8-.93-1.48-1.33-2.26-.37-.71-.65-1.47-1.02-2.32,.68,.12,.88,.74,1.42,.73-.13-.58-.61-.86-1.03-1.16-2.45-1.76-4.93-.67-7.39-.03h0c.18,.44-.46,.95,.11,1.34,.53,.36,1.02,.12,1.5-.14,1.23-.67,2.16-1.06,3.5,.34,.91,.95,1.82,1.94,2.7,2.94,.31,.35,.47,.66,.43,.9,.01,.01,.03,.02,.04,.03-.01,0-.03,0-.04,0-.07,.25-.39,.41-1.07,.44,.44,.71,1.26,1.19,.76,2.09-.07,.12,0,.35,.12,.39,1.62,.6,2.15,2.64,3.99,2.99,1.12,.21,1.81,1.22,2.76,1.77,.32,.18,.73,.75-.13,.96-.1,.1-.19,.19-.29,.29,.46-.15,.74-.54,1.13-.78,.11-.05,.21-.11,.31-.17Z"/>
        <path class="cls-8" d="M36.51,16.11c.07-.15,.15-.3,.22-.45-.1,.06-.21,.13-.31,.17-.39,.24-.67,.64-1.13,.78h0c.55,.17,.92-.08,1.22-.51Z"/>
        <path class="cls-8" d="M35.71,15.37c-.95-.55-1.65-1.56-2.76-1.77-1.85-.35-2.37-2.39-3.99-2.99-.12-.04-.18-.27-.12-.39,.5-.9-.32-1.38-.76-2.09,.68-.03,1-.19,1.07-.44-.75,.05-1.35-.4-1.65,.29-.33,.77,.48,.66,.78,.95,.21,.2,.5,.36,.44,.7-.23,1.23-.24,1.23,.96,1.77,.29,.13,.51,.28,.58,.59,.32,1.3,1.51,1.55,2.49,1.95,1.06,.43,1.78,1.34,2.84,1.73,.26,.09,.36,.46-.02,.68,.86-.21,.45-.78,.13-.96Z"/>
        <path class="cls-8" d="M20.32,3.65c.47,.57,1.16,.91,1.94,.42,.29-.18,.56-.39,.85-.56,.95-.54,1.53-.38,2.06,.55,.04,.08,.13,.18,.2,.19,2.12,.15,2.25,2.34,3.78,3.39,.05-.24-.12-.55-.43-.9-.88-1-1.79-1.99-2.7-2.94-1.33-1.4-2.26-1.01-3.5-.34-.48,.26-.97,.5-1.5,.14-.57-.39,.07-.9-.11-1.34h0c-.27,.44-1.17,.7-.61,1.39Z"/>
        <path class="cls-7" d="M55.3,29.19c-1.64-1.5-3.11-3.21-5.1-4.3-.41-.22-1.07-.81-1.01-.95,.62-1.35-.64-1.3-1.21-1.71-1.11-.81-2.39-1.3-3.68-1.74h0c.25,.28,.02,.42-.17,.57,.26,.22,.75,.45,.74,.66-.05,1.91,1.73,2.47,2.57,3.71,.63,.95,1.03,1.86,2.41,1.22,.38-.18,.72,.16,1.02,.43,1.71,1.52,3.44,3.03,4.29,5.24,.29,.76,1,1.03,1.59,1.45,.29,.21,.56,.01,.81-.14,.27-.16,.28-.41,.1-.61-1.02-1.13-1.22-2.79-2.36-3.83Z"/>
        <path class="cls-7" d="M44.31,20.49c-.06,.19-.11,.38-.17,.57,.2-.15,.42-.29,.17-.57Z"/>
        <path class="cls-6" d="M28.35,3.16c1.29,2.07,1.94,4.21,3.56,5.79,.1,.1,.24,.22,.24,.36,.08,2.83,2.94,3.36,4.32,5.11,.38,.48,.57,.79,.5,1.09,.47-.31,.95-.59,1.58-.09-2.33-2.14-3.93-4.86-5.76-7.39-1.12-1.54-2.3-3.04-3.45-4.56h0c-.3,.2-.54,.08-1-.3Z"/>
        <path class="cls-6" d="M36.98,15.5c-.05,.19-.19,.38-.47,.61,.72-.13,1.17-1.03,2.05-.69h0c-.63-.5-1.11-.22-1.58,.09Z"/>
        <path class="cls-6" d="M28.95,5.05c.41,.77,1.01,1.46,1.33,2.26,.59,1.45,1.86,2.54,2.12,4.18,.04,.28,.53,.57,.88,.7,1.02,.38,1.61,1.22,2.24,2.01,.16,.2,.07,.57,.51,.58,.97,.02,.91,.43,.7,.89,.08-.05,.16-.1,.25-.16,.07-.3-.12-.61-.5-1.09-1.39-1.75-4.24-2.28-4.32-5.11,0-.14-.14-.26-.24-.36-1.62-1.57-2.27-3.72-3.56-5.79,.46,.38,.7,.5,1,.3h0c-.54,0-.74-.61-1.42-.73,.36,.84,.64,1.6,1.02,2.32Z"/>
        <path class="cls-6" d="M36.98,15.5c-.08,.05-.16,.11-.25,.16-.07,.15-.15,.3-.22,.45,.27-.23,.42-.42,.47-.61Z"/>
        <path class="cls-5" d="M33.54,16.93c-1.32,.26-1.49,.77-.92,2.65-.07-1.01-.61-2.19,.92-2.65Z"/>
        <path class="cls-5" d="M33.54,16.93c-1.53,.45-.99,1.63-.92,2.65,.2-.92-.42-2.12,.92-2.65Z"/>
        <path class="cls-4" d="M22.49,21.78c-.89,.61-.99,1.22-1.18,1.75-.83,2.26-2.18,4.24-3.43,6.27-.29,.47-1.04,.78-.65,1.47,.34,.6,.99,.24,1.48,.23,1.02-.03,2.23,.47,3-.14,.89-.7,.29-2.01,.39-3.04,.22-2.06,.25-4.14,.38-6.53Z"/>
      </g>
    </g>
  </g>
</svg>