<?xml version="1.0" encoding="UTF-8"?>
<svg id="Layer_2" data-name="Layer 2" xmlns="http://www.w3.org/2000/svg" xmlns:xlink="http://www.w3.org/1999/xlink" viewBox="0 0 62.01 51.45">
  <defs>
    <style>
      .cls-1 {
        fill: #fff;
      }

      .cls-2 {
        filter: url(#drop-shadow-1);
      }

      .cls-3 {
        fill: #090809;
      }
    </style>
    <filter id="drop-shadow-1" filterUnits="userSpaceOnUse">
      <feOffset dx="1.42" dy="1.42"/>
      <feGaussianBlur result="blur" stdDeviation="5"/>
      <feFlood flood-color="#231916" flood-opacity=".5"/>
      <feComposite in2="blur" operator="in"/>
      <feComposite in="SourceGraphic"/>
    </filter>
  </defs>
  <g id="bg">
    <g id="_39" data-name="39">
      <g class="cls-2">
        <path class="cls-1" d="M.06,20.64c-.12-4.24,.61-8.06,2.24-11.73,1.4-3.16,3.55-5.72,6.2-7.88C9.44,.27,10.66,.02,11.89,0c2.08-.03,4.13,.2,6.19,.44,3.8,.44,7.6,.91,11.4,1.27,6.78,.65,13.55,1.33,20.36,1.62,3.86,.16,6.48,2.3,8.73,5.09,1.95,2.42,2.77,5.29,3.2,8.31,.32,2.24,.34,4.49,0,6.72-.31,2.02-.59,4.03-1.2,6.01-.61,1.98-1.5,3.81-2.45,5.62-1.78,3.38-4.09,6.39-7.02,8.85-3.05,2.57-6.44,4.57-10.29,5.81-6.2,1.99-12.39,2.38-18.67,.41-6.38-2-11.44-5.76-15.56-11-2.27-2.89-4.02-6-5.06-9.46C.62,26.68-.23,23.61,.06,20.64Z"/>
        <path class="cls-3" d="M40.07,33.39c-3.3,1.96-6.85,2.28-10.49,1.34-1.74-.45-3.33-1.36-4.73-2.54-.35-.3-.35-.58-.13-.98,.55-.98,1.07-1.98,1.53-3.01,.4-.87,.84-1.02,1.63-.4,1.48,1.17,3.17,1.82,5.08,1.87,2.69,.07,4.5-1.64,4.52-4.31,0-1.02,0-2.01-.45-2.98-1.13-2.46-2.94-2.69-5.48-1.8-.74,.26-1.43,.68-2,1.24-.24,.24-.49,.47-.83,.55-1.4,.34-3.63-1.22-3.97-2.61-.38-1.59-.03-3.2-.29-4.78-.34-2.09-.59-4.19-.94-6.27-.19-1.13,.39-1.44,1.33-1.51,2.96-.21,5.93-.42,8.89-.63,1.46-.11,2.93-.2,4.39-.34,.78-.07,1.22,.18,1.55,.94,.38,.88,.62,1.76,.65,2.71,.02,.56-.21,.82-.78,.87-2.81,.24-5.61,.52-8.43,.71-.7,.05-.92,.24-.87,.92,.08,1.01,.1,2.03,.11,3.04,.01,.83,.32,.93,1.06,.61,2.51-1.11,5.06-1.21,7.66-.21,2.19,.84,3.33,2.6,4.16,4.61,.37,.91,.59,1.88,.87,2.82,.15,.74,.1,1.18,.15,1.63v1.44c-.06,.43-.07,1.24-.39,1.61-.43,.92-.86,1.84-1.3,2.76-.66,1.08-1.7,1.92-2.53,2.68Z"/>
      </g>
    </g>
  </g>
</svg>