<?xml version="1.0" encoding="UTF-8"?>
<svg id="Layer_2" data-name="Layer 2" xmlns="http://www.w3.org/2000/svg" xmlns:xlink="http://www.w3.org/1999/xlink" viewBox="0 0 59.79 62.04">
  <defs>
    <style>
      .cls-1 {
        fill: #fff;
      }

      .cls-2 {
        fill: #838283;
      }

      .cls-3 {
        fill: #09080a;
      }

      .cls-4 {
        filter: url(#drop-shadow-1);
      }

      .cls-5 {
        fill: #989595;
      }
    </style>
    <filter id="drop-shadow-1" filterUnits="userSpaceOnUse">
      <feOffset dx="1.42" dy="1.42"/>
      <feGaussianBlur result="blur" stdDeviation="5"/>
      <feFlood flood-color="#231916" flood-opacity=".5"/>
      <feComposite in2="blur" operator="in"/>
      <feComposite in="SourceGraphic"/>
    </filter>
  </defs>
  <g id="bg">
    <g id="_39" data-name="39">
      <g class="cls-4">
        <path class="cls-1" d="M41.8,59.22c-1.81,.78-3.64,1.47-5.55,2.02-3.5,1-7.01,.96-10.57,.44-3.43-.5-6.73-1.37-9.85-2.9-3.62-1.77-6.73-4.2-9.52-7.1-1.93-2.01-3.45-4.27-4.52-6.8-1.62-3.83-2.34-7.76-1.3-11.94,1.05-4.21,3.48-7.59,6.1-10.85,3.63-4.53,7.75-8.62,12.08-12.49,2.94-2.62,5.88-5.27,9.15-7.48,1.87-1.27,3.91-2.5,6.25-2.02,2.5,.51,5.05,1.05,7.36,2.22,3.49,1.76,6.78,3.86,9.52,6.71,4.19,4.37,6.99,9.44,8.24,15.4,.67,3.16,.76,6.33,.46,9.49-.21,2.22-1.05,4.37-1.85,6.46-1.68,4.41-3.95,8.51-7.12,12.03-2.21,2.46-7.59,6.19-7.71,6.14-.12,.07-.63,.42-1.16,.66Z"/>
        <path class="cls-3" d="M35.45,21.93c-1.05-.72-2.05-1.63-3.37-1.68-2.89-.12-4.31,1.47-5.05,4.39-.39,1.55-.42,3.15-.93,5.07,2.8-2.77,5.77-4.37,9.55-3.48,.58,.35,1.22,.6,1.77,.98,1.08,.75,2.04,1.56,2.55,2.88,.62,1.62,1.17,3.23,1.36,4.95,.57,2.02,.24,3.93-.69,5.77-1.75,3.47-5.61,5.5-9.52,5.15-3.72-.33-6.01-2.54-7.76-5.57-.82-1.44-1.42-2.97-1.87-4.55-.19-.67,.04-1.48-.22-2.1-.84-2.07-.51-4.2-.55-6.32-.04-1.95,.75-3.69,1.44-5.46,.82-2.12,2.21-3.83,3.89-5.3,1.07-.94,2.5-1.36,3.81-1.5,2.4-.26,4.88-.35,7.14,.96,.68,.39,1.09,.97,1.54,1.53,.26,.33,.31,.89-.15,1.09-1.02,.43-1.31,1.3-1.58,2.22-.47,.29-.5,1.21-1.36,.95Z"/>
        <path class="cls-5" d="M35.45,21.93c.71,.06,.63-1.02,1.36-.95-.29,1.3-.46,1.42-1.36,.95Z"/>
        <path class="cls-1" d="M31.87,30.89c1.08,.07,1.98,.52,2.46,1.51,.89,1.85,1.32,3.77,.81,5.84-.34,1.36-.89,2.54-2.42,2.74-1.65,.22-2.81-.66-3.63-2-.45-.73-.77-1.54-1.12-2.32-.87-1.97,0-4.26,1.98-5.16,.6-.27,1.19-.67,1.92-.62Z"/>
        <path class="cls-2" d="M35.75,34.12c.54,.73,.38,1.52,.39,2.45-.75-.84-.33-1.69-.39-2.45Z"/>
      </g>
    </g>
  </g>
</svg>