<?xml version="1.0" encoding="UTF-8"?>
<svg id="Layer_2" data-name="Layer 2" xmlns="http://www.w3.org/2000/svg" xmlns:xlink="http://www.w3.org/1999/xlink" viewBox="0 0 62.68 62.56">
  <defs>
    <style>
      .cls-1 {
        fill: #fff;
      }

      .cls-2 {
        fill: #4a4648;
      }

      .cls-3 {
        fill: #09090a;
      }

      .cls-4 {
        filter: url(#drop-shadow-1);
      }
    </style>
    <filter id="drop-shadow-1" filterUnits="userSpaceOnUse">
      <feOffset dx="1.42" dy="1.42"/>
      <feGaussianBlur result="blur" stdDeviation="5"/>
      <feFlood flood-color="#231916" flood-opacity=".5"/>
      <feComposite in2="blur" operator="in"/>
      <feComposite in="SourceGraphic"/>
    </filter>
  </defs>
  <g id="bg">
    <g id="_39" data-name="39">
      <g class="cls-4">
        <path class="cls-1" d="M62.65,31.17c-.07,6.82-1.82,12.59-5.51,17.8-1.69,2.39-3.62,4.58-5.81,6.42-2.01,1.69-4.25,3.19-6.7,4.29-1.82,.82-3.68,1.39-5.59,1.94-2.77,.8-5.54,1.01-8.32,.93-4.7-.13-9.11-1.44-13.34-3.57-3.5-1.76-6.43-4.21-9.05-6.98-2.73-2.89-4.89-6.23-6.34-10.01C.26,37.51-.39,32.89,.23,28.19c.43-3.24,1.38-6.4,2.83-9.4C6.52,11.62,11.81,6.24,18.96,2.81c6.92-3.32,14.11-3.66,21.41-1.24,5.89,1.96,10.64,5.54,14.66,10.22,3.43,3.99,5.58,8.61,6.82,13.63,.49,2,.98,4.1,.81,5.74Z"/>
        <path class="cls-3" d="M30.72,25.76c.3-1.14,.91-2.12,1.47-3.14,.32-.58,.5-1.08-.56-.94-2.3,.32-4.63,.5-6.92,.89-1.15,.2-2.32,.24-3.46,.48-.93,.19-1.2-.37-1.06-1.08,.21-1.04,.06-2.04-.18-3.01-.23-.96,.22-1.25,.98-1.37,1.23-.18,2.46-.3,3.69-.47,2.22-.31,4.44-.63,6.66-.95,.07-.01,.15-.07,.21-.06,2.19,.21,4.24-.66,6.38-.86,1.36-.12,1.58,.25,1.91,1.57,.43,1.76-.31,3.08-1.03,4.55-1.63,3.28-3.06,6.62-3.82,10.28-.86,4.22-.2,8.38-.16,12.56,.01,1.52-.11,1.78-1.62,1.94-1.3,.14-2.62,.23-3.93,.24-1,0-.99-.95-1.02-1.55-.15-3.11-.39-6.23,0-9.35,.49-.95,.21-2,.41-2.99-.08-1.18,.33-2.25,.75-3.32,.62,.17,.37,.63,.3,.99-.13,.73-.42,1.43-.45,2.02,.4-2.05,1.04-4.22,1.45-6.44Z"/>
        <path class="cls-2" d="M30.72,25.76c.16,2.58-1.09,4.85-1.52,7.3-.19-.65-.09-1.77,.14-2.28,.24-.53,.39-1.05,.07-1.59,.27-1.21,.8-2.31,1.31-3.43Z"/>
        <path class="cls-2" d="M28.66,32.51c.09,1.03,.22,2.06-.41,2.99,.14-1,.27-1.99,.41-2.99Z"/>
      </g>
    </g>
  </g>
</svg>