<?xml version="1.0" encoding="UTF-8"?>
<svg id="Layer_2" data-name="Layer 2" xmlns="http://www.w3.org/2000/svg" xmlns:xlink="http://www.w3.org/1999/xlink" viewBox="0 0 62.59 62.74">
  <defs>
    <style>
      .cls-1 {
        fill: #fff;
      }

      .cls-2 {
        fill: #020202;
      }

      .cls-3 {
        filter: url(#drop-shadow-1);
      }
    </style>
    <filter id="drop-shadow-1" filterUnits="userSpaceOnUse">
      <feOffset dx="1.42" dy="1.42"/>
      <feGaussianBlur result="blur" stdDeviation="5"/>
      <feFlood flood-color="#231916" flood-opacity=".5"/>
      <feComposite in2="blur" operator="in"/>
      <feComposite in="SourceGraphic"/>
    </filter>
  </defs>
  <g id="bg">
    <g id="_39" data-name="39">
      <g class="cls-3">
        <path class="cls-1" d="M30.76,62.73c18.16,.47,32.46-14.23,31.8-32.63C61.99,14.02,48.43-.4,30.76,0,14.28,.16-.82,13.5,.03,32.53c.74,16.55,14.01,29.77,30.73,30.2ZM22.32,18.52c4.36-4.61,12.09-3.93,15.38,1.97,1.66,2.97,2.54,5.04,2.5,9.96,.14,4.12-.48,7.76-2.32,11.18-2.29,4.26-8.23,6.35-12.62,4.31-1.26-.59-2.51-1.22-3.58-2.13-.58-.49-.81-.96-.19-1.63,.66-.71,1.26-1.49,1.85-2.27,.53-.7,.95-.61,1.59-.07,3.04,2.61,6.38,1.92,8.24-1.64,.68-1.3,.79-2.75,1.22-4.12,.09-.29,.16-.7-.15-.9-.31-.2-.62,.09-.89,.24-.54,.27-1.07,.56-1.57,.9-3.41,2.35-7.75,.64-9.91-2.14-2.57-3.31-2.57-10.46,.47-13.67Z"/>
        <path class="cls-2" d="M31.76,34.33c.49-.34,1.03-.62,1.57-.9,.28-.14,.58-.43,.89-.24,.31,.2,.24,.61,.15,.9-.43,1.37-.54,2.82-1.22,4.12-1.86,3.55-5.19,4.25-8.24,1.64-.64-.55-1.06-.63-1.59,.07-.59,.78-1.18,1.56-1.85,2.27-.62,.67-.38,1.14,.19,1.63,1.08,.91,2.32,1.54,3.58,2.13,4.39,2.05,10.33-.05,12.62-4.31,1.84-3.42,2.46-7.06,2.32-11.18,.04-4.92-.84-6.99-2.5-9.96-3.29-5.9-11.01-6.58-15.38-1.97-3.04,3.21-3.05,10.36-.47,13.67,2.16,2.77,6.5,4.48,9.91,2.14Zm-5.66-11.33c.52-1.37,1.43-2.4,3.02-2.52,1.63-.12,2.78,.68,3.49,2.07,.65,1.27,1.29,2.57,1.29,4.06-.01,1.8-1.8,3.61-3.97,4.01-1.84,.34-3.24-.51-3.87-2.56-.5-1.66-.6-3.39,.03-5.06Z"/>
        <path class="cls-1" d="M29.93,30.61c2.17-.4,3.96-2.21,3.97-4.01,0-1.49-.64-2.79-1.29-4.06-.71-1.39-1.85-2.19-3.49-2.07-1.59,.12-2.5,1.15-3.02,2.52-.63,1.66-.54,3.4-.03,5.06,.62,2.04,2.02,2.89,3.87,2.56Z"/>
      </g>
    </g>
  </g>
</svg>