<?xml version="1.0" encoding="UTF-8"?>
<svg id="Layer_2" data-name="Layer 2" xmlns="http://www.w3.org/2000/svg" viewBox="0 0 362.3 169.73">
  <defs>
    <style>
      .cls-1 {
        fill: #231916;
      }
    </style>
  </defs>
  <g id="title">
    <g>
      <path class="cls-1" d="M172.85,6.64l-2.35,3.52c-5.8-.26-10.88,.72-15.25,2.93-2.08-.2-5.21-.59-9.38-1.17-.59,.13-3.13,.88-7.62,2.25-3.19,.98-5.77,1.46-7.72,1.46-.78,0-1.5-.06-2.15-.2-1.17,1.3-3.06,3.26-5.67,5.86h-2.15l-.59,.88c-1.3,.59-2.96,1.76-4.98,3.52-2.02,1.76-3.68,2.93-4.98,3.52v.78l-2.15,2.15h16.42c.78,.07,3.06,.75,6.84,2.05,3.45,1.17,5.7,1.66,6.75,1.46,2.41,1.11,5.87,3,10.36,5.66,1.5,3.06,3.26,7.75,5.28,14.06-.39,3.91-1.17,7.85-2.34,11.82-1.11,.98-2.51,3.16-4.2,6.54-1.95,3.71-3.48,6.22-4.59,7.52-2.73,1.3-6.67,3.45-11.82,6.45v.78c-1.69,1.43-4.41,2.8-8.15,4.1-3.74,1.3-5.97,2.28-6.69,2.93h-2.93l-3.52,1.37-.78,2.93-2.73,1.37-3.52-1.37c-.52-3.25-1.76-5.86-3.71-7.81v-2.15h3.71l2.73-1.37c2.86,1.17,4.75,1.63,5.66,1.37l7.81-2.15v-.78l2.15-.59v-.78l4.3-2.15,.78-2.73,4.88-1.76v-5.47l.78-.59c1.04-1.82,1.76-3.77,2.15-5.86-1.57-4.3-1.96-9.73-1.17-16.31l-2.35-4.1v-4.1l-2.93-1.76v-1.56c-2.93-1.82-8.15-2.73-15.65-2.73-.65,0-2.8,.46-6.46,1.37-1.17,2.93-2.99,6.05-5.46,9.38l-.2,7.03-1.37,2.15h-.78l-.78,.59,.78,1.56v1.37l-2.34,3.03v.59l-.78,.78,.78,1.37v2.15l-3.02,1.37-.78,5.08,.78,.59,1.17,1.95c-.46,1.69-1.56,3.19-3.32,4.49h-.58l-.78,.78-.98,6.84c-3.45,4.1-5.27,8.73-5.46,13.87l-2.73,3.61-1.95,8.01c.39,2.34,.58,3.71,.58,4.1,0-.91-.26,1.24-.78,6.45l-3.51,3.91c-1.11,3.71-3.32,9.15-6.63,16.31v4.69c-3,1.82-6.45,4.23-10.35,7.23l-1.56,3.52-4.98,1.37v1.37l-4.88,2.93c-1.5,.26-3.71,.72-6.64,1.37l-2.93-.59c-1.43,.26-3.39,.84-5.86,1.76l-3.71-2.54c-1.24,.13-3.19-.13-5.86-.78l-.59-1.37-3.52-.78c-.98-1.3-3.68-2.93-8.11-4.88-2.87-4.1-5.21-7.16-7.03-9.18-.52-7.29-.78-10.19-.78-8.69s.26-.98,.78-7.23c.98-1.37,2.15-3.45,3.52-6.25v-3.71l1.56-1.37,2.73-.78v-1.37h3.03c1.89,.65,3.97,1.37,6.25,2.15l3.71,5.08,.59,2.73-1.37,1.37-.78,7.23-1.37,2.15h-2.73l-4.3-5.66-3.81-.78-1.37,2.15v7.81c0,.46,.72,2.83,2.15,7.13,5.92,2.87,9.54,5.53,10.84,8.01l5.66,1.37,5.66-1.37,4.3-2.93,1.37,.78,3.52-1.56,3.32-3.32c1.37-4.17,4.52-9.22,9.47-15.15,.85-3.45,2.02-7.81,3.52-13.08l3.71-.98-.78-2.93c.85-2.99,1.5-6.7,1.95-11.13l2.73-2.34c.59-2.8,.78-5.76,.59-8.89h.78c.72-2.41,.98-4.55,.78-6.44h.59l2.15-6.44,3.71-3.52,1.76-5.27-1.17-1.76,2.93-5.08-1.37-1.37,3.12-4.69-.59-4,3.52-2.15,.78-1.37-.78-4.29,3.52-3.52v-2.15l2.15-1.37c1.11-2.86,2.54-5.27,4.3-7.23v-2.73h-.59c-6.51,1.11-11.07,1.56-13.67,1.37-3.71,1.56-9.31,3.84-16.8,6.84-1.69,.46-4.2,1.24-7.52,2.34-.52,.13-1.69,1.11-3.52,2.93l-4.3,1.37c-1.5,3-4.82,5.86-9.96,8.59-2.15,4.36-4.49,7.26-7.03,8.69l-.78,1.37-2.73,2.15v3.52l-1.56,3.52,1.56,.78c-.13,1.76,.06,4.1,.59,7.03l4.3-.59,2.93-2.15,5.08-1.37,5.47-4.3,1.56-2.93,2.15-1.37c.65-1.5,.85-3.19,.59-5.08-.85-1.69-1.76-2.86-2.73-3.52v-2.25c.59-.84,2.21-2.02,4.88-3.52v-.78l2.15-.59c2.28,.59,4.46,2.21,6.54,4.88l-.78,4.39-1.37,2.15-.59,5.66-2.44,4.69c-2.54,2.15-5.6,3.45-9.18,3.91-2.54,3.06-6.84,5.41-12.89,7.03l-7.81-.59-4.88-2.93c-.46-1.04-1.17-1.95-2.15-2.73,.2-.72-.03-2.15-.68-4.3-.65-2.15-.88-3.84-.68-5.08,1.76-2.99,3.65-5.14,5.66-6.45l2.73-5.76c1.11-1.3,2.86-3.12,5.27-5.47,4.75-3.77,8.65-6.64,11.71-8.59,1.37-.52,3.32-1.43,5.86-2.73,1.37-1.17,3.51-2.73,6.44-4.69,1.11-.33,2.7-.84,4.78-1.56,1.82-1.04,4.56-2.41,8.2-4.1,3.58-1.3,8.98-2.47,16.21-3.52,1.82,.07,4.68-.33,8.59-1.17,2.41,1.24,4.78,1.63,7.13,1.17,1.17-.45,2.57-1.63,4.2-3.52,1.17-1.43,2.38-2.86,3.62-4.3,2.21-2.15,4.56-4,7.03-5.57,4.04-2.02,9.96-5.14,17.78-9.38,2.34,.07,6.51-.81,12.5-2.64,5.73-1.69,9.73-3.22,12.01-4.59,.33,0,.81,.03,1.46,.1,.65,.07,1.14,.1,1.47,.1,.65,0,1.68-.13,3.08-.39,1.4-.26,2.46-.39,3.18-.39,.78,0,2.11,.15,4,.44,1.89,.29,3.35,.41,4.4,.34l1.76,5.86Z"/>
      <path class="cls-1" d="M207.52,57.52l-1.36,.78h-4.28c-1.36-.39-2.01-.59-1.95-.59-1.43,0-3.24,.52-5.45,1.56-2.53,1.11-4.38,1.76-5.54,1.95-.97,1.82-2.4,3.81-4.28,5.96,0,.52,.03,1.3,.1,2.34,.06,1.04,.1,1.82,.1,2.34-.85,2.15-2.08,4.04-3.71,5.66l-.59,7.81-1.76,2.15v5.08c-1.89,1.63-3.12,3.32-3.71,5.08l.2,2.93c-1.11,2.54-1.5,4.39-1.17,5.57-1.43,1.89-2.47,3.58-3.12,5.08-.13,1.17-.62,3.68-1.46,7.52-.78,3.45-1.14,5.44-1.07,5.96-1.3,1.04-2.34,1.76-3.12,2.15l.98,2.15-1.56,1.37c-.46,.78-.98,2.34-1.56,4.69l-1.95,2.34-.59,5.86-1.56,2.83c0,4.36-1.63,7.68-4.9,9.96l-2.94,.78c-1.57,1.5-3.76,3.39-6.56,5.66-2.74,1.04-5.36,1.76-7.84,2.15-1.44-.84-3.53-1.11-6.27-.78l-1.57-.59-3.53-3.71v-2.73l2.94-2.15h1.37l1.37,1.37,3.53,1.56c1.3-.59,2.69-1.63,4.16-3.12,1.47-1.5,2.69-2.47,3.67-2.93,.39-1.11,.91-2.8,1.57-5.08,0-2.6,.46-6.28,1.37-11.04h.78v-1.56l1.37-2.73v-3.71l2.25-2.73c1.24-6.25,3.12-10.55,5.66-12.89,.13-1.5,1.5-6.28,4.1-14.36,.13-1.3,.52-3.19,1.17-5.66,1.37-2.02,3.12-5.14,5.27-9.38l-.59-2.73,.78-3.52,2.73-.78,.78-1.37v-2.73l1.37-.78,2.14-5.08c1.62-1.89,4.1-4.33,7.41-7.32l2.34,.2,1.75-2.15h1.37c1.3-1.37,3.61-2.47,6.92-3.32,3.84-.91,6.31-1.69,7.41-2.34,2.15,.52,3.77,.72,4.88,.59l2.15,2.93v3.52Z"/>
      <path class="cls-1" d="M252.34,112.6l-.78,1.37-1.36,.78v.78l-5.64,.59-.79,1.56v1.95l-.59,.78v2.15h-.78v.78l-1.18,1.37-.39,1.76-1.57,1.17,.59,1.37c-.59,1.04-1.41,3.39-2.45,7.03l-2.94,3.52h.78v.78c-2.16,1.43-3.86,2.9-5.1,4.39l-.39,1.17,.39,.98-.78,6.45h-.58v1.37l-1.36,2.15,.59,1.37,2.15,.59c1.69-1.89,4.33-3.52,7.91-4.88l1.17,2.15-1.86,3.71c-2.87,1.82-5.27,4.17-7.23,7.03-3.91,1.11-6.51,1.56-7.81,1.37v-.59h-2.15c-1.24-1.5-2.67-2.73-4.3-3.71,.13-1.5-.07-3.58-.59-6.25l-1.56-1.56h-.59c-3,2.54-4.69,4.43-5.08,5.66l-3.52,.78-1.37,2.15-4.1,1.56-2.44-.78-2.34,.39c-2.41-1.5-4.49-2.34-6.25-2.54l-2.73-2.15c-1.95-4.43-2.93-7.62-2.93-9.57,0-1.04,.26-2.34,.78-3.91h.59c.33-.91,.78-2.57,1.37-4.98l-.59-1.56v-.78c0-.65,.41-1.59,1.22-2.83,.81-1.24,1.25-2.18,1.32-2.83,3.91-2.73,6.25-6.77,7.03-12.11,1.37-.91,2.44-1.89,3.22-2.93,2.34-.78,4.04-1.43,5.08-1.95h.78c1.43-1.69,3.06-3.12,4.88-4.3l.78-1.56,6.45-2.15,5.66,.78,2.15,1.37h2.73l2.93-2.73h2.73l3.71,1.37,2.83-.78,1.56,.78,.59,1.37,5.08-.59,2.15-1.56,1.37,.78,2.15-.78c.59,.59,1.04,1.56,1.37,2.93Zm-22.17,2.93l-4.3-1.56c-2.6,.72-4.95,.98-7.03,.78l-5.08,2.15-2.73,2.73c-.2,1.04-1.35,4.17-3.47,9.38-2.12,5.21-3.37,7.94-3.76,8.2l-.39,2.15-1.95,1.76-.39,1.37,.39,1.37-2.15,3.03v2.54l-1.17,1.17v1.95l-.78,1.37v.78l-2.05,.78v2.73l.59,.78,3.03,1.37c1.56-.52,3.91-1.95,7.03-4.3h.78l2.15-1.37c.72-1.04,1.89-2.47,3.52-4.3v-.59l1.37-.78c1.43-2.6,3.58-6.41,6.45-11.43v-.78l2.15-2.15c.2-2.15,1.04-4.49,2.54-7.03-.13-.45,.06-1.69,.59-3.71l1.56-.59v-.78l-.39-.78c.39-.91,1.11-2.28,2.15-4.1h.59l.78-2.15Z"/>
      <path class="cls-1" d="M307.32,107.71l-.59,3.52-2.15,.59c-.65-.13-2.31-.52-4.98-1.17-1.95-.52-3.61-.78-4.98-.78-.13,0-1.37,.2-3.71,.59l-.59,.78h-4.1l-2.15,1.95c-.33,1.69-1.11,3.65-2.34,5.86,.2,1.89-.07,4.04-.78,6.45l-1.37,1.37,.78,3.71-1.37,.59-.78,1.37,.78,1.56-1.56,1.76-.59,2.93-.78,.2-1.37,2.93v.59l-2.93,1.56,.78,2.25-1.56,1.37-.59,2.15-2.25,2.93v1.37l.59,.59h1.66v1.56l-.78,.59c.52,1.24,.91,2.73,1.17,4.49l3.91-.78,1.56,.98,1.17-.98,1.56,.59c1.37-.52,3.45-1.24,6.25-2.15l2.15-2.15,1.56-4.1v-3.71c1.11-2.8,2.28-4.85,3.52-6.15l-1.56-.98,1.56-1.37v-.78l2.15-1.37h2.15c1.5,.39,2.21,.59,2.15,.59l1.95,4.3-1.37,2.25v2.15c-1.56,2.15-3.19,3.58-4.88,4.3v.78l-2.15,2.73c-.26,2.21-1.11,4.04-2.54,5.47l-2.34,1.56-1.56,2.15c-2.87,1.56-5.21,2.28-7.03,2.15l-.78,1.56h-1.37l-.78-.78c-1.37,.33-2.34,.78-2.93,1.37l-3.52,.78v-.78c-3.06-.52-5.44-.72-7.13-.59-.52-.85-1.66-1.79-3.42-2.83-1.95-1.17-3.22-2.11-3.81-2.83v-3.71l-.59-.59v-2.93c1.5-3.97,2.21-6.58,2.15-7.81l1.17-1.17c.78-1.37,1.04-3.16,.78-5.37l2.54-3.32c-.07-.59,.39-3.06,1.37-7.42l1.76-1.95-.78-1.56c.72-2.54,1.76-6.31,3.12-11.33h1.37c.59-.78,1.07-2.47,1.46-5.08l-.88-.78-3.52,.78c-1.37,1.11-2.54,1.82-3.52,2.15l-2.15-.59c-2.67,1.3-5.27,1.76-7.81,1.37l.78-2.93c1.63-1.3,3.52-2.47,5.66-3.52h1.37l.78-1.37h2.15l2.73-1.37,1.76,.39c2.54-.45,4.79-1.07,6.74-1.86l.98-2.93h1.37l2.93-3.52,.59-2.15c1.3-.78,2.28-1.3,2.93-1.56l.59-2.15,2.15,.78,.78-.78v-1.37l2.93-1.37v-1.37l1.37-2.15h1.37l.78,.59,1.37-.59v4.88l-1.37,.78v.59l-.78,.78v2.15l-2.93,3.52c-.2,2.48-1.04,4.72-2.54,6.74,2.54,.2,5.08,.59,7.62,1.17,1.17-.39,2.99-.59,5.47-.59,2.67,0,4.88,.2,6.64,.59l1.37,2.93Z"/>
      <path class="cls-1" d="M362.3,124.32l-.78,.78-.2,2.15,.78,1.95-.78,2.34,.39,2.93c-1.63,3.52-3.26,5.86-4.88,7.03-.13,0-.62,.1-1.46,.29-.85,.2-1.33,.29-1.46,.29s-1.56-.2-4.3-.59l-1.37-.78c-1.56,.2-5.06-.21-10.5-1.22-5.44-1.01-9.1-1.9-10.99-2.69l-2.44,1.17c-.2,.33-.83,2.05-1.9,5.18s-1.61,4.82-1.61,5.08c0,.59,.03,1.43,.1,2.54,.06,1.11,.1,1.95,.1,2.54l2.93,6.05c1.82,.65,2.9,.98,3.22,.98,.2,0,.39-.03,.59-.1,.2-.06,.39-.1,.59-.1l5.86,.59c1.5-.39,3.19-1.17,5.08-2.34,2.34-1.5,3.91-2.41,4.69-2.73l1.37-.2c1.5-1.11,2.67-2.47,3.52-4.1l4.1-1.17,.78,2.15c-.33,1.63-3.71,5.66-10.16,12.11-2.15,1.04-5.18,1.72-9.08,2.05-4.3,.33-7.32,.81-9.08,1.46l-4.39-.78-.59-.59-3.52-.78c-3.32-2.21-6.45-5.99-9.38-11.33-.13-1.56-.46-3.45-.98-5.66,.33-1.17,.78-3.61,1.37-7.32l.78-.78-.39-.59,1.37-1.37,.78-2.93c1.11-.72,2.02-2.15,2.73-4.3v-6.45l1.56-.59,1.37-5.08c4.75-5.53,9.8-9.11,15.14-10.74,.33,0,.81,.03,1.46,.1,.65,.07,1.14,.1,1.46,.1,1.89-.52,2.8-.78,2.73-.78l2.34,.98c.78-.13,1.89-.45,3.32-.98,.98,.07,2.41,.42,4.3,1.07,1.89,.65,3.32,1.01,4.3,1.07l1.95,2.15,1.95,.78,.98,1.37,2.73,1.17,1.56,1.76c.33,.72,.65,1.86,.98,3.42,.33,1.56,.65,2.7,.98,3.42Zm-11.13,2.34l-.78-.78c0-2.34-.07-4.1-.2-5.27-.78-1.56-3.26-3.97-7.42-7.23-2.47,0-5.66,.78-9.57,2.34l-.98,1.56-1.76,1.17-.78,1.76-.59,.59v1.56l-1.17,.98c-.39,.78-.72,2.08-.98,3.91h-.78l-.2,1.76,.59,2.34c4.04,2.08,11.26,3.39,21.68,3.91,.52-2.02,1.24-3.25,2.15-3.71l.78-4.88Z"/>
    </g>
  </g>
</svg>