<?xml version="1.0" encoding="UTF-8"?>
<svg id="Layer_2" data-name="Layer 2" xmlns="http://www.w3.org/2000/svg" viewBox="0 0 641.5 158.98">
  <defs>
    <style>
      .cls-1 {
        fill: #231916;
      }
    </style>
  </defs>
  <g id="title">
    <g>
      <path class="cls-1" d="M7.89,146.22c0,.19,1.06-3.93,.54-5.23-.74-1.85-2.75-2.11-4.99-2.85-.81-.27-3.44,1.25-3.44,1.71,0,4.88,.98,9.18,2.93,12.89l2.93,2.73,10.06,3.52c2.73-.39,4.17-.59,4.3-.59,.85,0,2.15,.1,3.91,.29s3.06,.29,3.91,.29c10.16-.98,30.66-.77,32.09-1.1,.99-.72,4.63,.28,5.33,.32,1.78,.1,6.79-2.21,6.79-2.21,0,0,1.3-2.94-.12-3.25-.45-.1-1.56-.22-2.04-.33-.3-.06-.48,1.12-1.44,1.73-.7,.44-1.99,.19-2.19,.15-1.74-.37-3.26-.7-3.47-.79-1.47-.64-3.44,.33-5.04-.24-2.22-.8-3.85-3.07-3.53-3.46,3.71-4.62,6.48-8.07,8.3-10.35,.65-1.95,.98-3.52,.98-4.69,0-.78-.13-1.95-.39-3.52,1.82-3.71,3.58-6.45,5.28-8.2,.78-1.89,1.3-3.35,1.56-4.39,2.21-3.65,3.97-6.31,5.28-8.01,2.08-6.77,3.39-11.78,3.91-15.04,1.95-1.56,3.71-3.45,5.28-5.66,1.11-5.6,3.19-9.93,6.26-12.99,.26-3.45,.78-6.12,1.56-8.01-.85-3.06-1.37-5.34-1.56-6.84l.59-5.08,1.37-2.15-.59-1.37v-2.15l-.78-.78c2.87-5.4,4.92-9.47,6.16-12.21l.39-3.52h.78v-1.37c1.55-1.56,2.91-2.73,4.08-3.52l1.56-5.86,.59-.59-1.37-3.52v-5.08h-.78v-.78l2.93-1.37c.98-2.41,2.67-4.56,5.08-6.45l5.08-.78,4.1,1.56v2.15l2.15,2.93,4.3,1.95,2.73,5.08,3.71,.78,2.15-2.93v-2.15l1.37-.78,1.37-2.73v-2.93l-2.73-4.88c-2.54-2.15-5.92-3.35-10.16-3.61-4.36,1.24-7.68,2.18-9.96,2.83-.72,.13-2.57,.23-5.57,.29-2.28,.13-4.2,.49-5.76,1.07v2.15c-2.02,1.43-3.91,3.12-5.66,5.08l-7.13,2.73-2.15,3.71h-1.56c-2.47,1.95-4.95,3.94-7.42,5.96-3.32,2.54-6.05,3.87-8.2,4-2.54,3.19-6.87,6.12-12.99,8.79-7.88,3.52-12.63,5.83-14.26,6.93-3.45,2.47-5.99,4.36-7.62,5.66-2.41,2.54-4.23,5.47-5.47,8.79-.98,3.26-1.95,6.51-2.93,9.77,.72,3.65,1.37,6.71,1.95,9.18,4.04,3.19,6.38,5.63,7.03,7.32l2.15,1.37,.78,1.37,4.49,2.73c1.63,.07,3.97-.26,7.03-.98,3.06-.72,5.31-1.07,6.74-1.07,.59,0,1.17,.03,1.76,.1,1.58-.72,1.24-3.85,1.24-3.85,0-1.51-1.54-1.22-2.72-1.22-5.83,1.57-3.6,.92-4.27,.77l-1.56,1.37h-6.25l-5.08-3.61-1.37-2.93-2.15-1.95,.59-.78v-3.52l-.59-1.56,.59-.59c-.39-3.25,.13-6.58,1.56-9.96l1.37-1.56,2.93-7.81,2.15-1.37,1.95-2.93c1.37-.39,3.32-1.3,5.86-2.73v-.78c4.43-1.43,6.8-2.18,7.13-2.25,1.04-1.56,3.97-3.25,8.79-5.08,4.82-1.82,7.36-2.93,7.62-3.32h5.66l.78,2.15c-.78,2.87-1.89,5.01-3.32,6.45l-4.49,2.05-.78,1.56h-.78v1.95l-2.15,4.3c-.26,2.47,0,4.69,.78,6.64-.52,.72-1.3,2.82-2.34,6.3-1.04,3.48-1.56,5.57-1.56,6.25s-.07,2.43-.2,5.22c-.07,2.21-.07,3.84,0,4.88,0,1.46-.78,2.93-.78,4.39v2.73c-1.04,1.63-2.77,5.18-5.18,10.64-2.15,4.82-3.74,7.78-4.79,8.89-.46,7.36-3.48,14.42-9.08,21.19,.26,3.52-.52,6.51-2.34,8.98l.39,3.91-2.73,3.52-4.3,1.37-1.37,2.15-2.15,.78v1.37c-1.82,1.43-4.43,2.6-7.81,3.52-.98,.06-2.34-.02-4.1-.24-1.76-.23-3-.34-3.71-.34-.33,0-3.42,.2-9.28,.59l-4.49-2.54-1.95-3.91"/>
      <path class="cls-1" d="M169.53,96l-.59,.78v3.61l-.78,.78-1.56,3.61,.59,1.37-.78,.78c-.2,1.5-.68,3.58-1.46,6.25l.39,.98c-1.3,1.76-2.83,4.39-4.59,7.91-1.82,3.84-2.73,6.54-2.73,8.11l-1.46,2.15,.39,2.83c2.86-2.08,5.01-4.13,6.45-6.15l2.54-1.07,3.03,.78c-.26,1.37-1.46,3.32-3.61,5.86-2.47,2.93-4.07,5.11-4.79,6.54l-1.37,.88v.59l-4.79,3.03c-2.15-.2-4.62-1.4-7.42-3.61-.33-.59-1.07-1.33-2.25-2.25l-.98-2.15v-2.25l-.78-1.37,.59-1.66-.2-2.15c0-2.73,1.38-6.59,4.15-11.57,2.77-4.98,4.05-9.39,3.86-13.23,1.3-2.34,2.25-5.21,2.83-8.59l-2.05-.78-.78,.78v.59l-4.39,3.03v.78l-2.83,.59v.78c-2.15,.72-3.61,1.66-4.39,2.83v1.56c-.85,.59-2.57,1.07-5.18,1.46v1.37h-1.37l-.68,.78h-.78l-.78,1.37v1.66l-2.15,.59v1.37l-1.07,2.25-.2,3.42c-.85,1.24-1.63,3.24-2.34,6.01-.72,2.77-1.46,4.77-2.25,6.01-1.24,.78-2.51,2.18-3.81,4.2-1.5,2.34-2.64,3.87-3.42,4.59-2.34,.52-5.92,1.3-10.74,2.34l-2.44-.98-3.42,.98-3.71-2.54-1.66-3.81,.78-3.42,2.25-.78c2.02,.98,3.68,1.89,4.98,2.73l3.61-.59,2.44-1.56,.59-4.2,.78-.59c-.07-2.34,.2-4.43,.78-6.25,.98-1.82,2.38-4.62,4.2-8.4,.65-3.12,2.12-7.71,4.39-13.77l-.59-2.25,.59-1.56-1.37-1.37-2.25,.78v.59l-2.93,.78-2.05,1.37c-2.93,.46-5.4,1.01-7.42,1.66l-3.61-1.66-.78-2.15,.78-1.37c6.9,.13,14.19-2.08,21.88-6.64h1.56l4.79-3.42,2.44-.39,2.15,.98c2.86,2.93,4.07,5.34,3.61,7.23l-1.37,.78v1.46l-1.46,2.15c.13,.52,0,1.46-.39,2.83l.39,1.56,1.46,.78c2.47-.85,5.14-2.31,8.01-4.39v-.78h.78l1.95-1.37h.88l2.15-1.66,.78-1.37,2.83-.59v-.78c1.95-1.04,3.68-1.79,5.18-2.25l.59-.78h1.66c1.95-.78,3.42-1.72,4.39-2.83h2.15l.59,1.46h.88c1.11,1.37,2.02,3.29,2.73,5.76v2.25Z"/>
      <path class="cls-1" d="M243.55,94.04l-.2,1.95c-.91,1.82-1.95,3.32-3.12,4.49l-6.93,.59c-3.39-1.82-5.86-3.25-7.42-4.3-1.82,.26-3.32,.39-4.49,.39-.39,0-.98-.1-1.76-.29s-1.37-.29-1.76-.29c-.13,0-1.76,.2-4.88,.59l-3.71,2.34c-.2,.85-.59,1.56-1.17,2.15-.78,2.15-2.21,5.34-4.3,9.57v1.95l-2.15,1.37,.2,1.56-.98,1.76-1.56,.78v.78l-2.15,2.73c-.59,2.47-.81,4.2-.68,5.18h1.46c-.72,2.8-.98,5.4-.78,7.81l.78,1.37c.46,.33,2.15,1.04,5.08,2.15,2.21-.13,5.24-.91,9.08-2.34,4.1-1.5,6.8-2.99,8.11-4.49l.78-2.54,1.37-1.76,3.12-1.76,2.73,.39,.98,1.95,1.56,1.37v2.15c-2.67,1.89-4.56,3.52-5.66,4.88-2.21,.91-4.62,2.08-7.23,3.52-1.63,.26-3.06,.78-4.3,1.56h-.59l-.78,1.37v.39h-1.95l-2.34,1.76h-3.52c-3.45,0-6.54-.46-9.28-1.37v-1.56l-2.93-2.15c-.33-1.3-.78-2.21-1.37-2.73-1.24-1.11-3.12-1.95-5.66-2.54-.59-1.82-1.56-3.52-2.93-5.08-.52-1.82-.78-4.52-.78-8.11,0-1.76,.6-3.96,1.81-6.59,1.2-2.64,2.49-4.48,3.86-5.52l-.39-.78,.39-1.37h.78l1.37-2.93v-.59l1.56-2.15,2.34-.98c.39-1.43,1.17-2.73,2.34-3.91l2.83-1.56,1.17-2.93,2.73-.78,.98-1.56h2.54l3.71-1.95c2.21-.13,5.47-.59,9.77-1.37l5.86,1.37,1.37,2.15c2.93,.52,5.14,1.37,6.64,2.54,.72,0,1.79-.03,3.22-.1,1.43-.06,2.54-.1,3.32-.1,1.24,0,2.54,.52,3.91,1.56Z"/>
      <path class="cls-1" d="M315.43,91.31l-.78,1.37-1.36,.78v.78l-5.64,.59-.79,1.56v1.95l-.59,.78v2.15h-.78v.78l-1.18,1.37-.39,1.76-1.57,1.17,.59,1.37c-.59,1.04-1.41,3.39-2.45,7.03l-2.94,3.52h.78v.78c-2.16,1.43-3.86,2.9-5.1,4.39l-.39,1.17,.39,.98-.78,6.45h-.58v1.37l-1.36,2.15,.59,1.37,2.15,.59c1.69-1.89,4.33-3.52,7.91-4.88l1.17,2.15-1.86,3.71c-2.87,1.82-5.27,4.17-7.23,7.03-3.91,1.11-6.51,1.56-7.81,1.37v-.59h-2.15c-1.24-1.5-2.67-2.73-4.3-3.71,.13-1.5-.07-3.58-.59-6.25l-1.56-1.56h-.59c-3,2.54-4.69,4.43-5.08,5.66l-3.52,.78-1.37,2.15-4.1,1.56-2.44-.78-2.34,.39c-2.41-1.5-4.49-2.34-6.25-2.54l-2.73-2.15c-1.95-4.43-2.93-7.62-2.93-9.57,0-1.04,.26-2.34,.78-3.91h.59c.33-.91,.78-2.57,1.37-4.98l-.59-1.56v-.78c0-.65,.41-1.59,1.22-2.83,.81-1.24,1.25-2.18,1.32-2.83,3.91-2.73,6.25-6.77,7.03-12.11,1.37-.91,2.44-1.89,3.22-2.93,2.34-.78,4.04-1.43,5.08-1.95h.78c1.43-1.69,3.06-3.12,4.88-4.3l.78-1.56,6.45-2.15,5.66,.78,2.15,1.37h2.73l2.93-2.73h2.73l3.71,1.37,2.83-.78,1.56,.78,.59,1.37,5.08-.59,2.15-1.56,1.37,.78,2.15-.78c.59,.59,1.04,1.56,1.37,2.93Zm-22.17,2.93l-4.3-1.56c-2.6,.72-4.95,.98-7.03,.78l-5.08,2.15-2.73,2.73c-.2,1.04-1.35,4.17-3.47,9.38-2.12,5.21-3.37,7.94-3.76,8.2l-.39,2.15-1.95,1.76-.39,1.37,.39,1.37-2.15,3.03v2.54l-1.17,1.17v1.95l-.78,1.37v.78l-2.05,.78v2.73l.59,.78,3.03,1.37c1.56-.52,3.91-1.95,7.03-4.3h.78l2.15-1.37c.72-1.04,1.89-2.47,3.52-4.3v-.59l1.37-.78c1.43-2.6,3.58-6.41,6.45-11.43v-.78l2.15-2.15c.2-2.15,1.04-4.49,2.54-7.03-.13-.46,.06-1.69,.59-3.71l1.56-.59v-.78l-.39-.78c.39-.91,1.11-2.28,2.15-4.1h.59l.78-2.15Z"/>
      <path class="cls-1" d="M374.02,102.05l-.39,4.69-2.44,.59c-.46-.26-2.35-.39-5.67-.39-1.17,0-2.67-.46-4.5-1.37-1.3-2.08-2.34-3.58-3.13-4.49l-2.93-1.17c-1.82,1.37-3.19,3.06-4.1,5.08l-.39,2.73-2.14,1.37-2.14,3.52,.2,2.54-.78,2.54-1.75,.78,.2,2.73-2.14,2.25c-.26,2.02-.91,3.65-1.95,4.88l-2.14,.78-.39,2.54,.39,1.76-.78,2.93-1.36,1.95-.58,2.73-2.54,3.12c-2.35,.52-4.07,.98-5.18,1.37-1.37-1.04-3.33-1.56-5.87-1.56-.59,0-1.74,.29-3.47,.88-1.73,.59-2.92,.81-3.57,.68l-.98-1.95,.2-2.34c1.11-.85,2.67-2.28,4.69-4.3-.33-2.34-.07-4.23,.78-5.66h.78l.39-1.76,.98-.39,.59-1.76h.78l1.37-3.52c.78-.98,2.08-2.25,3.91-3.81,0-1.37,.91-3.19,2.73-5.47v-2.34c1.76-3.78,2.44-6.77,2.05-8.98l-1.46-2.73-1.95-.59c-.78,.13-2.02,.2-3.71,.2l-2.15,1.37-2.15-1.17-2.15,.39-.78-.59h-2.73v-1.56c.98-1.37,2.41-2.28,4.3-2.73l1.95,.2c1.3-1.5,3.26-2.54,5.87-3.12h2.74l.78-.59,3.03,.39c.98,0,2.61-.91,4.89-2.73,1.89,.72,3.52,1.5,4.89,2.34,1.17,1.69,1.89,3.06,2.15,4.1v.78l1.56,3.32h.59c1.04-2.08,2.63-4.3,4.78-6.64,2.54-2.67,4.78-4.23,6.73-4.69l2.15,.78,1.37,1.95c1.69,.72,2.99,1.76,3.9,3.12v1.56l2.54,2.54,2.73,.78v.59l1.46,1.56Z"/>
      <path class="cls-1" d="M448.93,96l-.59,.78v3.61l-.78,.78-1.56,3.61,.59,1.37-.78,.78c-.2,1.5-.68,3.58-1.46,6.25l.39,.98c-1.3,1.76-2.83,4.39-4.59,7.91-1.82,3.84-2.73,6.54-2.73,8.11l-1.46,2.15,.39,2.83c2.86-2.08,5.01-4.13,6.45-6.15l2.54-1.07,3.03,.78c-.26,1.37-1.46,3.32-3.61,5.86-2.47,2.93-4.07,5.11-4.79,6.54l-1.37,.88v.59l-4.79,3.03c-2.15-.2-4.62-1.4-7.42-3.61-.33-.59-1.07-1.33-2.25-2.25l-.98-2.15v-2.25l-.78-1.37,.59-1.66-.2-2.15c0-2.73,1.38-6.59,4.15-11.57,2.77-4.98,4.05-9.39,3.86-13.23,1.3-2.34,2.25-5.21,2.83-8.59l-2.05-.78-.78,.78v.59l-4.39,3.03v.78l-2.83,.59v.78c-2.15,.72-3.61,1.66-4.39,2.83v1.56c-.85,.59-2.57,1.07-5.18,1.46v1.37h-1.37l-.68,.78h-.78l-.78,1.37v1.66l-2.15,.59v1.37l-1.07,2.25-.2,3.42c-.85,1.24-1.63,3.24-2.34,6.01-.72,2.77-1.46,4.77-2.25,6.01-1.24,.78-2.51,2.18-3.81,4.2-1.5,2.34-2.64,3.87-3.42,4.59-2.34,.52-5.92,1.3-10.74,2.34l-2.44-.98-3.42,.98-3.71-2.54-1.66-3.81,.78-3.42,2.25-.78c2.02,.98,3.68,1.89,4.98,2.73l3.61-.59,2.44-1.56,.59-4.2,.78-.59c-.07-2.34,.2-4.43,.78-6.25,.98-1.82,2.38-4.62,4.2-8.4,.65-3.12,2.12-7.71,4.39-13.77l-.59-2.25,.59-1.56-1.37-1.37-2.25,.78v.59l-2.93,.78-2.05,1.37c-2.93,.46-5.4,1.01-7.42,1.66l-3.61-1.66-.78-2.15,.78-1.37c6.9,.13,14.19-2.08,21.88-6.64h1.56l4.79-3.42,2.44-.39,2.15,.98c2.86,2.93,4.07,5.34,3.61,7.23l-1.37,.78v1.46l-1.46,2.15c.13,.52,0,1.46-.39,2.83l.39,1.56,1.46,.78c2.47-.85,5.14-2.31,8.01-4.39v-.78h.78l1.95-1.37h.88l2.15-1.66,.78-1.37,2.83-.59v-.78c1.95-1.04,3.68-1.79,5.18-2.25l.59-.78h1.66c1.95-.78,3.42-1.72,4.39-2.83h2.15l.59,1.46h.88c1.11,1.37,2.02,3.29,2.73,5.76v2.25Z"/>
      <path class="cls-1" d="M531.54,91.31l-.78,1.37-1.36,.78v.78l-5.64,.59-.79,1.56v1.95l-.59,.78v2.15h-.78v.78l-1.18,1.37-.39,1.76-1.57,1.17,.59,1.37c-.59,1.04-1.41,3.39-2.45,7.03l-2.94,3.52h.78v.78c-2.16,1.43-3.86,2.9-5.1,4.39l-.39,1.17,.39,.98-.78,6.45h-.58v1.37l-1.36,2.15,.59,1.37,2.15,.59c1.69-1.89,4.33-3.52,7.91-4.88l1.17,2.15-1.86,3.71c-2.87,1.82-5.27,4.17-7.23,7.03-3.91,1.11-6.51,1.56-7.81,1.37v-.59h-2.15c-1.24-1.5-2.67-2.73-4.3-3.71,.13-1.5-.07-3.58-.59-6.25l-1.56-1.56h-.59c-3,2.54-4.69,4.43-5.08,5.66l-3.52,.78-1.37,2.15-4.1,1.56-2.44-.78-2.34,.39c-2.41-1.5-4.49-2.34-6.25-2.54l-2.73-2.15c-1.95-4.43-2.93-7.62-2.93-9.57,0-1.04,.26-2.34,.78-3.91h.59c.33-.91,.78-2.57,1.37-4.98l-.59-1.56v-.78c0-.65,.41-1.59,1.22-2.83,.81-1.24,1.25-2.18,1.32-2.83,3.91-2.73,6.25-6.77,7.03-12.11,1.37-.91,2.44-1.89,3.22-2.93,2.34-.78,4.04-1.43,5.08-1.95h.78c1.43-1.69,3.06-3.12,4.88-4.3l.78-1.56,6.45-2.15,5.66,.78,2.15,1.37h2.73l2.93-2.73h2.73l3.71,1.37,2.83-.78,1.56,.78,.59,1.37,5.08-.59,2.15-1.56,1.37,.78,2.15-.78c.59,.59,1.04,1.56,1.37,2.93Zm-22.17,2.93l-4.3-1.56c-2.6,.72-4.95,.98-7.03,.78l-5.08,2.15-2.73,2.73c-.2,1.04-1.35,4.17-3.47,9.38-2.12,5.21-3.37,7.94-3.76,8.2l-.39,2.15-1.95,1.76-.39,1.37,.39,1.37-2.15,3.03v2.54l-1.17,1.17v1.95l-.78,1.37v.78l-2.05,.78v2.73l.59,.78,3.03,1.37c1.56-.52,3.91-1.95,7.03-4.3h.78l2.15-1.37c.72-1.04,1.89-2.47,3.52-4.3v-.59l1.37-.78c1.43-2.6,3.58-6.41,6.45-11.43v-.78l2.15-2.15c.2-2.15,1.04-4.49,2.54-7.03-.13-.46,.06-1.69,.59-3.71l1.56-.59v-.78l-.39-.78c.39-.91,1.11-2.28,2.15-4.1h.59l.78-2.15Z"/>
      <path class="cls-1" d="M586.52,86.43l-.59,3.52-2.15,.59c-.65-.13-2.31-.52-4.98-1.17-1.95-.52-3.61-.78-4.98-.78-.13,0-1.37,.2-3.71,.59l-.59,.78h-4.1l-2.15,1.95c-.33,1.69-1.11,3.65-2.34,5.86,.2,1.89-.07,4.04-.78,6.45l-1.37,1.37,.78,3.71-1.37,.59-.78,1.37,.78,1.56-1.56,1.76-.59,2.93-.78,.2-1.37,2.93v.59l-2.93,1.56,.78,2.25-1.56,1.37-.59,2.15-2.25,2.93v1.37l.59,.59h1.66v1.56l-.78,.59c.52,1.24,.91,2.73,1.17,4.49l3.91-.78,1.56,.98,1.17-.98,1.56,.59c1.37-.52,3.45-1.24,6.25-2.15l2.15-2.15,1.56-4.1v-3.71c1.11-2.8,2.28-4.85,3.52-6.15l-1.56-.98,1.56-1.37v-.78l2.15-1.37h2.15c1.5,.39,2.21,.59,2.15,.59l1.95,4.3-1.37,2.25v2.15c-1.56,2.15-3.19,3.58-4.88,4.3v.78l-2.15,2.73c-.26,2.21-1.11,4.04-2.54,5.47l-2.34,1.56-1.56,2.15c-2.87,1.56-5.21,2.28-7.03,2.15l-.78,1.56h-1.37l-.78-.78c-1.37,.33-2.34,.78-2.93,1.37l-3.52,.78v-.78c-3.06-.52-5.44-.72-7.13-.59-.52-.85-1.66-1.79-3.42-2.83-1.95-1.17-3.22-2.12-3.81-2.83v-3.71l-.59-.59v-2.93c1.5-3.97,2.21-6.58,2.15-7.81l1.17-1.17c.78-1.37,1.04-3.16,.78-5.37l2.54-3.32c-.07-.59,.39-3.06,1.37-7.42l1.76-1.95-.78-1.56c.72-2.54,1.76-6.31,3.12-11.33h1.37c.59-.78,1.07-2.47,1.46-5.08l-.88-.78-3.52,.78c-1.37,1.11-2.54,1.82-3.52,2.15l-2.15-.59c-2.67,1.3-5.27,1.76-7.81,1.37l.78-2.93c1.63-1.3,3.52-2.47,5.66-3.52h1.37l.78-1.37h2.15l2.73-1.37,1.76,.39c2.54-.46,4.79-1.07,6.74-1.86l.98-2.93h1.37l2.93-3.52,.59-2.15c1.3-.78,2.28-1.3,2.93-1.56l.59-2.15,2.15,.78,.78-.78v-1.37l2.93-1.37v-1.37l1.37-2.15h1.37l.78,.59,1.37-.59v4.88l-1.37,.78v.59l-.78,.78v2.15l-2.93,3.52c-.2,2.47-1.04,4.72-2.54,6.74,2.54,.2,5.08,.59,7.62,1.17,1.17-.39,2.99-.59,5.47-.59,2.67,0,4.88,.2,6.64,.59l1.37,2.93Z"/>
      <path class="cls-1" d="M641.5,103.03l-.78,.78-.2,2.15,.78,1.95-.78,2.34,.39,2.93c-1.63,3.52-3.26,5.86-4.88,7.03-.13,0-.62,.1-1.46,.29-.85,.2-1.33,.29-1.46,.29s-1.56-.2-4.3-.59l-1.37-.78c-1.56,.2-5.06-.21-10.5-1.22-5.44-1.01-9.1-1.9-10.99-2.69l-2.44,1.17c-.2,.33-.83,2.05-1.9,5.18s-1.61,4.82-1.61,5.08c0,.59,.03,1.43,.1,2.54,.06,1.11,.1,1.95,.1,2.54l2.93,6.05c1.82,.65,2.9,.98,3.22,.98,.2,0,.39-.03,.59-.1,.2-.06,.39-.1,.59-.1l5.86,.59c1.5-.39,3.19-1.17,5.08-2.34,2.34-1.5,3.91-2.41,4.69-2.73l1.37-.2c1.5-1.11,2.67-2.47,3.52-4.1l4.1-1.17,.78,2.15c-.33,1.63-3.71,5.66-10.16,12.11-2.15,1.04-5.18,1.72-9.08,2.05-4.3,.33-7.32,.81-9.08,1.46l-4.39-.78-.59-.59-3.52-.78c-3.32-2.21-6.45-5.99-9.38-11.33-.13-1.56-.46-3.45-.98-5.66,.33-1.17,.78-3.61,1.37-7.32l.78-.78-.39-.59,1.37-1.37,.78-2.93c1.11-.72,2.02-2.15,2.73-4.3v-6.45l1.56-.59,1.37-5.08c4.75-5.53,9.8-9.11,15.14-10.74,.33,0,.81,.03,1.46,.1,.65,.07,1.14,.1,1.46,.1,1.89-.52,2.8-.78,2.73-.78l2.34,.98c.78-.13,1.89-.46,3.32-.98,.98,.07,2.41,.42,4.3,1.07,1.89,.65,3.32,1.01,4.3,1.07l1.95,2.15,1.95,.78,.98,1.37,2.73,1.17,1.56,1.76c.33,.72,.65,1.86,.98,3.42,.33,1.56,.65,2.7,.98,3.42Zm-11.13,2.34l-.78-.78c0-2.34-.07-4.1-.2-5.27-.78-1.56-3.26-3.97-7.42-7.23-2.47,0-5.66,.78-9.57,2.34l-.98,1.56-1.76,1.17-.78,1.76-.59,.59v1.56l-1.17,.98c-.39,.78-.72,2.08-.98,3.91h-.78l-.2,1.76,.59,2.34c4.04,2.08,11.26,3.39,21.68,3.91,.52-2.02,1.24-3.25,2.15-3.71l.78-4.88Z"/>
    </g>
  </g>
</svg>