<?xml version="1.0" encoding="UTF-8"?>
<svg id="Layer_2" data-name="Layer 2" xmlns="http://www.w3.org/2000/svg" viewBox="0 0 421.68 194.92">
  <defs>
    <style>
      .cls-1 {
        fill: #231916;
      }
    </style>
  </defs>
  <g id="title">
    <g>
      <path class="cls-1" d="M141.31,135.64l-2.15,3.52-4.3,2.93h-2.93l-1.37-1.56-1.95,1.37c-.65,.85-1.69,2.08-3.13,3.71-1.89,.98-4.69,2.86-8.4,5.66-2.67,1.37-5.28,1.82-7.82,1.37-.65-.39-1.63-.85-2.93-1.37-4.43-1.17-9.22-2.6-14.36-4.3-1.24-.65-3.13-1.56-5.67-2.73-2.48-.78-4.95-1.53-7.43-2.25-2.87-.98-5.15-2.18-6.84-3.61l-4.89-.59-2.15-1.56h-1.56v-.59l-7.13-3.91c-1.43,.52-3.4,2.08-5.9,4.69-2.5,2.6-4.57,4.23-6.2,4.88l-1.56,3.32c-1.95,1.76-4.42,3.45-7.42,5.08l-3.9,.39-3.51-1.76c-3.12,.26-5.47,.39-7.03,.39-.98,0-2.28-.15-3.9-.44-1.63-.29-2.77-.47-3.42-.54H3.51c-1.24-.33-1.95-.59-2.15-.78l-1.37-2.15,1.37-8.59c1.56-2.93,5.08-5.5,10.55-7.71,4.88-2.02,9.28-3.03,13.18-3.03-1.17,0,1.89,.52,9.18,1.56l1.37-1.37c.46-2.21,1.17-4.1,2.15-5.66l4.3-3.03c1.11-2.41,2.6-4.56,4.49-6.45,.98-2.34,1.5-4.49,1.56-6.45,.06-3.12,.2-5.21,.39-6.25,.65-2.41,1.56-5.99,2.73-10.74,.39-.26,1.37-1.95,2.93-5.08v-.59c1.5-1.5,2.44-3.22,2.83-5.18,.26-1.63,.49-3.25,.68-4.88,.52-1.37,1.24-3.45,2.15-6.25,.2-3.25,.94-8.07,2.25-14.45,.91-1.89,1.89-4.95,2.93-9.18l2.34-2.54,3.32-9.08,1.37-1.37,1.37-7.03c1.24-.59,2.99-2.28,5.27-5.08,2.28-2.8,4.1-4.43,5.47-4.88-2.6-.72-4.95-.98-7.03-.78l-.78-.78c-5.6,.46-9.38,.26-11.33-.59l-1.56-1.56-3.61,1.56h-2.73c-4.62-2.73-8.53-4.1-11.72-4.1-.59,0-3.16,.2-7.71,.59-4.56,.39-6.87,.59-6.93,.59-3.58,4.62-5.73,8.4-6.45,11.33v3.71l1.37,.59,.78,1.56,2.15,.59,6.45-.59,2.15-1.56,1.37-3.52,2.73-2.93,2.93-1.37h4.3l2.73,1.37,.78,2.93-1.37,2.93-2.93,2.73c-3.12,1.37-5.27,1.89-6.45,1.56-3,2.08-6.84,3.12-11.52,3.12-3.39,0-6.67-.59-9.86-1.76l-.78-2.93-2.73-2.73c-1.04-4.56-1.5-7.68-1.37-9.38,2.93-3.25,7.19-6.51,12.79-9.77,1.04-.13,3.16-.55,6.35-1.27,2.73-.59,4.79-.88,6.15-.88,.85,0,2.08,.1,3.71,.29,1.63,.2,2.86,.29,3.71,.29,.2,0,1.19-.13,2.98-.39,1.79-.26,3.21-.39,4.25-.39,.52,0,1.33,.1,2.44,.29,1.11,.2,1.92,.29,2.44,.29,.2,0,1.66-.2,4.39-.59,2.28,1.04,4.62,1.76,7.03,2.15l.78,2.15c1.95,.72,3.84,.98,5.66,.78l6.45,2.73h4.3l1.37,.78c2.8-.2,5.66-1.37,8.59-3.52h2.15l1.37-1.37h3.03l3.52-1.56h3.52l2.15-2.15,5.08,.78,.59,.78,2.93,.59,1.37,1.56-.59,1.37h-.78l-1.37,1.37h-1.56l-1.37,2.15h-8.59l-1.37,.78h-3.52l-1.56-.78-2.05,1.37-3.71,.78-1.37,1.37,6.54,.78,2.15,2.73,5.66,.78,1.37-.78h3.52l1.56,.78h2.73l2.15,2.93c3.52,.39,5.4,.59,5.66,.59,.13,0,.62-.1,1.46-.29,.85-.2,1.33-.29,1.46-.29,1.82-2.73,2.8-4.88,2.93-6.45l-4.3-5.08-3.71-1.37v-2.15l.78-.59h1.37l3.71,1.95h2.73c1.04,1.43,2.47,3.58,4.3,6.45l-1.37,1.56v4.1l-2.15,2.15-1.37,3.71-3.71,2.15c-2.54-.13-6.32,.07-11.33,.59-3.58-1.69-7.55-2.86-11.91-3.52l-5.96-4.3-8.59-2.15-2.73,2.93-3.71,.59-.59,1.56c.65,1.82,.84,4.17,.59,7.03h.78v1.37l-1.37,1.56h-1.56l-.59,2.73h-.78l-.2,3.12-1.95,1.27-.59,1.37,.59,1.56-1.37,3.52-1.37,1.37c.65,2.28,1.82,5.14,3.52,8.59l-.78,2.15,1.56,2.73-.78,3.71h-.78v4.3l-.59,.59v1.37l-2.15,1.56v2.73l-2.15,2.93v1.37l-2.15,1.66v.59l-.78,.78c-.39,3.12-.59,4.75-.59,4.88,0,.33,.11,.91,.34,1.76,.23,.85,.31,1.5,.24,1.95-.2,1.63-.43,3.22-.69,4.79-.39,1.95-1.08,3.42-2.07,4.39l-.79,2.93-2.36,1.76c-.98,1.95-2.08,5.14-3.32,9.57l-5.17,3.52,.78,1.37-1.37,2.25v2.15h7.13c1.5,.26,6.42,1.79,14.75,4.59,8.34,2.8,13.19,4.59,14.56,5.37,1.56,1.11,3.91,2.73,7.03,4.88,1.69,.78,4.07,2.02,7.13,3.71,1.3,1.11,3.45,2.54,6.45,4.3l1.37-5.66,2.15-1.56h4.3l2.15,2.15,2.93-2.15,3.52-7.03,2.15-.78,2.15-2.15,4.3,.78,2.15,2.15v4.3Zm-109.57-.39l-2.54-1.76c-4.17-.52-5.92-.78-5.27-.78-5.01,0-8.95,.98-11.82,2.93-2.08,2.6-3.78,4.49-5.08,5.66v2.15l4.3,.78c2.28-1.24,5.01-2.15,8.2-2.73,5.14-.91,7.91-1.43,8.3-1.56l3.91-4.69Z"/>
      <path class="cls-1" d="M227.05,123.54c-.72,.98-2.17,2.05-4.35,3.22-2.18,1.17-3.4,1.99-3.66,2.44v.78c-.85,.65-2.02,1.56-3.52,2.73l-1.37,2.93-3.52,2.73-.78,1.56c-2.28,1.56-5.96,2.15-11.04,1.76-3-.85-5.66-1.95-8.01-3.32l-.78-3.12c.2-2.86,1.04-6.18,2.54-9.96-3.58,.98-6.22,2.54-7.91,4.69-2.87,3.52-4.46,5.41-4.79,5.66l.39,.59c-.13,.26-.33,.62-.59,1.07-.26,.46-.46,.82-.59,1.07h-2.73c-1.95,1.69-4.36,2.67-7.23,2.93-5.92-.2-11.36-2.54-16.31-7.03-.59-2.54-1.43-5.86-2.54-9.96,0-4.49,1.04-8.36,3.12-11.62v-.59c3.97-5.14,5.66-9.44,5.08-12.89l-1.56-.78-.59,.78h-1.56l-1.37,1.37-2.15,.78-3.52-.78,.97-5.08,2.53-1.95c2.08-.52,4.48-.78,7.21-.78l2.14-1.37h1.46l.78-1.37,2.73-.78,1.36-3.52,.78-.78,2.92,1.37,3.5-1.37,4.29,1.37c.26,1.43,.45,3.58,.58,6.45l-.58,1.37-3.45,.78c-.46,.59-.98,1.76-1.56,3.52h-.58c-.65,3.78-1.62,6.19-2.92,7.23v.59c-.65,.59-1.62,1.82-2.92,3.71l-.59,5.66-.78,.59c-1.17,1.89-1.62,4.07-1.36,6.54l.59,.78c-.26,.98,.34,2.88,1.81,5.71s2.69,4.7,3.66,5.62h2.54c.39-.26,3.25-3.06,8.59-8.4l2.15-.78,.39-1.37c1.04-.26,1.82-.78,2.34-1.56l1.37-.59v-.78c.52-1.04,1.24-2.25,2.15-3.61,1.43-.52,2.9-1.4,4.39-2.64,2.21-1.82,3.48-2.83,3.81-3.03,.33-1.37,.78-2.34,1.37-2.93h.78c.85-2.86,2.44-6.97,4.79-12.3,.65-.98,1.56-2.54,2.73-4.69-.2-1.37,.07-2.8,.78-4.3l5.68-2.54,4.89,1.76c.78,1.43,1.04,3.12,.78,5.08l-.77,1.37v2.15h-.59l-2.16,4.3h-.78c-.91,.65-1.63,2.73-2.15,6.25h-.59c-.46,1.76-1.17,3.71-2.15,5.86v3.52l-2.15,4.98-.78,.78-2.15,5.66v2.15c0,.33,.03,.85,.1,1.56,.06,.72,.1,1.24,.1,1.56,2.47-1.56,4.1-2.86,4.88-3.91l4.3-.59,.59-.78v-1.37c1.3-1.24,3.19-3.12,5.66-5.66,1.82-.72,3.06-1.01,3.71-.88l2.15,3.03v1.37Z"/>
      <path class="cls-1" d="M336.13,124.32c-1.37,2.48-2.44,4.23-3.22,5.27-1.43,1.82-3,3.12-4.69,3.91-1.24,2.02-2.67,3.45-4.3,4.3l-1.37,2.15-4.3,.78-4.3-.78-1.37-1.37v-.78l-2.15-2.15v-.78l-.78-.59-1.37-2.93v-2.73c0-.65,.13-1.37,.39-2.15l1.56-1.37c0-.2-.03-.45-.1-.78-.07-.33-.1-.59-.1-.78,0-2.02,.39-4.2,1.17-6.54h-.78v-1.37c0-.39,.13-.99,.39-1.81,.26-.81,.39-1.45,.39-1.9,1.04-2.28,2.93-5.53,5.66-9.77v-3.52l.59-1.56h-2.15c-1.69,1.3-4.49,3.19-8.4,5.66h-2.15l-2.93,1.56v.59c-1.76,.52-3.19,1.24-4.3,2.15v.78h-.59v.78l-.78,.59v.78l-3.61,4.88c.13,1.17-.39,2.6-1.56,4.3,.13,.46-.13,1.92-.78,4.39l-1.17,1.37v.78l.98,2.54-.39,1.76-1.37,1.37c-.91,1.37-1.37,4.49-1.37,9.38l-2.93,1.37h-2.15l-1.37-.78-.78-1.37-2.15-.78-1.37-2.15v-.59l-.78-.78c.46-1.76,.59-3.38,.39-4.88l.78-1.56v-.59c1.37-1.37,2.21-2.6,2.54-3.71v-1.37l1.95-3.52c-.39-4.62,.33-8.24,2.15-10.84v-2.15l.78-.59c-.59-3.06-.85-4.75-.78-5.08-3.12,.78-5.47,1.95-7.03,3.52h-1.37l-2.93,3.71h-.78v.59l-1.37,1.56-2.15,.59-1.37,1.37v1.56h-.78v1.37l-1.37,.78-.78,1.37-2.73,.78-1.37,1.46v.78l-.78,1.37v.78l-1.37,1.37c.26,2.93,0,5.27-.78,7.03l-.78-.59v.59l-1.37,2.15-2.25,1.37-.78,1.56v.59h-1.37v.78l-.78,.78c-1.3,.07-3.22,.33-5.76,.78-2.28,.39-4.33,.59-6.15,.59-1.24-.33-1.95-.59-2.15-.78-1.56-1.56-2.54-2.99-2.93-4.3l.78-1.37h1.37l.78-.59,2.73-.78,1.17,1.56,1.76-.2,2.73-2.15,1.56-3.52v-2.93l1.37-1.37,1.37-4.39,.78-.59c.26-3.65,.98-6.25,2.15-7.81h1.37c.78-2.28,1.07-4.43,.88-6.45-.78-1.04-1.33-2.73-1.66-5.08,.65-1.89,.91-3.06,.78-3.52h-.78l-2.15,.98-3.52-.2-2.54,1.76c-.46,.07-1.38,.24-2.78,.54-1.4,.29-2.43,.44-3.08,.44-.33,0-.81-.03-1.46-.1-.65-.06-1.14-.1-1.46-.1l-1.17-3.52,1.95-1.95c1.04-.06,3.5-.39,7.4-.98,3.05-.39,5.52-.59,7.4-.59l2.34-1.17,2.05,.59,2.14-1.76,3.12-.78,2.53-1.76c2.6-.45,4.03-.65,4.29-.59l2.53,.98,.39,1.76-.78,2.15-.78,.78c.13,1.11,.55,2.64,1.27,4.59,.72,1.95,1.14,3.48,1.27,4.59l2.55,.39c1.96-1.17,5.03-2.73,9.21-4.69l1.37-2.15c3.66-1.69,6.85-2.8,9.6-3.32l2.64-2.34,4.31,.78,1.57,1.37v1.37h.59c-.13,.78,.13,2.02,.78,3.71l1.37,.59,1.37-.59,1.56,.59c.98-.33,2.15-1.04,3.52-2.15v-.59c.85-.2,2.38-.93,4.59-2.2,2.21-1.27,3.55-2.23,4-2.88,1.43,.13,4.95-.26,10.55-1.17l1.56,.59,2.15,2.15,.59,1.37v5.66c-.46,.33-1.37,2.21-2.73,5.66-2.8,.91-4.49,3.06-5.08,6.45l-.78,.78v1.37l-.59,.59v3.71l.59,1.37c-.07,1.11-1.11,4.53-3.12,10.25l.78,2.73,2.34-.78c1.63-1.24,4.04-3.12,7.23-5.66v-.78h.78c1.95,.52,2.9,.78,2.83,.78Z"/>
      <path class="cls-1" d="M421.68,103.12c-.78,3.26-1.6,6.48-2.44,9.67-1.24,3.84-2.83,6.71-4.79,8.59v1.56c-1.3,1.43-2.54,3.06-3.71,4.88v1.37c-.39,.39-1.11,1.63-2.15,3.71l-1.37,.59-1.95,1.95-2.34,.98-.59,.59c-3.26,1.69-7.13,2.41-11.62,2.15l-1.37,.78c-1.3-.59-3.19-1.56-5.66-2.93v-.59l-2.15-5.08,2.15-.59,1.37-1.56,2.93,1.56,.59,2.15,2.73,.59c2.08,0,4.49-.91,7.23-2.73l2.15-3.71v-.59l3.61-1.56,1.56-1.95,.59-4.39h.78v-4.3c-1.43-2.15-1.95-5.86-1.56-11.13h-.59v-2.93l-.78-.59-.58-2.15-4,.59c-3.25,4.17-6.7,8.4-10.35,12.7-1.24,.39-2.41,1.04-3.51,1.95l-2.15,2.93v.78l-2.93,1.95c-.52,1.11-1.43,2.64-2.73,4.59h-.78l-.78,1.37h-.59c.13,.91-.07,2.21-.59,3.91-.72,2.21-1.11,3.52-1.17,3.91-.65,.78-1.76,1.95-3.32,3.52v1.37h-.59v1.56c-1.43,.65-2.7,2.51-3.81,5.57-.72,2.15-1.4,4.33-2.05,6.54-.72,1.3-1.63,3.38-2.73,6.25l-.78,.78c-.98,2.6-1.79,5.5-2.44,8.69l-2.34,2.93c-.2,2.6-1.14,5.24-2.83,7.91-1.76,2.86-3.81,4.72-6.16,5.57-.78,1.04-1.95,2.47-3.52,4.3l-2.74,1.37-2.15,2.73c-2.28,1.63-5.41,2.57-9.38,2.83-5.67,.39-8.96,.68-9.87,.88l-.78-.78h-2.15c-7.03-3-11.07-7.03-12.12-12.11l-2.15-2.15v-1.37h-.59l-.78-2.15,.78-2.93c1.95-2.15,4.56-3.58,7.81-4.3v-.59h2.15v-.78c2.02-.78,4.85-1.4,8.5-1.86,4.04-.59,6.9-1.14,8.59-1.66l6.45,1.37-1.56,.98-3.52-.2-2.73,2.15-2.15,.59-1.76,2.54c-2.6,.39-6.35,1.5-11.23,3.32v1.37l-2.93,1.95-.59,2.34c2.34,2.34,4.04,4.17,5.08,5.47,2.21,.72,4.59,1.69,7.13,2.93h2.93c-.13,0,3.45-.91,10.74-2.73l1.17-2.93,2.73-2.73c1.24-3.39,3.45-7.03,6.64-10.94l-.39-3.12c.59-2.8,1.63-5.63,3.13-8.5v-2.73l2.34-4.1v-2.15l.78-.59c.91-3.06,1.37-5.21,1.37-6.45l3.13-4.1,.39-1.76,1.56-1.95v-1.37h-.78c.78-2.15,1.69-5.47,2.74-9.96h.59v-.78l1.27-1.17v-2.25c1.5-1.5,2.41-2.8,2.73-3.91l-.78-.59,.78-.78-.78-.78c.91-1.11,1.56-2.28,1.95-3.52v-.59h-.78v-2.15l.78-1.56h.59l-.78-2.73c-3.91,.78-6.15,1.17-6.74,1.17-.13,0-2.15-.2-6.05-.59l-2.73,.78-5.08-.78v-.59h-2.15l-2.15-2.15,.78-1.37,4.3-1.56c.72,.52,4.49,.78,11.33,.78l4.39-2.15h2.15l1.37-1.37h2.15l3.71-2.15,.59-.78,1.37-.59c.45-2.08,1.42-5.21,2.9-9.38,.58-.52,4.87-.78,12.86-.78l.58,.78,.78,4.3-1.29,1.37c.39,3.06-.33,5.92-2.15,8.59h-.78v.78h-.78c.06,.59-.02,1.43-.24,2.54-.23,1.11-.34,1.89-.34,2.34,0,.26,.2,1.56,.59,3.91l-2.34,5.08,4.49-2.34c1.37-1.3,2.96-3.38,4.78-6.25,2.02-3.25,3.48-5.4,4.39-6.45,1.43-1.11,3.61-2.54,6.54-4.3,5.47-2.41,9.5-3.38,12.11-2.93l3.51,2.15v.78l.78,.78v.59h.78c.65,.78,.98,3.65,.98,8.59l.59,.78v.59l.78,.78Z"/>
    </g>
  </g>
</svg>