<?xml version="1.0" encoding="UTF-8"?><svg id="Layer_2" xmlns="http://www.w3.org/2000/svg" viewBox="0 0 59.79 62.04"><defs><style>.cls-1,.cls-2{stroke-width:0px;}.cls-2{fill:#fff;}</style></defs><g id="_6"><path id="bg" class="cls-2" d="m41.8,59.22c-1.81.78-3.64,1.47-5.55,2.02-3.5,1-7.01.96-10.57.44-3.43-.5-6.73-1.37-9.85-2.9-3.62-1.77-6.73-4.2-9.52-7.1-1.93-2.01-3.45-4.27-4.52-6.8-1.62-3.83-2.34-7.76-1.3-11.94,1.05-4.21,3.48-7.59,6.1-10.85,3.63-4.53,7.75-8.62,12.08-12.49,2.94-2.62,5.88-5.27,9.15-7.48,1.87-1.27,3.91-2.5,6.25-2.02,2.5.51,5.05,1.05,7.36,2.22,3.49,1.76,6.78,3.86,9.52,6.71,4.19,4.37,6.99,9.44,8.24,15.4.67,3.16.76,6.33.46,9.49-.21,2.22-1.05,4.37-1.85,6.46-1.68,4.41-3.95,8.51-7.12,12.03-2.21,2.46-7.59,6.19-7.71,6.14-.12.07-.63.42-1.16.66Z"/><g id="num"><path class="cls-1" d="m41.34,35.04c-.19-1.72-.74-3.33-1.36-4.95-.51-1.33-1.47-2.14-2.55-2.88-.55-.38-1.19-.63-1.77-.98-3.78-.89-6.75.7-9.55,3.48.5-1.92.53-3.52.93-5.07.73-2.91,2.16-4.5,5.05-4.39,1.32.05,2.32.96,3.37,1.68h0c.9.47,1.06.35,1.36-.95h0c.27-.92.57-1.79,1.58-2.22.46-.2.41-.76.15-1.09-.45-.56-.86-1.14-1.54-1.53-2.26-1.31-4.74-1.22-7.14-.96-1.3.14-2.74.56-3.81,1.5-1.68,1.47-3.07,3.18-3.89,5.3-.68,1.77-1.47,3.51-1.44,5.46.04,2.11-.3,4.25.55,6.32.26.63.03,1.43.22,2.1.45,1.58,1.05,3.11,1.87,4.55,1.74,3.03,4.03,5.24,7.76,5.57,3.92.35,7.77-1.68,9.52-5.15.93-1.84,1.27-3.75.69-5.77Zm-6.2,3.2c-.34,1.36-.89,2.54-2.42,2.74-1.65.22-2.81-.66-3.63-2-.45-.73-.77-1.54-1.12-2.32-.87-1.97,0-4.26,1.98-5.16.6-.27,1.19-.67,1.92-.62,1.08.07,1.98.52,2.46,1.51.89,1.85,1.32,3.77.81,5.84Z"/></g></g></svg>