<?xml version="1.0" encoding="UTF-8"?><svg id="Layer_2" xmlns="http://www.w3.org/2000/svg" viewBox="0 0 62.15 58.31"><defs><style>.cls-1{fill:#807f80;}.cls-1,.cls-2,.cls-3,.cls-4,.cls-5,.cls-6{stroke-width:0px;}.cls-2{fill:#020202;}.cls-3{fill:#fff;}.cls-4{fill:#c7c5c7;}.cls-5{fill:#aaa8aa;}.cls-6{fill:#cccacb;}</style></defs><g id="_41"><path id="bg" class="cls-3" d="m59.53,24.88c-4.13-2.47-8.16-5.13-11.97-8.08-2.89-2.24-5.57-4.74-8.59-6.81-1.46-1-2.89-2.1-3.89-3.52-1.1-1.57-2.44-2.89-3.82-4.16C30.18,1.32,29.08-.04,27.51,0c-3.15.09-6.35.16-9.33,1.46C7.95,5.91,2.2,13.83.36,24.71c-.62,3.69-.48,7.42.69,10.99,2.15,6.55,6.59,11.25,12.42,14.75,6.08,3.65,12.61,6.07,19.57,7.33,4.74.86,9.43.87,13.83-1.43,3.43-1.79,6.09-4.47,8.43-7.55,4.18-5.5,6.72-11.56,6.8-18.54,0-.39-.04-.79,0-1.17.23-2.09-.83-3.15-2.6-4.21Z"/><path id="num" class="cls-2" d="m28.8,31.58c-1.29.06-1.44-.5-1.32-1.56.2-1.74.35-3.48.43-5.23.13-2.92.21-5.85.25-8.77.01-.81.01-1.74-1.2-1.8-1.41-.07-2.83-.11-4.24-.26-1.07-.11-1.7.3-2.23,1.21-2.92,5.07-5.8,10.15-8.58,15.29-.89,1.64-.65,3.3-.69,4.98-.01.59.38.85.96.85,2.87-.02,5.73.53,8.61.08.91-.14,1.39.15,1.34,1.17-.05,1.17-.06,2.34,0,3.51.14,2.59.17,2.59,2.94,2.84.11,0,.41-.02.69.04,1.26.25,1.77-.16,1.65-1.52-.12-1.41.06-2.83-.04-4.24-.09-1.27.3-1.85,1.62-1.62,1.26.23,1.82-.28,1.7-1.58-.04-.43.08-.87.09-1.31.03-2.1.02-2.19-2-2.1Zm-7.09-.23c-.78.61-1.99.11-3,.14-.5.01-1.14.37-1.48-.23-.39-.69.36-1,.65-1.47,1.25-2.03,2.6-4.01,3.43-6.27.19-.53.3-1.13,1.18-1.75-.13,2.39-.17,4.47-.38,6.53-.11,1.03.5,2.34-.39,3.04Z"/><path id="num-2" class="cls-2" d="m44.31,20.49c-2.19-1.38-3.65-3.59-5.75-5.07h0,0c-.88-.34-1.33.56-2.05.69-.3.43-.68.68-1.22.51h0s0,0,0,0c-.58.1-1.16.21-1.74.31-1.34.52-.72,1.73-.92,2.65q.12,2,2.21,1.98c.54,0,1.08.02,1.61-.01.94-.06,1.15.33,1.02,1.24-.21,1.44-.28,2.91-.36,4.37-.2,3.6-.21,7.21-.03,10.82.05.95-.28,1.21-1.16,1.12-1.12-.1-2.24-.12-3.36-.19-.72-.05-1.1.19-1.07.99.05,1.02.06,2.05.03,3.08-.03.96.41,1.25,1.32,1.31,4.14.25,8.28.53,12.44.47,2.98-.04,2.9.71,2.96-2.84.06-2.99.07-2.99-2.96-2.76-2.01.15-2.14,0-2.01-2.07.18-3.16.28-6.33.5-9.49.15-2.17-.12-4.37.39-6.52.06-.19.11-.38.17-.57h0Z"/><path class="cls-4" d="m35.6,15.65c-1.07-.38-1.79-1.3-2.84-1.73-.97-.39-2.17-.65-2.49-1.95-.08-.31-.3-.46-.58-.59-1.2-.53-1.19-.54-.96-1.77.06-.34-.23-.5-.44-.7-.3-.29-1.11-.17-.78-.95.3-.7.9-.25,1.65-.29,0-.01,0-.02,0-.03-1.53-1.06-1.66-3.25-3.78-3.39-.07,0-.15-.11-.2-.19-.53-.93-1.11-1.09-2.06-.55-.29.17-.57.37-.85.56-.78.5-1.47.15-1.94-.42-.56-.69.34-.94.61-1.39-1.23-.16-2.2.64-3.32.89-.47.11-1.16.16-1.17.87,0,.75.28,1.8.9,1.84,1.37.09,1.77,1.34,2.76,1.83,2.75,1.34,5.45,2.78,7.99,4.51,1.58,1.07,3.49,1.71,4.36,3.63.12.26.41.61.65.28.99-1.39,1.7-.31,2.48.23.38-.22.28-.59.02-.68Z"/><path class="cls-5" d="m36.03,14.77c-.44,0-.35-.38-.51-.58-.63-.79-1.22-1.62-2.24-2.01-.34-.13-.83-.42-.88-.7-.26-1.63-1.52-2.73-2.12-4.18-.33-.8-.93-1.48-1.33-2.26-.37-.71-.65-1.47-1.02-2.32.68.12.88.74,1.42.73-.13-.58-.61-.86-1.03-1.16-2.45-1.76-4.92-.67-7.39-.03-.27.44-1.17.7-.61,1.39.47.57,1.16.91,1.94.42.29-.18.56-.39.85-.56.95-.54,1.53-.38,2.06.55.04.08.13.18.2.19,2.12.15,2.25,2.34,3.78,3.39.01.01.03.02.04.03-.01,0-.03,0-.04,0-.75.05-1.35-.4-1.65.29-.33.77.48.66.78.95.21.2.5.36.44.7-.23,1.23-.24,1.23.96,1.77.29.13.51.28.58.59.32,1.3,1.51,1.55,2.49,1.95,1.06.43,1.78,1.34,2.84,1.73.26.09.36.46-.02.68-.1.1-.19.19-.29.29h0c.55.17.92-.08,1.22-.51.07-.15.15-.3.22-.45.21-.46.26-.87-.7-.89Z"/><path class="cls-6" d="m55.3,29.19c-1.64-1.5-3.11-3.21-5.1-4.3-.41-.22-1.07-.81-1.01-.95.62-1.35-.64-1.3-1.21-1.71-1.11-.81-2.39-1.3-3.68-1.74h0c.25.28.02.42-.17.57.26.22.75.45.74.66-.05,1.91,1.73,2.47,2.57,3.71.63.95,1.03,1.86,2.41,1.22.38-.18.72.16,1.02.43,1.71,1.52,3.44,3.03,4.29,5.24.29.76,1,1.03,1.59,1.45.29.21.56.01.81-.14.27-.16.28-.41.1-.61-1.02-1.13-1.22-2.79-2.36-3.83Z"/><path class="cls-6" d="m44.31,20.49c-.06.19-.11.38-.17.57.2-.15.42-.29.17-.57Z"/><path class="cls-1" d="m38.56,15.42h0c-2.33-2.14-3.93-4.86-5.76-7.39-1.12-1.54-2.3-3.04-3.45-4.56h0c-.54,0-.74-.61-1.42-.73.36.84.64,1.6,1.02,2.32.41.77,1.01,1.46,1.33,2.26.59,1.45,1.86,2.54,2.12,4.18.04.28.53.57.88.7,1.02.38,1.61,1.22,2.24,2.01.16.2.07.57.51.58.97.02.91.43.7.89-.07.15-.15.3-.22.45.72-.13,1.17-1.03,2.05-.69h0Z"/><path class="cls-4" d="m33.54,16.93c-1.32.26-1.49.77-.92,2.65.2-.92-.42-2.12.92-2.65Z"/></g></svg>