<?xml version="1.0" encoding="UTF-8"?><svg id="Layer_2" xmlns="http://www.w3.org/2000/svg" viewBox="0 0 62.26 62.59"><defs><style>.cls-1{fill:#020202;}.cls-1,.cls-2,.cls-3{stroke-width:0px;}.cls-2{fill:#838082;}.cls-3{fill:#fff;}</style></defs><g id="_10"><path id="bg" class="cls-3" d="m29.92.02C13.35.53.26,13.75,0,30.73c-.26,17.32,14.73,33.24,34.15,31.76,14.48-1.11,28.27-13.63,28.11-31.16C62.11,13.7,48.38-.55,29.92.02Z"/><path id="num" class="cls-1" d="m19.55,16.76c-2.53,1.4-3.78,3.66-4.45,6.27-.73,2.84-.98,5.76-.55,8.7,0,1.16-.06,2.33.01,3.48.19,2.95.92,5.77,2.49,8.3,2.92,4.71,9.9,5.18,12.77.37,1.48-2.49,2.21-5.26,2.26-8.2.03-2.09-.09-4.17-.17-6.26-.13-3.42-.81-6.65-2.57-9.64-1.85-3.13-6.39-4.9-9.78-3.02Zm7.2,19.8c-.03,1.54-.35,2.92-1.13,4.24-1.09,1.82-2.41,1.97-3.89.39-.19-.2-.34-.43-.52-.64t0,0h0c-1.06-1.32-1.43-3.05-1.45-4.53-.06-3.69-.51-7.4.02-11.08.23-1.61.52-3.26,2.54-3.68,1.53-.38,2.78.56,3.34,2.47,1.22,4.21,1.19,8.52,1.09,12.85Z"/><path id="num-2" class="cls-1" d="m35.91,21.63c1.22-.04,1.62.41,1.6,1.62-.06,3.58-.02,7.16-.02,10.74.29,3.67.15,7.35.38,11.02.07,1.09.42,1.46,1.51,1.42,1.71-.06,3.32-.36,4.78-1.29,1.03-.65,2.15-1.1,3.33-1.36.88-.2,1.25-.7,1.22-1.58-.1-3.09.49-3.12-2.84-2.8-.14.01-.28.01-.42.03-1.85.17-1.93.1-1.86-1.85.17-4.89.07-9.77-.41-14.64-.13-1.37.37-1.65,1.5-1.58.42.03.83.14,1.25.14,2.94.03,3.08.62,3.02-2.78,0-.46.04-.93.03-1.39-.01-.8-.42-1.14-1.24-1.13-4.46.06-8.93.07-13.4.13-1.81.02-1.95.2-1.9,2.03.08,3.36.08,3.39,3.48,3.27Z"/><path class="cls-2" d="m20.12,29.67c.01-2.96-.31-6.08,2.21-8.42-2.01.42-2.31,2.07-2.54,3.68-.53,3.68-.07,7.39-.02,11.08.02,1.48.39,3.21,1.45,4.53h0c-.96-3.57-1.12-7.22-1.11-10.88Z"/></g></svg>