<?xml version="1.0" encoding="UTF-8"?><svg id="Layer_2" xmlns="http://www.w3.org/2000/svg" viewBox="0 0 62.02 59.06"><defs><style>.cls-1{fill:#020202;}.cls-1,.cls-2,.cls-3{stroke-width:0px;}.cls-2{fill:#fff;}.cls-3{fill:#bfbdbe;}</style></defs><g id="_12"><path id="bg" class="cls-2" d="m58.74,44.88c1.62-3.29,2.8-6.64,3.11-10.38.36-4.36.19-8.61-1.17-12.74-2.05-6.24-5.54-11.49-10.85-15.54-4.22-3.22-8.87-5.13-14.06-5.88C31.17-.34,26.66,0,22.17,1.36c-6.5,1.97-11.91,5.49-15.95,10.87C2.09,17.76-.28,24,.03,29.84c.03,5.52.79,9.6,2.59,13.61,3,6.67,7.68,11.63,13.97,15.19.85.48,1.64.53,2.52.2,3.78-1.41,7.68-2.45,11.57-3.45,7.18-1.86,14.39-3.61,21.71-4.87.89-.15,1.89-.1,2.61-.83,1.44-1.45,2.82-2.94,3.74-4.81Zm-34.49,6.33c-.04.58-.64.51-1.12.33-.66-.24-1.02-.02-1.44.62-.54.81-1.3,1.5-1.94,2.26-1.3,1.54-4.38.72-4.96-1.18-.46-1.5-.93-3-1.29-4.16-.06-2.52,1.69-3.76,3.58-2.84.64.31,1.24-.19,1.88.16,1.72.94,3.75,1.27,5.26,2.62.76.68.09,1.48.04,2.19Z"/><path id="num" class="cls-1" d="m39.19,16.8c-2.76-.09-4.84,1.38-7.05,2.63-.97.55-1.1,1.2-.41,2.16.54.74.96,1.56,1.54,2.3.61.77,1.15.72,1.69.05.49-.6,1.14-.95,1.81-1.26,2.59-1.2,5.74.1,5.38,3.24-.1.84-.21,1.62-.54,2.41-1.22,2.91-3.55,4.83-5.9,6.74-2.56,2.07-5.16,4.09-7.72,6.16-1.26,1.02-1.3,2.63-1.29,3.95.01.99,1.55.6,2.38.92.3.12.63.18.94.24,3.77.79,7.53,1.59,11.39,1.8.19,0,.37.01.56,0,4.06-.35,3.11.23,3.83-3.52.2-1.04-.23-1.41-1.16-1.63-2.13-.51-4.3-.67-6.48-.82-.47-.03-1.01.04-1.22-.47-.22-.56.28-.83.65-1.08,2.48-1.68,4.62-3.72,6.63-5.93,1.95-2.15,3.24-4.62,3.68-7.5.91-5.88-2.76-10.17-8.73-10.38Z"/><path id="num-2" class="cls-1" d="m25.04,14.31c-1.01-.15-2.01-.31-3.25-.5-2.17.61-4.6.95-7.01,1.34-.2.03-.47.22-.54.4-.5,1.17-.79,2.5-.45,3.65.31,1.03,1.6.58,2.48.67.23.02.47,0,.69.03,1.1.15,1.51.74,1.21,1.84-.3,1.12-.58,2.24-.79,3.38-.65,3.55-1.62,7.04-2.02,10.64-.17,1.5-.97,1.93-2.49,1.33-.74-.29-1.46-.61-2.23-.74-1.05-.18-1.75.29-1.82,1.38-.05.9-.29,1.74-.58,2.57-.39,1.1.06,1.69,1.12,1.91,4.21.87,8.41,1.78,12.63,2.59,2.9.56,2.94.51,3.42-2.4.41-2.44,1-3.18-2.31-3.19-.18,0-.37-.04-.55-.07-1.29-.18-1.67-.73-1.32-2,.19-.71.49-1.4.65-2.12.92-4.07,1.84-8.13,2.69-12.22.49-2.35.85-4.74,1.23-7.11.09-.6.11-1.25-.75-1.38Z"/><path class="cls-3" d="m18.94,46.4c-.63-.35-1.24.15-1.88-.16-1.89-.92-3.64.31-3.58,2.84.36,1.16.83,2.66,1.29,4.16.58,1.9,3.66,2.72,4.96,1.18.64-.76,1.41-1.45,1.94-2.26.42-.64.78-.85,1.44-.62.49.18,1.09.25,1.12-.33.05-.72.71-1.51-.04-2.19-1.51-1.36-3.54-1.68-5.26-2.62Z"/></g></svg>