<?xml version="1.0" encoding="UTF-8"?><svg id="Layer_2" xmlns="http://www.w3.org/2000/svg" viewBox="0 0 62.07 61.81"><defs><style>.cls-1{fill:#020202;}.cls-1,.cls-2,.cls-3,.cls-4,.cls-5,.cls-6{stroke-width:0px;}.cls-2{fill:#a7a5a6;}.cls-3{fill:#a6a4a6;}.cls-4{fill:#fff;}.cls-5{fill:#7e7b7c;}.cls-6{fill:#bdbabb;}</style></defs><g id="_15"><path id="bg" class="cls-4" d="m49.64,5.48C43.42.73,36.73-1.55,29.01,1.16c-1.85.65-4.08.97-5.16,2.77-1.23,2.05-2.6,4.05-3.48,6.3-.02.69.02,1.34.18,2.04.27,1.14.19,2.31-.82,3.18-.22.19-.41.4-.72.28-.32-.12-.34-.42-.33-.69,0-.41-.08-.88.09-1.23.42-.86-.02-1.28-.68-1.65h0c-.26.02-.52.05-.78.07-1.29.52-2.63.18-3.95.22-3.16,1.54-6.21,3.21-8.84,5.65C1.61,20.8.38,24.21.09,27.98c-.41,5.44.5,10.66,2.78,15.7,2.44,5.39,6.15,9.67,10.99,12.83,7.51,4.9,15.69,6.59,24.57,4.26,7.73-2.02,13.81-6.3,18.21-12.89,5.33-7.97,6.71-16.7,4.22-25.93-1.82-6.74-5.64-12.21-11.23-16.48Z"/><path class="cls-2" d="m20.55,12.27c-.16-.69-.2-1.35-.18-2.04-.27,1.22-1.18,1.68-2.28,1.92.66.37,1.1.79.68,1.65-.17.35-.09.82-.09,1.23,0,.28.02.58.33.69.31.12.5-.09.72-.28,1.01-.88,1.09-2.04.82-3.18Z"/><path class="cls-2" d="m13.36,12.44c1.32-.04,2.66.3,3.95-.22-1.32.09-2.66-.29-3.95.22Z"/><path id="num" class="cls-1" d="m48.03,17.68c-3.85-.62-7.7-1.2-11.54-1.86-.91-.16-1.41.04-1.61.97-.7,3.3-1.44,6.59-2.11,9.89-.22,1.09-.39,2.2-.42,3.3-.06,2.04,1.86,3.26,3.65,2.39.25-.12.5-.26.75-.36,2.4-.98,4.83.58,4.86,3.16.01.92.07,1.92-.22,2.76-1.1,3.21-3.23,4.55-6.11,2.72-.65-.41-1.09-1.15-1.71-1.62-.64-.48-.58-1.86-1.65-1.6-.83.2-1.24,1.2-1.83,1.84-.9.98-1.23,2.01-.44,3.27,2.27,3.63,7.37,6.12,12.11,4.11,4.34-1.85,6.48-6.15,6.4-11.73.05-2.06-.75-4.11-2.57-5.72-1.71-1.51-3.69-2.3-6-2.13-1.11.08-1.53-.25-1.17-1.44.25-.84.51-1.68.77-2.52.2-.66.55-.87,1.23-.75,1.46.26,2.93.47,4.37.85,3.76.99,4.66.25,4.86-3.61.07-1.33-.54-1.74-1.62-1.91Z"/><path id="num-2" class="cls-1" d="m25.68,39.16c-.42-.01-.83-.12-1.24-.13-.87-.02-1.02-.47-1.02-1.27,0-1.12.78-1.99.83-3.06.11-2.12.63-4.19.87-6.3.4-3.54,1.14-7.05,1.67-10.58.55-3.67-.02-4.15-3.5-3.08-.08.02-.14.11-.21.17-.94.74-.87,2.17-1.93,2.83h0c-.39.44-.83.47-1.37.27-1.86-.69-2.49-.48-3.66,1.14-.26.83-.11,1.3.92,1.13.44-.07.91.02,1.37.04-.13.04-.27.07-.4.1.13-.02.27-.05.4-.1q1.83-.49,1.58,1.44c-.07.51-.16,1.01-.26,1.51-.84,4.09-1.64,8.19-1.96,12.37-.17,2.28-.36,2.46-2.64,1.91-3.23-.79-3.52-1.34-4.13,3.04-.06.46-.13.9-.04,1.38.12.59.39.82,1.01.91,4,.56,7.98,1.2,11.98,1.76,3.49.49,3.67.31,3.84-3.24.09-1.83-.26-2.19-2.12-2.24Z"/><path class="cls-3" d="m5.72,21.6c.35.53.87.46,1.33.1,1.04-.82,2.25-1.45,3.25-2.82-1.68.18-3.06.47-4.24,1.38-.44.34-.68.83-.35,1.34Z"/><path class="cls-6" d="m17.05,20.28c-1.03.17-1.17-.3-.92-1.13-.69.36-1.38.72-2.07,1.08-.4.21-.95.43-.82.96.15.66.8.45,1.28.48.18.01.44.04.53-.06.82-.85,1.92-.96,2.96-1.19.13-.03.27-.06.4-.1-.46-.02-.93-.11-1.37-.04Z"/><path class="cls-5" d="m21.71,15.78c-.71.5-1.1,1.1-.55,1.96h0c1.05-.66.99-2.09,1.93-2.83-.46.29-.93.56-1.38.87Z"/></g></svg>