<?xml version="1.0" encoding="UTF-8"?><svg id="Layer_2" xmlns="http://www.w3.org/2000/svg" viewBox="0 0 62.26 61.23"><defs><style>.cls-1,.cls-2{stroke-width:0px;}.cls-2{fill:#fff;}</style></defs><g id="_4"><path id="bg" class="cls-2" d="m30.18,61.23c-8.35-.38-15.53-3.57-21.41-9.43-3.2-3.19-5.56-7-6.99-11.4C.61,36.78-.07,33.15,0,29.38c.05-2.59.44-5.11,1.22-7.6,1.53-4.83,3.81-9.2,7.38-12.82C12.86,4.66,17.95,1.95,23.91.73c5.96-1.22,11.79-.91,17.55.89,4.18,1.31,7.91,3.48,11.19,6.36,3.89,3.42,6.5,7.68,8.1,12.63,1.42,4.38,1.83,8.86,1.28,13.32-.55,4.46-1.99,8.74-4.5,12.58-2,3.05-4.38,5.76-7.24,7.99-2.57,2-5.4,3.61-8.55,4.64-1.6.52-3.17,1.07-4.81,1.46-2.22.52-4.46.66-6.74.63Z"/><g id="num"><path class="cls-1" d="m43.12,18.7c.19-.72-.11-1.29-.86-1.46-1.72-.41-3.44-.78-5.17-1.14-.94-.19-1.71.04-2.42.77-4.05,4.15-8.12,8.27-12.25,12.35-1.18,1.17-2.03,2.35-2.27,4.09-.32,2.28-.47,2.23,1.77,2.51,2.91.36,5.7,1.31,8.6,1.77,1.47.24,1.61.52,1.22,1.95-.46,1.7-.87,3.41-1.28,5.13-.12.48-.07.78.58.91,1.31.26,2.65.45,3.88,1.06.95.47,1.42-.25,1.63-1.01.45-1.62.82-3.26,1.2-4.91.19-.84.59-1.4,1.53-1.24,2.45.42,2.45.43,2.91-1.92.47-2.38.47-2.37-1.85-2.92-.5-.12-1.2-.28-.97-.96.36-1.1.53-2.23.83-3.34.45-.86.66-1.78.65-2.75h0s0,0,0,0c1.02-2.9,1.51-5.94,2.29-8.9Zm-7.53,5.25c-.48,1.69-.95,3.38-1.52,5.04-.34,1.01-.28,2.09-.62,3.09-.19.55-.45.95-1.11.84-1.44-.28-2.88-.56-4.32-.83-.23-.04-.44-.08-.5-.36-.08-.38.21-.5.43-.7,2.13-1.91,4.27-3.82,5.99-6.13.31-.42.54-.9.88-1.29.19-.22.29-.74.73-.55.47.2.13.6.04.89Z"/></g></g></svg>