<?xml version="1.0" encoding="UTF-8"?><svg id="Layer_2" xmlns="http://www.w3.org/2000/svg" viewBox="0 0 62.1 62.09"><defs><style>.cls-1{fill:#020202;}.cls-1,.cls-2{stroke-width:0px;}.cls-2{fill:#fff;}</style></defs><g id="_14"><path id="bg" class="cls-2" d="m30.93,0C14.91-.26.67,12.79.03,29.48c-.7,18.05,13.13,31.58,29.47,32.56,17.91,1.07,32.66-13.99,32.6-31.04C62.05,15.18,48.17-.42,30.93,0Z"/><path id="num" class="cls-1" d="m50.34,33.84c-.04-1.11-.44-1.74-1.73-1.52-1.21.21-1.7-.3-1.7-1.54,0-2.37,0-4.74,0-7.11h-.48c0-2.46-.02-4.92,0-7.38.01-1.02-.55-1.31-1.42-1.19-1.39.19-2.79.24-4.17.14-1.05-.07-1.61.34-2.06,1.24-2.35,4.74-4.67,9.49-7.13,14.17-1.05,2.01-1.48,4.04-1.37,6.28.05,1.05.43,1.36,1.43,1.34,2.74-.05,5.49.05,8.21-.35,1.12-.17,1.67.23,1.65,1.41-.02,1.16.03,2.32.06,3.49q.06,2.81,2.81,2.78c.33,0,.65,0,.98,0,1.8.02,2.12-.29,2.05-2.11-.06-1.53-.37-3.04-.31-4.58.03-.83.29-1.3,1.19-1.38,2.14-.19,2.25-.35,2.06-2.45-.04-.42-.06-.83-.07-1.25Zm-8.97-2.39c.1,1-.26,1.5-1.29,1.48-1.02-.01-2.04,0-3.07.03-.59.02-.95-.09-.57-.77,1.49-2.67,2.88-5.39,3.81-8.33.08-.25.23-.69.66-.59.39.09.36.52.42.81.28,1.39-.09,2.77-.13,4.17.05,1.07.07,2.14.17,3.2Z"/><path id="num-2" class="cls-1" d="m26.56,40.68c-1.65.2-1.85-.1-1.89-1.85-.18-7.2-.4-14.4-.59-21.61-.02-.82-.37-1.19-1.19-1.16-1.66.06-3.31.03-4.78,1.11-1.09.79-2.39,1.26-3.72,1.52-1.21.24-1.56.96-1.45,2.12.25,2.62.22,2.63,2.84,2.41.23-.02.46-.03.7-.06,1.8-.19,1.85-.13,1.84,1.75-.01,2.37,0,4.75,0,6.19.16,3.48.22,6.04.41,8.59.07.98-.31,1.26-1.16,1.24-.98-.03-1.95-.07-2.93-.1q-1.89-.06-1.88,1.9c0,.84.14,1.69.02,2.51-.16,1.11.37,1.24,1.25,1.22,4.69-.15,9.39-.26,14.08-.4,1.97-.06,1.99-.08,1.97-2.04-.03-3.15.81-3.84-3.53-3.31Z"/></g></svg>