<?xml version="1.0" encoding="UTF-8"?><svg id="Layer_2" xmlns="http://www.w3.org/2000/svg" viewBox="0 0 62.24 57.18"><defs><style>.cls-1{fill:#020202;}.cls-1,.cls-2,.cls-3{stroke-width:0px;}.cls-2{fill:#fff;}.cls-3{fill:#bdbabb;}</style></defs><g id="_21"><path id="bg" class="cls-2" d="m54.1,10.03C49.05,4.61,42.96,1.26,35.49.37c-4.55-.54-9.04-.65-13.39.74C9.49,5.17,2.14,13.8.28,26.96c-.86,6.06.3,11.87,2.89,17.34,1.26,2.66,2.98,5.14,6.58,4.83,1.73-.25,3.41.02,5.09.39.78.17,1.55.26,2.27-.23-.04-.56-.95-.86-.49-1.48.47-.63,1.17-.39,1.8-.24.95.23,1.88.49,2.87.43.22-.01.51-.05.6.22.12.35-.17.49-.42.61-.49.23-.92.68-1.54.45-.27-.1-.59-.2-.72.13-.14.36.24.43.46.56.82.47,1.67.76,2.64.77.57,0,1.22-.2,1.7.35h0,0c2.1.56,4.21,1.06,6.29,1.7,2.9.89,5.77,1.61,8.88,1.75,2.42.11,5.07.2,7.23,2,1.2,1.01,2.59.69,3.69-.27,2.66-2.33,5.04-4.91,6.94-7.92,3.08-4.87,5.2-10.08,5.2-15.89,0-3.54-.23-7.11-1.35-10.57-1.44-4.45-3.6-8.45-6.79-11.87Z"/><path class="cls-3" d="m22.31,50.76c-.97,0-1.82-.3-2.64-.77-.22-.13-.6-.2-.46-.56.13-.33.45-.23.72-.13.62.22,1.05-.23,1.54-.45.24-.11.54-.25.42-.61-.1-.27-.39-.23-.6-.22-.99.06-1.93-.19-2.87-.43-.62-.15-1.33-.4-1.8.24-.46.62.45.92.49,1.48-.72.49-1.49.4-2.27.23-1.68-.37-3.37-.64-5.09-.39,2.42.14,4.76.99,7.22.86.73-.04,1.5.01,2.17.34,1.55.75,3.2.81,4.86.78h0c-.48-.55-1.13-.34-1.7-.35Z"/><path id="num" class="cls-1" d="m32.25,40.31c-1.56.44-3.08,1.02-4.69,1.29-.48.08-1.1.58-1.42.1-.37-.55.18-1.13.46-1.64.22-.4.57-.74.79-1.14,1.97-3.43,3.77-6.93,3.89-11.35.27-2.19-.63-4.4-1.74-6.59-1.13-2.23-3.07-3.43-5.34-3.81-4.53-.75-7.92,1.33-10.47,4.93-1.2,1.69-1.11,1.75.55,3.07.55.43,1.13.82,1.64,1.29.63.59,1.01.36,1.43-.24.58-.83,1.07-1.73,1.83-2.45,1.76-1.65,4.92-1.98,5.92,1.38.43,1.46.63,2.86.3,4.37-.78,3.53-2.72,6.49-4.55,9.49-.94,1.54-2.07,2.97-3.09,4.46-.63.92-.48,1.44.75,1.46,1.07.01,2.14.07,3.2.18,3.48.37,6.88,1.2,10.49.83,3.9-.4,3.44.16,2.94-3.75-.27-2.1-.83-2.46-2.91-1.87Z"/><path id="num-2" class="cls-1" d="m52.94,37.97c-.3-.87-.91-1.13-1.76-.87-.44.13-.86.36-1.3.49-1.61.47-2.09.2-2.38-1.43-.66-3.69-1.28-7.39-1.93-11.09-.27-1.58-.54-3.15-.84-4.72-.36-1.91-.49-3.86-1.15-5.7-.15-.42-.15-1.02-.93-.98-1.47.07-2.94.26-4.08,1.19-1.31,1.07-2.74,1.91-4.18,2.76-.71.43-.89.91-.8,1.71.33,3.09.3,3.09,3.34,2.5.09-.02.18-.02.28-.04,1.76-.28,1.97-.1,2.14,1.7.35,3.79,1.27,7.48,1.87,11.23.15.9.64,1.74.81,2.64.28,1.46-.16,1.93-1.66,2.01-.79.04-1.57.12-2.36.2-.82.09-1.2.4-1.05,1.37.14.92.49,1.8.53,2.71.06,1.3.58,1.78,1.38,1.53,4.19-.47,7.9-1.05,11.57-1.83,3.77-.8,4-1.29,2.64-4.99-.05-.13-.12-.25-.16-.38Z"/></g></svg>