<?xml version="1.0" encoding="UTF-8"?><svg id="Layer_2" xmlns="http://www.w3.org/2000/svg" viewBox="0 0 61.41 61.96"><defs><style>.cls-1{fill:#020202;}.cls-1,.cls-2{stroke-width:0px;}.cls-2{fill:#fff;}</style></defs><g id="_35"><path id="bg" class="cls-2" d="m31.04,61.96c16.98-.26,30.77-13.93,30.37-31.93C61.03,13.51,47.69-.2,30.36,0,13.68.06-.31,14.24,0,31.39c.31,17.08,13.79,30.83,31.03,30.57Z"/><path id="num" class="cls-1" d="m33.04,34.33c.12.72,1.06.48,1.68.38,1.99-.31,3.63.37,4.73,1.97,1.02,1.47.4,3.02-.33,4.42-.88,1.7-2,3.21-4.18,3.17-2.22-.04-3.49-1.42-4.44-3.29-.44-.86-.19-2.39-1.32-2.47-.86-.06-1.77.89-2.7,1.3-1.25.55-1.42,1.42-1.03,2.62,1.65,5.12,6.07,7.97,11.47,7.55,4.86-.38,8.83-6.29,9.17-10.94.06-.87.04-1.74-.27-2.6-1.2-3.26-3.65-4.91-6.98-5.56.27-1.31,1.36-2.14,1.86-3.28.58-1.33,1.24-1.14,2.23-.52,1.98,1.25,4.03,2.38,6.02,3.62.88.54,1.43.37,1.88-.52.51-1,1.07-1.97,1.6-2.96.31-.59.32-1.11-.35-1.49-3.79-2.11-7.58-4.23-11.36-6.36-.64-.36-1.02-.27-1.41.39-2.25,3.82-4.53,7.62-6.83,11.41-.75,1.23.4,2.1.57,3.15Z"/><path id="num-2" class="cls-1" d="m20.43,41.09c3.57-.2,7.07-4.1,7.51-7.5.24-1.85-.12-3.48-1.46-4.84-.25-.25-.47-.52-.33-.9.13-.35.47-.32.75-.29,1.11.12,2.16-.14,3.11-.67,1.75-.98,2.69-2.63,3.45-4.4,1.09-2.55.93-5.04-.83-7.16-2.06-2.47-4.66-4.15-8.08-3.96-.73,0-1.47-.06-2.2,0-2.62.24-2.7.35-2.34,2.9.09.63.17,1.26.3,1.88.14.68.47,1,1.25.72,1.47-.54,2.97-.49,4.46-.05,1.92.57,2.68,2.21,1.84,4-1.08,2.29-2.92,2.98-5.64,2.28-.93-.24-1.69-1.64-2.67-.84-.73.6-1.02,1.75-1.5,2.65-.05.09-.08.18-.14.26-.52.74-.34,1.22.48,1.59,1.07.49,2,1.21,2.81,2.07,1.7,1.79,1.72,3.73.14,5.47-1.78,1.95-3.81,1.22-5.34.02-.69-.54-1.19-1.27-1.64-2.04-.62-1.04-.61-2.89-1.58-3.1-1.01-.22-2.28.83-3.44,1.32-.04.02-.09.03-.14.05-.67.22-.91.61-.71,1.34,1.67,5.94,6.2,9.51,11.94,9.2Z"/></g></svg>