<?xml version="1.0" encoding="UTF-8"?><svg id="Layer_2" xmlns="http://www.w3.org/2000/svg" viewBox="0 0 61.39 61.45"><defs><style>.cls-1{fill:#090809;}.cls-1,.cls-2{stroke-width:0px;}.cls-2{fill:#fff;}</style></defs><g id="_3"><path id="bg" class="cls-2" d="m61.34,30.6c.07,7.57-2.28,13.79-6.47,19.2-4.19,5.41-9.77,8.99-16.47,10.73-5.32,1.38-10.56,1.13-15.84-.27-4.02-1.07-7.66-2.89-10.87-5.41-4.41-3.46-7.71-7.86-9.65-13.19C.81,38.3.02,34.84,0,31.26c-.03-6.58,1.73-12.72,5.57-18.06,3.09-4.29,6.85-7.95,11.83-10.21C21.63,1.08,26.03-.07,30.63,0c4.57.07,8.93,1.33,13.02,3.43,4.29,2.2,7.83,5.25,10.92,8.93,2.58,3.07,4.42,6.53,5.56,10.31.82,2.74,1.46,5.59,1.21,7.93Z"/><path id="num" class="cls-1" d="m30.17,45.92c-3.43.16-5.92-1.07-8.21-2.92-.51-.42-.48-.85-.27-1.27.57-1.14,1.18-2.27,1.84-3.36.35-.58,1.01-.44,1.21,0,.52,1.14,1.67,1.29,2.57,1.61,1.83.65,3.74.93,5.66-.02,1.34-.66,2.07-1.61,2.01-3.05-.06-1.53-.78-2.74-2.25-3.33-1.57-.63-3.24-.62-4.89-.58-1.68.04-1.66.07-1.7-1.6-.02-.75-.12-1.5-.22-2.24-.1-.73.09-.91.89-.97,1.97-.14,3.83-.74,5.19-2.28,1.01-1.14,1.01-2.67.18-3.94-.74-1.13-1.97-1.61-3.46-1.25-1.66.41-3.19,1.02-4.14,2.62-.49.82-1.19.8-1.82.02-.59-.73-1.13-1.53-1.9-2.07-.91-.64-.79-1.35-.15-1.97,1.94-1.87,4.08-3.37,6.86-3.82,1.32-.21,2.63-.4,3.92-.19,3.04.5,5.57,1.62,7.07,4.7,1.24,2.54.92,4.76-.35,6.99-.48.84-1.24,1.59-2.24,1.95-.34.12-.67.31-.65.68.02.51.48.35.79.38,2.83.35,4.99,2.5,5.27,5.46.13,1.41.21,2.85-.11,4.27-.36,1.6-1.32,2.88-2.62,3.69-1.75,1.09-3.66,1.93-5.77,2.23-1.04.14-2.06.37-2.71.26Z"/></g></svg>