<?xml version="1.0" encoding="UTF-8"?><svg id="Layer_2" xmlns="http://www.w3.org/2000/svg" viewBox="0 0 63.09 60.96"><defs><style>.cls-1{fill:#020202;}.cls-1,.cls-2,.cls-3{stroke-width:0px;}.cls-2{fill:#b1adad;}.cls-3{fill:#fff;}</style></defs><g id="_22"><path id="bg" class="cls-3" d="m57.67,46.85c3.49-5.3,5.24-11.08,5.41-15.94-.09-6.75-1.2-11.8-3.73-16.52-1.19-2.22-2.63-4.07-5.37-4.28-1.92-.14-3.78-.63-5.52-1.29-4.01-1.53-8.05-2.92-12.2-3.99-.9-.23-1.81-.19-2.72-.45-2.83-.8-5.52-1.92-8.09-3.32-2.97-1.61-5.76-1.37-8.47.58-.41.3-.86.55-1.31.8-6.44,3.58-10.9,8.95-13.47,15.76-3.63,9.63-2.76,19,2.56,27.8,7.48,12.38,21.29,17.51,35.04,13.75,7.55-2.06,13.53-6.32,17.87-12.9Z"/><path id="num" class="cls-1" d="m26.43,14.05c-3.74-1.09-8.68.6-10.96,3.78-.38.53-.55,1.17.02,1.62.93.74,1.22,2.3,2.78,2.21.19-.01.41-.24.53-.42.67-.97,1.72-1.4,2.69-1.93,1.69-.93,3.75-.23,4.6,1.49.47.95.59,1.96.43,2.99-.42,2.59-1.64,4.79-3.32,6.77-2.48,2.9-5.21,5.57-8.03,8.13-1.19,1.08-1.61,2.29-1.69,3.78-.05.93.33,1.42,1.27,1.41,4-.04,7.96.66,11.95.9,1.11,0,2.25-.12,3.34.03,1.13.16,1.43-.38,1.5-1.28.09-1.11.13-2.22.2-3.34.05-.79-.37-1.1-1.1-1.08-2.13.08-4.27-.22-6.4.14-.4.07-.9.21-1.17-.2-.34-.52.19-.87.46-1.18.99-1.11,2.07-2.13,3.06-3.24,2.82-3.17,5.09-6.62,5.49-11.01.42-4.58-1.87-8.48-5.66-9.59Z"/><path id="num-2" class="cls-1" d="m50.59,45.18c.76-1.4.57-2.88.32-4.33-.11-.64-.72-.75-1.33-.73-1.95.05-3.9.08-5.85.09-.62,0-1.52.37-1.8-.19-.37-.73.48-1.3.88-1.9.15-.23.37-.42.56-.61,1.97-1.92,3.7-4.04,5.15-6.38,2.28-3.7,3.6-7.54,1.44-11.78-1.14-2.24-2.78-3.91-5.31-4.55-.69-.02-1.39-.05-2.08-.04-.29,0-.74-.14-.8.3-.07.45.32.63.7.7.54.11,1.09.2,1.64.3,1.04.18,1.77.85,2.8,1.65-1.61-.17-2.83-.19-4.1-.89-1.36-.76-2.94-1.3-4.61-1.18h0c-1.68.75-3.04,2.02-3.71,3.6-.48,1.13,1.1,1.97,1.69,2.98.02.04.05.08.08.12.4.54.79.57,1.21,0,.66-.88,1.61-1.38,2.55-1.89,2.35-1.27,4.79.02,5.05,2.64.19,1.93-.55,3.63-1.28,5.31-1.09,2.52-3,4.45-4.83,6.42-1.92,2.08-3.85,4.15-5.77,6.23-.93,1.01-.61,2.22-.34,3.31.23.93,1.19.68,1.9.72,4.86.26,9.72.51,14.57.78.58.03.98-.14,1.26-.65Z"/><path class="cls-2" d="m44.11,16.03c-.55-.1-1.1-.19-1.64-.3-.38-.08-.77-.26-.7-.7.07-.43.51-.29.8-.3.69,0,1.39.03,2.08.04-.27-.34-.66-.23-1.01-.31-1.99-.43-3.66.61-5.44,1.14h0c1.67-.11,3.25.43,4.61,1.18,1.26.7,2.49.72,4.1.89-1.03-.8-1.76-1.47-2.8-1.65Z"/></g></svg>