<?xml version="1.0" encoding="UTF-8"?><svg id="Layer_2" xmlns="http://www.w3.org/2000/svg" viewBox="0 0 62.33 62.96"><defs><style>.cls-1{fill:#020202;}.cls-1,.cls-2{stroke-width:0px;}.cls-2{fill:#fff;}</style></defs><g id="_16"><path id="bg" class="cls-2" d="m32.34.02C14.76-.54-.34,13.54,0,31.95c.33,17.53,14.43,31.09,31.61,31.01,16.64-.08,30.9-13.92,30.71-31.68C62.37,13.8,48.1.51,32.34.02Z"/><path id="num" class="cls-1" d="m44.94,27.58c-2.87-1.76-6.21-1.37-8.7.94-.3.28-.53.67-1.04.55-.38-.09-.3-.41-.32-.67-.17-2.25.35-4.33,1.66-6.17,1.24-1.75,2.82-2.06,4.75-1.19,1.04.47,1.98,1.84,3.03,1.34.91-.43,1.37-1.79,2.03-2.73.62-.88.46-1.61-.36-2.29-4.44-3.67-10.84-2.67-14.1,2.08-1.97,2.87-2.46,6.07-2.56,9.36-.13,4.37.7,8.57,2.5,12.59,1.33,2.96,4.81,5.42,7.99,5.44,3.74-.14,6.58-1.75,7.95-5.35,1.13-2.97,1.26-6.08.34-9.14-.56-1.87-1.4-3.67-3.16-4.75Zm-2.8,12.61c-.95,1.77-2.82,2.07-4.25.66-1.56-1.54-2.24-3.5-2.43-5.61-.14-1.52,1.96-3.56,3.71-3.8,1.46-.2,2.61.69,3.21,2.48.33.99.29,2.01.37,2.76,0,1.38-.06,2.49-.61,3.51Z"/><path id="num-2" class="cls-1" d="m24.6,41.96c-1.14.13-1.62-.27-1.58-1.31.13-3.54-.35-7.04-.57-10.56-.24-3.89-.56-7.77-.86-11.65-.03-.43.05-1.18-.53-1.12-1.49.14-3.08-.39-4.47.6-1.4,1.01-3,1.65-4.56,2.34-.57.25-1.29.29-1.17,1.25.13,1.1-.36,2.4,1.04,3.05.69.32,1.33.08,2.01-.16,1.45-.52,2.28-.18,2.3.97.08,5.25.54,10.48,1.06,15.7.11,1.11-.39,1.51-1.46,1.46-1.02-.05-2.05-.05-3.06.02-.73.05-1.46.28-1.23,1.26.23.97.19,1.93.17,2.91-.01.88.32,1.36,1.36,1.26,2.31-.23,4.63-.36,7.27-.56,2.09.2,4.47-.36,6.89-.29.92.03,1.34-.35,1.37-1.31.14-4.2.08-4.32-3.98-3.87Z"/></g></svg>