<?xml version="1.0" encoding="UTF-8"?><svg id="Layer_2" xmlns="http://www.w3.org/2000/svg" viewBox="0 0 59.82 61.42"><defs><style>.cls-1{fill:#020202;}.cls-1,.cls-2,.cls-3{stroke-width:0px;}.cls-2{fill:#898585;}.cls-3{fill:#fff;}</style></defs><g id="_32"><path id="bg" class="cls-3" d="m20.76,1.3c-2.39.61-4.55,1.69-5.24,4.31-.32,1.21-.96,2.1-1.82,2.9-1.04.96-1.65,2.15-1.93,3.52-.38,1.86-.52,3.8-1.17,5.56-2.64,7.13-5.56,14.14-9.92,20.44-.77,1.12-.88,2.21-.38,3.45,2.48,6.23,6.71,11.14,12.1,14.91,4.88,3.41,10.47,5.13,16.06,5.03,8.18.06,15.05-2.28,20.93-7.3,5.5-4.7,8.84-10.69,9.95-17.85,1.48-9.57-.33-18.44-6.77-25.82C44.03.65,33.15-1.89,20.76,1.3Z"/><path id="num" class="cls-1" d="m37.53,21.46q-2.58.27-2.57,2.77t2.53,2.28c.1-.01.2-.01.29-.02,2-.2,3.79.67,4.27,2.08.5,1.47-.47,3.91-1.89,4.91-2.53,1.78-5.4,2.65-8.37,3.27-3.23.67-6.47,1.28-9.7,1.94-1.58.32-2.23,1.74-2.86,2.92-.42.8.92.87,1.39,1.32,3.61,3.42,7.56,6.45,11.42,9.58.78.63,1.59.67,2.28-.24.59-.78,1.18-1.57,1.86-2.26.92-.95.72-1.59-.27-2.37-1.8-1.43-3.72-2.66-5.67-3.86-.27-.17-.69-.34-.62-.74.07-.41.49-.37.83-.42.91-.12,1.82-.29,2.74-.39,3.7-.37,7.11-1.57,10.19-3.65,3.58-2.41,5.67-6.91,4.89-10.39-.97-4.33-5.67-7.27-10.75-6.73Z"/><path id="num-2" class="cls-1" d="m24.66,26.62c-.13-.29-.46-.61-.19-.93.27-.32.65-.17.93.04,1.44,1.06,2.94.35,4.21-.16,3.53-1.43,5.4-7.15,3.62-10.5-2.15-4.07-6.49-6.32-11.22-5.89-.84.08-1.1.53-1.17,1.21-.05.53-.01,1.07-.01,1.61q.01,2.4,2.46,2.41c1.27,0,2.4.38,3.4,1.16,1.4,1.09,1.64,2.27.77,3.84-.5.9-1.24,1.42-2.2,1.8-1.13.45-2.35-.41-3.42.36-.02-.09-.02-.19-.05-.27-.34-.96-1.27-1.3-2.03-1.74-1.44-.83-1.28.92-1.95,1.37-.24.16-.44.39-.62.61-.26.31-.42.63.23.58.46-.04.49.26.42.55-.18.78.21,1.28.61,1.91.58.91,1.38,1.64,1.92,2.57,1,1.71.31,3.52.29,5.27,0,.95.39,1.93-.05,2.88-.1.22-.16.51-.46.46-.15-.03-.39-.23-.39-.36.01-1.5-.58-1.04-1.31-.45-.3.24-.67.08-.91-.21-.37-.44-.02-.55.33-.69.68-.27.24-.75.13-1.1-.16-.53-.48-.95-1.16-.89-1.97.17-3.38-.67-4.22-2.45-.38-.81-.75-1-1.2-.07-.56,1.17-1.41,2.1-2.35,2.97-.29.27-.79.51-.46,1.07.25.42.49.89,1.07.88.39,0,.86-.13.99.36.46,1.78,2.09,2.08,3.43,2.66,3.11,1.34,6.85.27,9.54-2.6,2.38-2.53,2.65-4.73,1.03-8.26Zm-3.78-1.05c-.72.17-.86-.84-1.45-1.18.65-.09,1.29-.18,2.07-.28,0,.64-.08,1.34-.62,1.47Z"/><path class="cls-2" d="m20.88,25.56c.54-.13.61-.83.62-1.47-.78.11-1.42.2-2.07.28.59.34.73,1.35,1.45,1.18Z"/></g></svg>