<?xml version="1.0" encoding="UTF-8"?><svg id="Layer_2" xmlns="http://www.w3.org/2000/svg" viewBox="0 0 61.39 57.57"><defs><style>.cls-1{fill:#020202;}.cls-1,.cls-2{stroke-width:0px;}.cls-2{fill:#fff;}</style></defs><g id="_37"><path id="bg" class="cls-2" d="m49.4,51.07c6.12-4.77,10.02-10.99,11.46-18.69.76-4.08.75-8.18-.22-12.18-1.6-6.65-4.91-12.36-10.19-16.83-.45-.38-.86-.93-1.47-.87-2,.2-3.7-.96-5.32-1.62-3.37-1.38-6.52-.9-9.71-.09-4.31,1.09-8.29,3.1-12.25,5.07-5.58,2.78-10.98,5.93-16.6,8.61-2.54,1.21-3.81,2.98-4.39,5.55-.49,2.15-.7,4.32-.71,6.51.03,10.43,4.37,18.83,12.58,25.03,10.92,8.25,25.97,7.96,36.81-.48Z"/><path id="num" class="cls-1" d="m15.82,20.87c.59.64,1.02.6,1.51-.09.72-1,1.64-1.8,2.73-2.4,1.58-.88,3.14-.67,4.1.53,1.13,1.41,1.09,3.39-.13,4.69-.94,1-2.17,1.69-3.45,1.75-1.74.07-1.73.94-1.55,2.19.4,2.76.38,2.77,3.28,2.71.91-.07,1.98.08,3,.43,1.42.49,2.22,1.55,2.36,3.04.17,1.71-.38,2.76-1.86,3.45-2.6,1.21-4.95.6-7.04-1.18-.87-.74-1.43-.84-1.94.33-.35.8-.76,1.59-1.26,2.31-.55.8-.32,1.28.37,1.83,2.78,2.22,5.89,3.18,9.42,2.62,5.99-.96,9.11-4.97,7.83-11.02-.56-2.65-2.12-4.55-5-5.01-.22-.04-.56-.12-.62-.27-.14-.32.14-.57.41-.67.79-.28,1.26-.87,1.7-1.53,2.48-3.7.46-8.91-2.45-10.94-1.4-.98-2.97-1.51-4.74-.35-1.96,1.29-4.2,2.02-6.52,2.46-.83.16-1.54.48-2.2,1.04-.83.7-.87,1.31-.07,2.03.72.65,1.44,1.32,2.1,2.04Z"/><path id="num-2" class="cls-1" d="m32.97,17.39c2.97-.47,5.95-.92,8.92-1.4.32-.05.67-.4.93-.05.22.29-.01.64-.17.95-2.26,4.35-3.39,8.98-3.34,13.1-.19,3.77.09,6.72.31,9.68.06.87.52,1.07,1.26.98,1.16-.14,2.31-.35,3.47-.43.91-.06,1.1-.54,1.15-1.33.12-1.81-.35-3.56-.55-5.34-.29-2.63-.25-5.27.03-7.86.15-1.37.06-2.82.67-4.15,1.1-2.43,2.13-4.89,3.23-7.32.47-1.03.48-2.09.33-3.15-.19-1.29-.95-1.73-2.25-1.54-4.9.72-9.81,1.43-14.72,2.09-.68.09-.98.27-.89.98.17,1.35.32,2.7.47,4.05.08.71.51.84,1.15.74Z"/></g></svg>