<?xml version="1.0" encoding="UTF-8"?><svg id="Layer_2" xmlns="http://www.w3.org/2000/svg" viewBox="0 0 61.51 61.23"><defs><style>.cls-1{fill:#090809;}.cls-1,.cls-2,.cls-3{stroke-width:0px;}.cls-2{fill:#fff;}.cls-3{fill:#726f70;}</style></defs><g id="_2"><path id="bg" class="cls-2" d="m.01,30.04c.05-1.69-.08-3.38.42-5.04.14-.45.3-.84.71-1.09,4.05-2.55,7.71-5.63,11.63-8.35,4.79-3.32,9.22-7.12,14.02-10.43,1.69-1.16,3.38-2.39,4.81-3.91,1.52-1.6,3.41-1.3,5.26-.89,6.86,1.51,12.73,4.82,17.37,10.1,3.43,3.91,5.79,8.46,6.78,13.59.68,3.54.62,7.09.11,10.7-.71,5.04-2.45,9.6-5.3,13.76-3.43,5.01-8.12,8.52-13.73,10.71-4.55,1.77-9.3,2.39-14.22,1.88-5.35-.55-10.1-2.44-14.55-5.44-4.63-3.12-8.02-7.25-10.39-12.18C.91,39.26-.13,34.75.01,30.04Z"/><path id="num" class="cls-1" d="m45.83,38.22c-.64-1.14-1.33-2.26-2.02-3.38-.3-.49-.73-.61-1.25-.31-1.21.68-2.44,1.32-3.63,2.03-1.09.65-2.15,1.37-3.22,2.06-.26.17-.51.37-.83.21-.33-.18-.05-.47-.09-.7-.18-.98.61-1.67.75-2.54.45-2.94,1.14-5.84.98-8.87-.23-4.31-2.06-7.55-5.82-9.69-.85-.86-1.81-1.09-2.92-.53-.61,0-1.21.01-1.82.02,0,0,0,0,0,0-.43.37-.82.73-.91,1.37-.16,1.05-1.42,1.16-1.84,2.01,0,.02-.02.04-.03.06.04.12.12.2.24.24.03-.01.05-.03.08-.04.23-.23.37-.57.81-.53.16.55-.03,1.03-.32,1.46-.77,1.16-1.81,2.07-2.91,2.9-.3.23-.68.38-1.05.22-.45-.2-.06-.59-.1-.89-.1-.62-.18-1.29.6-1.61.2-.04.38-.1.57-.17.11-.11.22-.22.31-.34-.07-.12-.06-.25.03-.4-.07-.51.27-1.08-.22-1.53-.09-.17-.09-.3-.04-.41-.15-.15-.33-.24-.62-.05-1.99,1.92-3.06,4.32-3.69,6.97-.15.63.09.9.61.91.98.02,1.81.41,2.69.76,1.08.43,1.29.23,1.66-.87.64-1.9,1.4-3.76,3.48-4.59,3.2-.55,5.11.78,5.6,3.9.21,1.35.22,2.68,0,4.06-.32,2.01-.81,3.93-1.26,5.97,0,0-.2.66-.29,1.02-.47,1.84-1,3.66-1.47,5.5-.24.93-.84,1.73-.77,2.78.17,2.36,1.76,3.29,3.69,2.07,1.72-1.08,3.48-2.08,5.3-2.98,3.03-1.49,6.04-3.03,9.07-4.54.65-.33,1.06-.78.65-1.51Z"/><path class="cls-3" d="m33.75,40.23c-.24.02-.37-.13-.32-.32.09-.33.12-.77.53-.87.23-.05.36.23.35.46-.02.36-.19.63-.56.73Z"/></g></svg>