<?xml version="1.0" encoding="UTF-8"?><svg id="Layer_2" xmlns="http://www.w3.org/2000/svg" viewBox="0 0 61.67 61.18"><defs><style>.cls-1{fill:#020202;}.cls-1,.cls-2{stroke-width:0px;}.cls-2{fill:#fff;}</style></defs><g id="_25"><path id="bg" class="cls-2" d="m47.57,4.61C42.78,1.42,37.52-.27,31.88.1c-5.07-.46-9.67.7-14.13,2.53-2.62,1.07-5.42,2.06-7.52,3.85-3.02,2.59-5.49,5.81-7.22,9.5C.64,21.04-.33,26.34.1,31.91c.36,4.68,1.18,9.19,3.6,13.36,4.14,7.11,9.83,12.27,17.83,14.53,9.35,2.64,18.26,1.58,26.43-3.88,6.74-4.51,11.04-10.82,12.92-18.66,1.29-5.4.94-10.78-.72-16.13-2.19-7.08-6.53-12.45-12.6-16.5Z"/><path id="num" class="cls-1" d="m39.85,15.72c-4.09-1.45-8.2.38-9.89,4.19-.46,1.02-.03,2.78-1.18,2.98-.92.16-2.02-1.03-3.11-1.42-1.21-.43-1.16-1.11-.71-2.02.97-1.96,1.9-3.95,2.94-5.88.57-1.06.72-1.76-.72-2.13-.84-.22-1.62-.67-2.42-1.03-1.08-.49-1.74-.3-2.27.91-1.48,3.44-3.06,6.85-4.7,10.22-.54,1.11-.18,1.59.75,2.06,3.53,1.77,7.06,3.52,10.56,5.36,1.36.71,2.52.46,3.69-.31,1.06-.7.49-1.67.38-2.53-.33-2.68,1.55-4.74,4.23-4.71,1.82.02,3.14.97,4.34,2.13,1.4,1.35,1.5,2.94.52,4.64-.89,1.53-2.31,2.39-3.87,2.96-1.36.5-1.21,1.1-.49,2.01.61.76,1.48,1.38,1.49,2.5,2.88-.17,5.12-1.56,6.89-3.76,3.49-4.32,3.17-9.59-.75-13.25-1.62-1.51-3.67-2.21-5.68-2.92Z"/><path id="num-2" class="cls-1" d="m37.25,37.25c-.61,1.79-1.43,3.51-1.91,5.36-.08.32-.19.69-.59.75-.35.06-.51-.18-.64-.47-1.18-2.74-2.67-5.31-4.46-7.69-2.94-3.92-6.66-6.42-11.78-6.06-1.36.09-2.64.46-3.71,1.49-3.41,3.28-3.77,7.05-2.04,11.24.3.72.48,1.77,1.37,1.68,1.27-.13,2.57-.48,3.67-1.23.33-.22.12-.64-.06-.93-.55-.9-.71-1.9-.82-2.93-.29-2.75,1.6-4.35,4.27-3.65,2.77.73,4.42,2.8,5.91,4.98,2.21,3.23,3.65,6.88,5.19,10.46.72,1.68,1.82,2.65,3.49,3.19.73.24,1.08.21,1.43-.6,1.99-4.56,4.04-9.08,6.09-13.61.63-1.4.53-1.72-.96-2.24-.86-.3-1.78-.45-2.32-1.3-1.16-.1-1.74.44-2.12,1.56Z"/></g></svg>