<?xml version="1.0" encoding="UTF-8"?><svg id="Layer_2" xmlns="http://www.w3.org/2000/svg" viewBox="0 0 61.85 62.2"><defs><style>.cls-1{fill:#020202;}.cls-1,.cls-2{stroke-width:0px;}.cls-2{fill:#fff;}</style></defs><g id="_38"><path id="bg" class="cls-2" d="m30.56,0C13.53.01-.04,13.78,0,30.91c-.34,17.38,13.93,31.16,30.63,31.29,18.11.14,30.81-14.87,31.2-28.42C62.42,13.38,47.43-.01,30.56,0Z"/><path id="num" class="cls-1" d="m48.05,33c3.67-2.94,4.46-7.76,1.42-11.83-2.48-3.33-7.73-4.09-11.05-1.73-3.55,2.53-4.76,8.04-2.36,11.43.83,1.18.54,1.59-.55,2.16-4.75,2.52-5.28,8.85-3.37,11.79,2,3.07,4.96,4.41,7.59,4.49,5,.02,7.78-1.83,9.17-5.59,1.06-2.87.5-5.56-1.31-7.97-.89-1.18-.63-1.89.47-2.76Zm-4.81,8.41c-.34,2.1-1.68,3.14-3.77,2.94-1.71-.17-2.97-1.7-2.92-3.55-.04-2.06.65-3.8,2.22-5.18.3-.27.51-.51.99-.29,2.12.97,3.83,3.91,3.47,6.08Zm.96-10.7c-.4.55-1.01.77-1.51.31-1.24-1.15-2.59-2.28-2.45-3.98.08-1.24.1-2.19.83-3,.79-.87,1.63-1.36,2.82-.98,1.21.39,1.82,1.33,1.96,2.5.23,1.93-.52,3.61-1.64,5.15Z"/><path id="num-2" class="cls-1" d="m28.25,30.76c-.51-.47-.82-1.05.24-1.36,2.13-.62,3.22-2.24,3.93-4.2,1.19-3.3.33-7.09-2.05-8.81-3.71-2.69-7.65-2.95-11.74-.94-2.33,1.14-2.33,1.2-1.21,3.49.26.53.57,1.03.78,1.57.33.81.77.83,1.47.42.83-.5,1.7-.98,2.61-1.3,1.79-.63,3.67.07,4.28,1.48.72,1.63-.08,4-1.71,4.81-1.17.59-2.52.57-3.73.37-1.57-.26-2.17.32-2.35,1.72-.06.44-.15.87-.23,1.3-.21,1.1.14,1.76,1.33,1.95,1.22.2,2.33.74,3.36,1.41,1.59,1.03,2.05,2.89,1.23,4.81-.78,1.81-1.99,2.39-4.02,1.93-1.38-.31-2.52-.96-3.45-2.05-2.12-2.47-2.09-2.38-4.55-.29-1.13.96-1.11,1.77-.36,2.86,2.47,3.57,5.95,5.19,9.43,5.37,4.67-.03,7.16-2.06,8.52-5.58,1.28-3.33,1-6.38-1.78-8.94Z"/></g></svg>