<?xml version="1.0" encoding="UTF-8"?><svg id="Layer_2" xmlns="http://www.w3.org/2000/svg" viewBox="0 0 65.27 62.79"><defs><style>.cls-1{fill:#020202;}.cls-1,.cls-2,.cls-3,.cls-4,.cls-5,.cls-6,.cls-7,.cls-8{stroke-width:0px;}.cls-2{fill:#c9c5c6;}.cls-4{fill:#111212;}.cls-5{fill:#fff;}.cls-6{fill:#2c2c2c;}.cls-7{fill:#030202;}.cls-8{fill:#969292;}</style></defs><g id="_27"><g id="bg"><path class="cls-5" d="m59.7,13.66c-4.11-6.23-9.82-10.52-17.03-12.56-4.7-1.33-9.52-1.45-14.32-.39-7.6,1.68-13.67,5.73-18.47,11.82-1.77,2.25-2.86,4.86-4.22,7.34-.84,3.04-1.84,6.05-1.76,9.28.02.89.27,1.51,1.11,1.85.56.23.97.65,1.34,1.11.45.54,1.02.7,1.7.61,2.52-.36,4.59.6,6.5,2.16.78.64,1.55,1.48,2.73,1.45.09,0,.24.01.27.07,1.14,1.86,2.14,2.45,2.78,3.05h-2.64c0-.07.02-.15.04-.24h0s0,0,0,0c-.51-1.41-1.8-1.83-3.01-2.21-2.09-.65-4.34-.34-6.45-.93-.6-.17-1.31-.05-1.86-.31-2.07-.96-3.92-.13-5.8.58-.55.21-.55.73-.59,1.23-.11,1.39.39,2.68.64,4.01.49,1.27.93,2.56,1.48,3.8,2.26,5.09,5.42,9.5,10.17,12.53,3.08,1.96,6.37,3.46,10.11,3.92,2.28.28,4.5.67,6.81.28,1.17-.2,2.43-.61,3.6.28.35.26.94.21,1.42.27,3.89.46,7.65-.34,11.14-1.84,10.95-4.69,17.57-12.97,19.48-24.78,1.31-8.12-.71-15.6-5.18-22.38Z"/></g><path id="num" class="cls-1" d="m52.45,17.83c-1.12-.02-2.24-.12-3.36-.19-4.24-.24-8.48-.48-12.72-.73-.74-.04-1.08.24-1.07,1,.01,1.32,0,2.64-.05,3.96-.02.58.23.81.77.76,2.06-.18,4.08.31,6.21.32.99-.15,2.06-.07,3.13.06,1.02.12,1.14.61.55,1.36-.63.81-1.32,1.57-1.89,2.42-3.93,5.9-5.19,12.6-5.86,19.49-.08.85.29,1.11,1.09,1.12,1.32,0,2.64.03,3.95.18.88.1,1.18-.29,1.21-1.03.1-2.14.47-4.25.77-6.37.85-6.02,2.73-11.55,7.03-16.05,1.29-1.35,1.64-3.04,1.62-4.86-.01-.99-.42-1.42-1.4-1.43Z"/><path id="num-2" class="cls-7" d="m32.11,44.84c-.11-.62-.62-.79-.91-.36-.7,1.05-1.18.51-2.02.15-.77-.32-.76-1.24-1-1.27-1.49-.19-2.15-1.63-3.43-2.07-.44-.15-.87-.69-1.33-.28-.4.36-.23.94-.02,1.37.16.32.24.49-.13.66-.7.33-1.44.31-2.14.15-.24-.06-.12-.52.05-.77-.05-.08-.1-.13-.15-.2-.56-.76-1.32-.95-2.13-.97-.4-.01-.82,0-1.22,0-1.05-.03-1.67.9-2.73,1.11-1.57.31-3.14,3.85-2.8,5.52.21,1.02.61,1.74,1.98,1.55,2.6-.38,5.24-.5,7.84-.82,2.3-.28,4.58-.7,6.8-.79.2-.63-.35-.68-.42-1.01-.08-.35-.11-.71.32-.84.35-.11.54.16.69.41.49.87.49.88,1.25,0,.32-.38.78-.38,1.2-.45.9-.15.37-.68.3-1.08Z"/><path id="num-3" class="cls-4" d="m32,40.68c-1.02,0-2.03,0-3.05.03-.51.01-1.22-.13-1.25.62-.02.74.63.85,1.25.88,1.04.05,2.07-.27,3.12.3.68.37.83-.37.95-.86.02-.75-.4-.96-1.02-.96Z"/><path class="cls-6" d="m22.62,40.9c-.34-.75-.99-1.29-1.95-1.11-.09,0-.17.02-.24.04-.24.06-.41.19-.43.53-.03.51.34.41.58.36.83-.17.87.47,1.09.92.04.08.08.15.14.21.45-.17,1.08-.38.83-.94Z"/><path class="cls-2" d="m25.31,44.24c.24.15.62-.04.65-.36.07-.74-.37-1.11-1.12-1.25-.16.65-.11,1.24.48,1.61Z"/><g id="num-4"><path class="cls-3" d="m32.74,22.88c-.62-4.13-3.55-7.53-8.23-7.46-3.32.05-5.88,1.48-8.17,3.66-.61.59-.54,1.19,0,1.8.61.69,1.33,1.33,1.78,2.12.43.74.8.67,1.19.16,1.02-1.34,2.51-1.97,3.9-2.77.2-.12.34-.29.64-.21,2.07.58,3.42,2.33,3.48,4.65.04,1.4-.4,2.68-1.03,3.91-1.45,2.84-3.79,4.94-6.04,7.11l-2.11,1.28c.47.61,1.1,2.37,1.66,1.78.33-.34.59-.75.87-1.12.09-.02.18-.04.25-.06h0c1.15-.76,2.25-1.27,3.16.33.45.79.99.53,1.56.06,1.21-1,2.27-2.15,3.18-3.41,2.54-3.53,4.6-7.18,3.9-11.85Z"/></g><path class="cls-8" d="m21.19,42.43c.2-.2.4-.39.6-.59-.05-.06-.1-.13-.14-.21-.22-.45-.27-1.09-1.09-.92-.24.05-.61.15-.58-.36.02-.34.2-.47.43-.53.08-.02.16-.03.24-.04-.61-.77-.05-1.38.26-2.03h0c-.12.03-.28.06-.42.09-.12.03-.22.06-.23.11-.26,1.37-1.18,1.36-2.13,1.28-.14-.01-.28-.03-.42-.04h0c-.33,1.49,1.35.48,1.58,1.22-.29.84-1.23.29-1.62.85.41,0,.82-.02,1.22,0,.81.03,1.56.21,2.13.97.05.07.1.12.15.2h0s0,0,0,0h0s0,0,0,0Z"/></g></svg>