<?xml version="1.0" encoding="UTF-8"?><svg id="Layer_2" xmlns="http://www.w3.org/2000/svg" viewBox="0 0 62.84 62.78"><defs><style>.cls-1{fill:#020202;}.cls-1,.cls-2{stroke-width:0px;}.cls-2{fill:#fff;}</style></defs><g id="_23"><path id="bg" class="cls-2" d="m32.38.01C12.89-.5.38,14.49,0,32.02c.31,16.75,13.51,30.22,30.34,30.75,17.91.56,32.48-13.65,32.5-31.24C62.86,14.66,49.78.47,32.38.01Z"/><path id="num" class="cls-1" d="m47.55,30.49c3.55-2.69,3.03-9.39-.91-11.85-3.76-2.34-8.81-2-12.25.82-.68.55-.9,1.18-.4,1.94.43.66.82,1.3,1.05,2.08.22.77.83,1,1.52.45.85-.67,1.79-1.18,2.79-1.55,1.82-.67,3.08-.11,3.71,1.56.89,2.32-.47,5.05-2.88,5.59-.8.18-1.67.07-2.5.1-.47.02-1.09.04-1.17.55-.17,1.13-.2,2.29-.21,3.44,0,.42.42.57.8.66.68.16,1.34.37,2.03.5,1.11.2,1.98.77,2.64,1.66.71.96,1.05,3.37.48,4.11-.97,1.25-1.91,2.53-3.86,2.12-1.72-.37-2.9-1.4-3.91-2.72-1.43-1.86-1.45-1.89-2.88.1-.48.67-1.06.98-1.77.73-1.48-.53-3.03-.33-4.71-.62-.94,0-2.06.04-3.17-.01-1.05-.04-1.17-.57-.55-1.33.23-.28.53-.53.82-.75,1.79-1.35,3.39-2.93,4.77-4.68,2.84-3.62,5.08-7.44,3.72-12.4-.59-2.13-1.57-3.85-3.51-4.89-3.46-1.86-6.82-1.55-10.17.47-2.93,1.77-3.14,2.81-.85,5.28.57.61,1.01.66,1.64.12.92-.79,1.93-1.45,3.1-1.83,2.28-.74,4.15.68,4.28,3.07.1,1.89-.38,3.56-1.3,5.18-1.5,2.64-3.72,4.6-5.98,6.54-1.94,1.66-3.9,3.3-5.8,5-1.07.96-1.19,2.37-.91,3.61.25,1.09,1.51.85,2.4.96,4.47.54,8.95,1.07,13.42,1.57,2.09.23,2.33,0,2.41-2.08,0-.26-.12-.61.18-.76.38-.19.55.17.78.39,1.33,1.29,2.6,2.64,4.33,3.46,5.26,2.51,12.92.8,14.15-6.44.37-2.18-.12-4.09-1.6-5.8-.65-.74-2.03-.98-1.93-2.18.1-1.19,1.37-1.57,2.19-2.19Z"/></g></svg>